{"glyphs":{"0":{"ha":697,"x_min":102,"x_max":595,"o":"m 519 811 q 529 802 528 808 l 529 60 q 519 50 526 52 l 178 50 q 168 60 170 53 l 168 802 q 178 811 171 810 l 519 811 m 102 115 q 163 3 102 24 q 237 -7 191 -7 l 460 -7 q 583 45 559 -7 q 595 115 595 72 l 595 746 q 534 859 595 837 q 460 868 506 868 l 237 868 q 114 817 138 868 q 102 746 102 789 l 102 115 z "},"1":{"ha":549,"x_min":46,"x_max":506,"o":"m 506 52 l 334 52 l 334 861 l 278 861 l 46 705 l 75 663 l 271 792 l 271 52 l 72 52 l 72 0 l 506 0 l 506 52 z "},"2":{"ha":589,"x_min":56,"x_max":526,"o":"m 56 263 l 56 0 l 526 0 l 526 54 l 121 54 l 121 269 q 133 312 121 304 q 145 319 138 316 l 431 456 q 515 522 500 488 q 524 576 524 544 l 524 722 q 382 865 524 861 q 369 865 374 865 l 73 861 l 73 807 l 442 807 q 458 791 457 804 l 458 549 q 441 525 457 532 l 156 389 q 75 339 90 358 q 56 263 56 313 z "},"3":{"ha":594,"x_min":34,"x_max":486,"o":"m 486 140 l 486 335 q 422 452 484 430 q 479 560 479 480 l 479 726 q 387 861 479 841 q 330 865 361 865 l 38 861 l 38 810 l 396 810 q 412 793 412 810 l 412 491 q 396 475 412 475 l 109 475 l 109 420 l 403 420 q 419 404 419 420 l 419 71 q 403 54 416 56 l 34 54 l 34 0 l 330 -4 q 484 121 475 -5 q 486 140 486 130 z "},"4":{"ha":697,"x_min":30,"x_max":636,"o":"m 509 0 l 509 216 l 636 216 l 636 264 l 509 264 l 509 861 l 453 861 q 350 829 378 861 q 311 766 336 814 l 30 258 l 30 216 l 446 216 l 446 0 l 509 0 m 385 798 q 400 807 393 807 l 446 807 l 446 264 l 99 264 l 385 798 z "},"5":{"ha":586,"x_min":50,"x_max":511,"o":"m 127 509 l 127 807 l 488 807 l 488 861 l 64 861 l 64 454 l 429 454 q 445 438 444 452 l 445 71 q 429 54 445 54 l 50 54 l 50 0 l 362 -4 q 506 81 484 -5 q 511 136 511 106 l 511 378 q 401 506 511 490 q 355 509 380 509 l 127 509 z "},"6":{"ha":656,"x_min":109,"x_max":589,"o":"m 439 -3 q 581 75 556 -3 q 589 136 589 100 l 589 384 q 479 511 589 495 q 433 514 457 514 l 175 514 l 175 791 q 191 807 178 806 l 557 807 l 557 861 l 264 865 q 110 741 119 867 q 109 722 109 731 l 109 122 q 171 8 109 30 q 258 -3 203 -3 l 439 -3 m 193 54 q 175 71 176 57 l 175 460 l 506 460 q 522 444 521 457 l 522 71 q 506 54 522 54 l 193 54 z "},"7":{"ha":534,"x_min":27,"x_max":492,"o":"m 167 -3 l 492 784 q 408 861 484 859 l 27 861 l 27 808 l 423 808 q 430 795 434 806 l 102 -3 l 167 -3 z "},"8":{"ha":719,"x_min":109,"x_max":610,"o":"m 454 -4 q 610 140 609 -1 l 610 335 q 547 452 609 430 q 604 560 604 480 l 604 726 q 515 859 604 838 q 454 865 488 865 l 264 865 q 122 785 146 865 q 115 726 115 760 l 115 560 q 172 452 117 479 q 109 335 109 427 l 109 140 q 264 -4 111 -3 l 454 -4 m 175 71 l 175 404 q 191 420 175 420 l 528 420 q 544 404 544 420 l 544 71 q 528 54 541 56 l 191 54 q 175 71 176 57 m 182 491 l 182 793 q 198 810 182 810 l 521 810 q 537 793 537 810 l 537 491 q 521 475 537 475 l 198 475 q 182 491 182 475 z "},"9":{"ha":656,"x_min":68,"x_max":548,"o":"m 548 140 l 548 739 q 486 853 548 831 q 399 864 453 864 l 217 864 q 76 787 100 864 q 68 726 68 761 l 68 471 q 178 343 68 359 q 224 340 199 340 l 481 340 l 481 71 q 465 54 479 56 l 92 54 l 92 0 l 392 -4 q 547 121 537 -5 q 548 140 548 130 m 151 395 q 134 411 136 397 l 134 791 q 151 807 134 807 l 464 807 q 481 791 480 804 l 481 395 l 151 395 z "},"A":{"ha":690,"x_min":20,"x_max":671,"o":"m 671 0 l 445 861 l 370 861 q 275 834 298 861 q 241 751 260 814 l 20 0 l 80 0 l 149 244 l 545 244 l 608 0 l 671 0 m 309 798 q 320 807 313 806 l 399 807 l 529 298 l 165 298 l 309 798 z "},"Æ":{"ha":1021,"x_min":5,"x_max":967,"o":"m 69 0 l 187 271 l 515 271 l 515 0 l 967 0 l 967 54 l 578 54 l 578 407 l 939 407 l 939 461 l 578 461 l 578 807 l 960 807 l 960 861 l 475 861 q 380 834 404 861 q 336 751 365 817 l 5 0 l 69 0 m 416 798 q 429 807 422 806 l 515 807 l 515 326 l 210 326 l 416 798 z "},"Á":{"ha":690,"x_min":20,"x_max":671,"o":"m 671 0 l 445 861 l 370 861 q 275 834 298 861 q 241 751 260 814 l 20 0 l 80 0 l 149 244 l 545 244 l 608 0 l 671 0 m 309 798 q 320 807 313 806 l 399 807 l 529 298 l 165 298 l 309 798 m 334 921 l 415 1090 l 491 1089 l 384 921 l 334 921 z "},"Ă":{"ha":690,"x_min":20,"x_max":671,"o":"m 671 0 l 445 861 l 370 861 q 275 834 298 861 q 241 751 260 814 l 20 0 l 80 0 l 149 244 l 545 244 l 608 0 l 671 0 m 309 798 q 320 807 313 806 l 399 807 l 529 298 l 165 298 l 309 798 m 232 1076 q 285 948 232 975 q 377 932 317 932 q 500 989 475 932 q 514 1076 514 1021 l 465 1076 q 438 990 465 1008 q 377 978 416 978 q 289 1019 302 978 q 282 1076 282 1038 l 232 1076 z "},"Â":{"ha":690,"x_min":20,"x_max":671,"o":"m 671 0 l 445 861 l 370 861 q 275 834 298 861 q 241 751 260 814 l 20 0 l 80 0 l 149 244 l 545 244 l 608 0 l 671 0 m 309 798 q 320 807 313 806 l 399 807 l 529 298 l 165 298 l 309 798 m 396 1084 l 320 1084 l 198 921 l 262 921 l 358 1051 l 445 921 l 511 921 l 396 1084 z "},"Ä":{"ha":690,"x_min":20,"x_max":671,"o":"m 671 0 l 445 861 l 370 861 q 275 834 298 861 q 241 751 260 814 l 20 0 l 80 0 l 149 244 l 545 244 l 608 0 l 671 0 m 309 798 q 320 807 313 806 l 399 807 l 529 298 l 165 298 l 309 798 m 289 958 l 289 1053 l 216 1053 l 216 958 l 289 958 m 517 958 l 517 1053 l 444 1053 l 444 958 l 517 958 z "},"À":{"ha":690,"x_min":20,"x_max":671,"o":"m 671 0 l 445 861 l 370 861 q 275 834 298 861 q 241 751 260 814 l 20 0 l 80 0 l 149 244 l 545 244 l 608 0 l 671 0 m 309 798 q 320 807 313 806 l 399 807 l 529 298 l 165 298 l 309 798 m 231 1089 l 308 1090 l 401 921 l 349 921 l 231 1089 z "},"Ā":{"ha":690,"x_min":20,"x_max":671,"o":"m 671 0 l 445 861 l 370 861 q 275 834 298 861 q 241 751 260 814 l 20 0 l 80 0 l 149 244 l 545 244 l 608 0 l 671 0 m 309 798 q 320 807 313 806 l 399 807 l 529 298 l 165 298 l 309 798 m 530 1019 l 202 1019 l 202 968 l 530 968 l 530 1019 z "},"Ą":{"ha":690,"x_min":20,"x_max":699,"o":"m 671 0 l 445 861 l 370 861 q 275 834 298 861 q 241 751 260 814 l 20 0 l 80 0 l 149 244 l 545 244 l 608 0 l 616 0 l 547 -61 q 511 -151 511 -94 l 511 -178 q 578 -264 511 -250 q 648 -271 606 -271 l 699 -271 l 699 -217 l 582 -217 q 572 -208 574 -214 l 572 -118 q 583 -95 574 -104 l 671 0 m 309 798 q 320 807 313 806 l 399 807 l 529 298 l 165 298 l 309 798 z "},"Å":{"ha":690,"x_min":20,"x_max":671,"o":"m 671 0 l 445 861 l 370 861 q 275 834 298 861 q 241 751 260 814 l 20 0 l 80 0 l 149 244 l 545 244 l 608 0 l 671 0 m 309 798 q 320 807 313 806 l 399 807 l 529 298 l 165 298 l 309 798 m 475 1010 q 426 1108 475 1089 q 363 1116 401 1116 q 264 1067 282 1116 q 256 1010 256 1046 q 308 913 256 930 q 363 905 330 905 q 469 964 453 905 q 475 1010 475 983 m 301 1010 q 317 1073 301 1063 q 363 1081 331 1081 q 425 1059 415 1081 q 430 1010 430 1044 q 411 948 430 959 q 363 940 395 940 q 305 968 313 940 q 301 1010 301 982 z "},"Ã":{"ha":690,"x_min":20,"x_max":671,"o":"m 671 0 l 445 861 l 370 861 q 275 834 298 861 q 241 751 260 814 l 20 0 l 80 0 l 149 244 l 545 244 l 608 0 l 671 0 m 309 798 q 320 807 313 806 l 399 807 l 529 298 l 165 298 l 309 798 m 252 964 q 285 1015 254 1013 q 369 986 304 1015 q 450 964 419 964 q 521 1017 509 964 q 526 1066 526 1038 l 475 1066 q 450 1017 475 1021 q 438 1016 444 1016 q 353 1044 416 1016 q 271 1066 304 1066 q 203 1004 214 1066 q 201 964 201 986 l 252 964 z "},"B":{"ha":712,"x_min":102,"x_max":617,"o":"m 617 140 l 617 327 q 552 445 617 423 q 545 446 548 445 q 597 552 597 475 l 597 726 q 505 861 597 841 q 448 865 479 865 l 102 861 l 102 0 l 461 -4 q 616 121 606 -5 q 617 140 617 130 m 534 412 q 551 396 551 412 l 551 71 q 534 54 548 56 l 164 54 l 164 412 l 534 412 m 514 811 q 530 795 530 811 l 530 483 q 514 467 528 468 l 164 467 l 164 811 l 514 811 z "},"C":{"ha":572,"x_min":88,"x_max":538,"o":"m 538 57 l 164 57 q 155 66 156 60 l 155 795 q 164 804 157 803 l 538 804 l 538 861 l 224 861 q 100 810 125 861 q 88 739 88 783 l 88 122 q 149 9 88 31 q 224 0 178 0 l 538 0 l 538 57 z "},"Ć":{"ha":572,"x_min":88,"x_max":538,"o":"m 538 57 l 164 57 q 155 66 156 60 l 155 795 q 164 804 157 803 l 538 804 l 538 861 l 224 861 q 100 810 125 861 q 88 739 88 783 l 88 122 q 149 9 88 31 q 224 0 178 0 l 538 0 l 538 57 m 312 921 l 393 1090 l 469 1089 l 362 921 l 312 921 z "},"Č":{"ha":572,"x_min":88,"x_max":538,"o":"m 538 57 l 164 57 q 155 66 156 60 l 155 795 q 164 804 157 803 l 538 804 l 538 861 l 224 861 q 100 810 125 861 q 88 739 88 783 l 88 122 q 149 9 88 31 q 224 0 178 0 l 538 0 l 538 57 m 317 928 l 393 928 l 515 1090 l 452 1090 l 355 960 l 269 1090 l 202 1090 l 317 928 z "},"Ç":{"ha":572,"x_min":88,"x_max":538,"o":"m 538 57 l 164 57 q 155 66 156 60 l 155 795 q 164 804 157 803 l 538 804 l 538 861 l 224 861 q 100 810 125 861 q 88 739 88 783 l 88 122 q 149 9 88 31 q 224 0 178 0 l 286 0 l 259 -121 l 373 -121 q 382 -130 381 -123 l 382 -208 q 373 -217 380 -216 l 241 -217 l 241 -271 l 321 -271 q 442 -163 441 -269 l 442 -160 q 358 -75 442 -83 q 334 -73 346 -73 l 313 -73 l 328 0 l 538 0 l 538 57 z "},"D":{"ha":705,"x_min":102,"x_max":617,"o":"m 534 811 q 551 795 551 811 l 551 66 q 534 50 548 52 l 164 50 l 164 811 l 534 811 m 102 -1 l 461 -7 q 617 136 614 -4 l 617 726 q 515 865 617 848 q 468 868 494 868 l 102 861 l 102 -1 z "},"Ď":{"ha":705,"x_min":102,"x_max":617,"o":"m 534 811 q 551 795 551 811 l 551 66 q 534 50 548 52 l 164 50 l 164 811 l 534 811 m 102 -1 l 461 -7 q 617 136 614 -4 l 617 726 q 515 865 617 848 q 468 868 494 868 l 102 861 l 102 -1 m 326 928 l 401 928 l 524 1090 l 460 1090 l 363 960 l 277 1090 l 210 1090 l 326 928 z "},"Đ":{"ha":705,"x_min":19,"x_max":617,"o":"m 534 811 q 551 795 551 811 l 551 66 q 534 50 548 52 l 164 50 l 164 411 l 354 411 l 354 463 l 164 463 l 164 811 l 534 811 m 102 -1 l 461 -7 q 617 136 614 -4 l 617 726 q 515 865 617 848 q 468 868 494 868 l 102 861 l 102 463 l 19 463 l 19 411 l 102 411 l 102 -1 z "},"E":{"ha":608,"x_min":102,"x_max":560,"o":"m 560 0 l 560 54 l 164 54 l 164 412 l 532 412 l 532 467 l 164 467 l 164 807 l 553 807 l 553 861 l 102 861 l 102 0 l 560 0 z "},"É":{"ha":608,"x_min":102,"x_max":560,"o":"m 560 0 l 560 54 l 164 54 l 164 412 l 532 412 l 532 467 l 164 467 l 164 807 l 553 807 l 553 861 l 102 861 l 102 0 l 560 0 m 307 921 l 388 1090 l 464 1089 l 357 921 l 307 921 z "},"Ě":{"ha":608,"x_min":102,"x_max":560,"o":"m 560 0 l 560 54 l 164 54 l 164 412 l 532 412 l 532 467 l 164 467 l 164 807 l 553 807 l 553 861 l 102 861 l 102 0 l 560 0 m 312 928 l 388 928 l 510 1090 l 446 1090 l 350 960 l 263 1090 l 197 1090 l 312 928 z "},"Ê":{"ha":608,"x_min":102,"x_max":560,"o":"m 560 0 l 560 54 l 164 54 l 164 412 l 532 412 l 532 467 l 164 467 l 164 807 l 553 807 l 553 861 l 102 861 l 102 0 l 560 0 m 369 1084 l 293 1084 l 171 921 l 235 921 l 331 1051 l 418 921 l 484 921 l 369 1084 z "},"Ë":{"ha":608,"x_min":102,"x_max":560,"o":"m 560 0 l 560 54 l 164 54 l 164 412 l 532 412 l 532 467 l 164 467 l 164 807 l 553 807 l 553 861 l 102 861 l 102 0 l 560 0 m 262 958 l 262 1053 l 189 1053 l 189 958 l 262 958 m 490 958 l 490 1053 l 416 1053 l 416 958 l 490 958 z "},"Ė":{"ha":608,"x_min":102,"x_max":560,"o":"m 560 0 l 560 54 l 164 54 l 164 412 l 532 412 l 532 467 l 164 467 l 164 807 l 553 807 l 553 861 l 102 861 l 102 0 l 560 0 m 378 956 l 378 1059 l 300 1059 l 300 956 l 378 956 z "},"È":{"ha":608,"x_min":102,"x_max":560,"o":"m 560 0 l 560 54 l 164 54 l 164 412 l 532 412 l 532 467 l 164 467 l 164 807 l 553 807 l 553 861 l 102 861 l 102 0 l 560 0 m 203 1089 l 281 1090 l 374 921 l 321 921 l 203 1089 z "},"Ē":{"ha":608,"x_min":102,"x_max":560,"o":"m 560 0 l 560 54 l 164 54 l 164 412 l 532 412 l 532 467 l 164 467 l 164 807 l 553 807 l 553 861 l 102 861 l 102 0 l 560 0 m 503 1019 l 175 1019 l 175 968 l 503 968 l 503 1019 z "},"Ę":{"ha":608,"x_min":102,"x_max":587,"o":"m 560 0 l 560 54 l 164 54 l 164 412 l 532 412 l 532 467 l 164 467 l 164 807 l 553 807 l 553 861 l 102 861 l 102 0 l 505 0 l 435 -61 q 400 -151 400 -94 l 400 -178 q 467 -264 400 -250 q 537 -271 495 -271 l 587 -271 l 587 -217 l 471 -217 q 461 -208 463 -214 l 461 -118 q 472 -95 463 -104 l 560 0 z "},"Ð":{"ha":705,"x_min":19,"x_max":617,"o":"m 534 811 q 551 795 551 811 l 551 66 q 534 50 548 52 l 164 50 l 164 411 l 354 411 l 354 463 l 164 463 l 164 811 l 534 811 m 102 -1 l 461 -7 q 617 136 614 -4 l 617 726 q 515 865 617 848 q 468 868 494 868 l 102 861 l 102 463 l 19 463 l 19 411 l 102 411 l 102 -1 z "},"€":{"ha":627,"x_min":57,"x_max":579,"o":"m 579 758 l 579 814 l 278 814 q 157 765 182 814 q 145 692 145 736 l 145 507 l 57 507 l 57 458 l 145 458 l 145 363 l 57 363 l 57 315 l 145 315 l 145 122 q 202 9 145 31 q 278 0 231 0 l 579 0 l 579 56 l 218 56 q 209 65 210 58 l 209 315 l 423 315 l 423 363 l 209 363 l 209 458 l 423 458 l 423 507 l 209 507 l 209 749 q 218 758 212 757 l 579 758 z "},"F":{"ha":566,"x_min":102,"x_max":545,"o":"m 524 453 l 164 453 l 164 807 l 545 807 l 545 861 l 102 861 l 102 0 l 164 0 l 164 399 l 524 399 l 524 453 z "},"G":{"ha":699,"x_min":88,"x_max":624,"o":"m 488 -7 q 612 45 587 -7 q 624 115 624 72 l 624 434 l 374 434 l 374 380 l 557 380 l 557 60 q 548 50 555 52 l 164 50 q 155 60 156 53 l 155 802 q 164 811 157 810 l 610 811 l 610 868 l 224 868 q 100 817 125 868 q 88 746 88 789 l 88 115 q 149 3 88 24 q 224 -7 178 -7 l 488 -7 z "},"Ğ":{"ha":699,"x_min":88,"x_max":624,"o":"m 488 -7 q 612 45 587 -7 q 624 115 624 72 l 624 434 l 374 434 l 374 380 l 557 380 l 557 60 q 548 50 555 52 l 164 50 q 155 60 156 53 l 155 802 q 164 811 157 810 l 610 811 l 610 868 l 224 868 q 100 817 125 868 q 88 746 88 789 l 88 115 q 149 3 88 24 q 224 -7 178 -7 l 488 -7 m 231 1076 q 283 948 231 975 q 376 932 316 932 q 499 989 473 932 q 513 1076 513 1021 l 464 1076 q 437 990 464 1008 q 376 978 415 978 q 288 1019 301 978 q 281 1076 281 1038 l 231 1076 z "},"H":{"ha":753,"x_min":102,"x_max":651,"o":"m 589 0 l 651 0 l 651 861 l 589 861 l 589 464 l 164 464 l 164 861 l 102 861 l 102 0 l 164 0 l 164 410 l 589 410 l 589 0 z "},"I":{"ha":307,"x_min":122,"x_max":184,"o":"m 184 0 l 184 861 l 122 861 l 122 0 l 184 0 z "},"Í":{"ha":307,"x_min":122,"x_max":283,"o":"m 184 0 l 184 861 l 122 861 l 122 0 l 184 0 m 126 921 l 208 1090 l 283 1089 l 176 921 l 126 921 z "},"Î":{"ha":307,"x_min":-15,"x_max":298,"o":"m 184 0 l 184 861 l 122 861 l 122 0 l 184 0 m 183 1084 l 107 1084 l -15 921 l 49 921 l 145 1051 l 232 921 l 298 921 l 183 1084 z "},"Ï":{"ha":307,"x_min":3,"x_max":304,"o":"m 184 0 l 184 861 l 122 861 l 122 0 l 184 0 m 76 958 l 76 1053 l 3 1053 l 3 958 l 76 958 m 304 958 l 304 1053 l 231 1053 l 231 958 l 304 958 z "},"İ":{"ha":307,"x_min":114,"x_max":193,"o":"m 184 0 l 184 861 l 122 861 l 122 0 l 184 0 m 193 956 l 193 1059 l 114 1059 l 114 956 l 193 956 z "},"Ì":{"ha":307,"x_min":18,"x_max":189,"o":"m 184 0 l 184 861 l 122 861 l 122 0 l 184 0 m 18 1089 l 95 1090 l 189 921 l 136 921 l 18 1089 z "},"Ī":{"ha":307,"x_min":-11,"x_max":317,"o":"m 184 0 l 184 861 l 122 861 l 122 0 l 184 0 m 317 1019 l -11 1019 l -11 968 l 317 968 l 317 1019 z "},"Į":{"ha":307,"x_min":24,"x_max":212,"o":"m 184 0 l 184 861 l 122 861 l 122 0 l 129 0 l 60 -61 q 24 -151 24 -94 l 24 -178 q 91 -264 24 -250 q 161 -271 119 -271 l 212 -271 l 212 -217 l 95 -217 q 85 -208 87 -214 l 85 -118 q 96 -95 87 -104 l 184 0 z "},"J":{"ha":339,"x_min":20,"x_max":231,"o":"m 231 861 l 168 861 l 168 60 q 159 50 165 52 l 20 50 l 20 -7 l 114 -7 q 217 35 195 -7 q 231 110 231 62 l 231 861 z "},"K":{"ha":705,"x_min":109,"x_max":690,"o":"m 407 411 q 416 401 414 408 l 621 0 l 690 0 l 514 340 q 458 426 477 411 q 438 439 449 434 q 498 513 471 453 q 509 536 503 522 l 655 861 l 590 861 l 418 475 q 408 465 412 467 l 171 465 l 171 861 l 109 861 l 109 0 l 171 0 l 171 411 l 407 411 z "},"L":{"ha":510,"x_min":102,"x_max":503,"o":"m 503 54 l 164 54 l 164 861 l 102 861 l 102 0 l 503 0 l 503 54 z "},"Ĺ":{"ha":510,"x_min":102,"x_max":503,"o":"m 503 54 l 164 54 l 164 861 l 102 861 l 102 0 l 503 0 l 503 54 m 107 921 l 189 1090 l 264 1089 l 157 921 l 107 921 z "},"Ľ":{"ha":510,"x_min":102,"x_max":503,"o":"m 503 54 l 164 54 l 164 861 l 102 861 l 102 0 l 503 0 l 503 54 m 342 746 l 374 746 q 342 651 370 699 l 370 629 q 426 764 426 689 l 426 861 l 342 861 l 342 746 z "},"Ł":{"ha":510,"x_min":102,"x_max":503,"o":"m 503 54 l 164 54 l 164 861 l 102 861 l 102 0 l 503 0 l 503 54 z "},"M":{"ha":846,"x_min":102,"x_max":749,"o":"m 697 861 l 678 861 l 426 374 l 205 812 q 140 861 171 857 l 102 861 l 102 0 l 160 0 l 160 765 l 404 286 l 439 286 l 688 758 l 688 0 l 749 0 l 749 803 q 712 860 749 854 q 697 861 704 861 z "},"N":{"ha":753,"x_min":100,"x_max":652,"o":"m 610 0 l 652 0 l 652 861 l 595 861 l 595 136 l 142 861 l 100 861 l 100 0 l 157 0 l 157 726 l 610 0 z "},"Ń":{"ha":753,"x_min":100,"x_max":652,"o":"m 610 0 l 652 0 l 652 861 l 595 861 l 595 136 l 142 861 l 100 861 l 100 0 l 157 0 l 157 726 l 610 0 m 346 921 l 427 1090 l 503 1089 l 396 921 l 346 921 z "},"Ň":{"ha":753,"x_min":100,"x_max":652,"o":"m 610 0 l 652 0 l 652 861 l 595 861 l 595 136 l 142 861 l 100 861 l 100 0 l 157 0 l 157 726 l 610 0 m 351 928 l 427 928 l 549 1090 l 486 1090 l 389 960 l 302 1090 l 236 1090 l 351 928 z "},"Ñ":{"ha":753,"x_min":100,"x_max":652,"o":"m 610 0 l 652 0 l 652 861 l 595 861 l 595 136 l 142 861 l 100 861 l 100 0 l 157 0 l 157 726 l 610 0 m 264 964 q 297 1015 266 1013 q 381 986 316 1015 q 463 964 431 964 q 533 1017 521 964 q 538 1066 538 1038 l 487 1066 q 463 1017 487 1021 q 450 1016 456 1016 q 365 1044 429 1016 q 283 1066 316 1066 q 216 1004 227 1066 q 213 964 213 986 l 264 964 z "},"O":{"ha":726,"x_min":88,"x_max":637,"o":"m 562 811 q 571 802 570 808 l 571 60 q 562 50 568 52 l 164 50 q 155 60 156 53 l 155 802 q 164 811 157 810 l 562 811 m 88 115 q 149 3 88 24 q 224 -7 178 -7 l 502 -7 q 625 45 601 -7 q 637 115 637 72 l 637 746 q 576 859 637 837 q 502 868 548 868 l 224 868 q 100 817 125 868 q 88 746 88 789 l 88 115 z "},"Œ":{"ha":1048,"x_min":71,"x_max":994,"o":"m 994 0 l 994 54 l 602 54 l 602 412 l 966 412 l 966 467 l 602 467 l 602 807 l 987 807 l 987 861 l 206 864 q 83 812 107 864 q 71 742 71 785 l 71 119 q 132 7 71 28 q 206 -3 160 -3 l 994 0 m 146 54 q 137 64 138 57 l 137 798 q 146 807 140 806 l 540 807 l 540 54 l 146 54 z "},"Ó":{"ha":726,"x_min":88,"x_max":637,"o":"m 562 811 q 571 802 570 808 l 571 60 q 562 50 568 52 l 164 50 q 155 60 156 53 l 155 802 q 164 811 157 810 l 562 811 m 88 115 q 149 3 88 24 q 224 -7 178 -7 l 502 -7 q 625 45 601 -7 q 637 115 637 72 l 637 746 q 576 859 637 837 q 502 868 548 868 l 224 868 q 100 817 125 868 q 88 746 88 789 l 88 115 m 334 921 l 415 1090 l 491 1089 l 384 921 l 334 921 z "},"Ô":{"ha":726,"x_min":88,"x_max":637,"o":"m 562 811 q 571 802 570 808 l 571 60 q 562 50 568 52 l 164 50 q 155 60 156 53 l 155 802 q 164 811 157 810 l 562 811 m 88 115 q 149 3 88 24 q 224 -7 178 -7 l 502 -7 q 625 45 601 -7 q 637 115 637 72 l 637 746 q 576 859 637 837 q 502 868 548 868 l 224 868 q 100 817 125 868 q 88 746 88 789 l 88 115 m 396 1084 l 320 1084 l 198 921 l 262 921 l 358 1051 l 445 921 l 511 921 l 396 1084 z "},"Ö":{"ha":726,"x_min":88,"x_max":637,"o":"m 562 811 q 571 802 570 808 l 571 60 q 562 50 568 52 l 164 50 q 155 60 156 53 l 155 802 q 164 811 157 810 l 562 811 m 88 115 q 149 3 88 24 q 224 -7 178 -7 l 502 -7 q 625 45 601 -7 q 637 115 637 72 l 637 746 q 576 859 637 837 q 502 868 548 868 l 224 868 q 100 817 125 868 q 88 746 88 789 l 88 115 m 289 958 l 289 1053 l 216 1053 l 216 958 l 289 958 m 517 958 l 517 1053 l 444 1053 l 444 958 l 517 958 z "},"Ò":{"ha":726,"x_min":88,"x_max":637,"o":"m 562 811 q 571 802 570 808 l 571 60 q 562 50 568 52 l 164 50 q 155 60 156 53 l 155 802 q 164 811 157 810 l 562 811 m 88 115 q 149 3 88 24 q 224 -7 178 -7 l 502 -7 q 625 45 601 -7 q 637 115 637 72 l 637 746 q 576 859 637 837 q 502 868 548 868 l 224 868 q 100 817 125 868 q 88 746 88 789 l 88 115 m 231 1089 l 308 1090 l 401 921 l 349 921 l 231 1089 z "},"Ő":{"ha":726,"x_min":88,"x_max":637,"o":"m 562 811 q 571 802 570 808 l 571 60 q 562 50 568 52 l 164 50 q 155 60 156 53 l 155 802 q 164 811 157 810 l 562 811 m 88 115 q 149 3 88 24 q 224 -7 178 -7 l 502 -7 q 625 45 601 -7 q 637 115 637 72 l 637 746 q 576 859 637 837 q 502 868 548 868 l 224 868 q 100 817 125 868 q 88 746 88 789 l 88 115 m 260 921 l 342 1090 l 418 1089 l 311 921 l 260 921 m 408 921 l 490 1090 l 566 1089 l 458 921 l 408 921 z "},"Ō":{"ha":726,"x_min":88,"x_max":637,"o":"m 562 811 q 571 802 570 808 l 571 60 q 562 50 568 52 l 164 50 q 155 60 156 53 l 155 802 q 164 811 157 810 l 562 811 m 88 115 q 149 3 88 24 q 224 -7 178 -7 l 502 -7 q 625 45 601 -7 q 637 115 637 72 l 637 746 q 576 859 637 837 q 502 868 548 868 l 224 868 q 100 817 125 868 q 88 746 88 789 l 88 115 m 530 1019 l 202 1019 l 202 968 l 530 968 l 530 1019 z "},"Ø":{"ha":726,"x_min":88,"x_max":637,"o":"m 579 922 l 551 865 q 502 868 522 868 l 224 868 q 100 817 125 868 q 88 746 88 789 l 88 115 q 133 9 90 35 l 96 -65 l 151 -65 l 180 -4 q 224 -7 208 -7 l 502 -7 q 625 45 601 -7 q 637 115 637 72 l 637 746 q 597 849 636 822 l 633 922 l 579 922 m 155 60 l 155 802 q 164 811 157 810 l 525 811 l 155 56 l 155 60 m 571 60 q 562 50 568 52 l 208 50 l 571 795 l 571 60 z "},"Õ":{"ha":726,"x_min":88,"x_max":637,"o":"m 562 811 q 571 802 570 808 l 571 60 q 562 50 568 52 l 164 50 q 155 60 156 53 l 155 802 q 164 811 157 810 l 562 811 m 88 115 q 149 3 88 24 q 224 -7 178 -7 l 502 -7 q 625 45 601 -7 q 637 115 637 72 l 637 746 q 576 859 637 837 q 502 868 548 868 l 224 868 q 100 817 125 868 q 88 746 88 789 l 88 115 m 252 964 q 285 1015 254 1013 q 369 986 304 1015 q 450 964 419 964 q 521 1017 509 964 q 526 1066 526 1038 l 475 1066 q 450 1017 475 1021 q 438 1016 444 1016 q 353 1044 416 1016 q 271 1066 304 1066 q 203 1004 214 1066 q 201 964 201 986 l 252 964 z "},"P":{"ha":655,"x_min":102,"x_max":610,"o":"m 165 0 l 164 358 l 461 358 q 604 438 579 358 q 610 498 610 464 l 610 726 q 518 861 610 841 q 461 865 492 865 l 102 861 l 102 0 l 165 0 m 528 811 q 544 795 544 811 l 544 429 q 528 412 541 414 l 164 412 l 164 811 l 528 811 z "},"Q":{"ha":732,"x_min":88,"x_max":637,"o":"m 562 811 q 571 802 570 808 l 571 60 q 562 50 568 52 l 164 50 q 155 60 156 53 l 155 802 q 164 811 157 810 l 562 811 m 88 115 q 149 3 88 24 q 224 -7 178 -7 l 382 -7 l 423 -149 l 484 -149 l 439 -7 l 502 -7 q 625 45 601 -7 q 637 115 637 72 l 637 746 q 576 859 637 837 q 502 868 548 868 l 224 868 q 100 817 125 868 q 88 746 88 789 l 88 115 z "},"R":{"ha":693,"x_min":102,"x_max":632,"o":"m 165 0 l 164 374 l 420 374 q 442 361 437 373 l 568 0 l 632 0 l 528 301 q 488 376 506 359 q 606 471 590 384 q 610 514 610 491 l 610 726 q 518 861 610 841 q 461 865 492 865 l 102 861 l 102 0 l 165 0 m 528 811 q 544 795 544 811 l 544 442 q 528 426 541 427 l 164 426 l 164 811 l 528 811 z "},"Ŕ":{"ha":693,"x_min":102,"x_max":632,"o":"m 165 0 l 164 374 l 420 374 q 442 361 437 373 l 568 0 l 632 0 l 528 301 q 488 376 506 359 q 606 471 590 384 q 610 514 610 491 l 610 726 q 518 861 610 841 q 461 865 492 865 l 102 861 l 102 0 l 165 0 m 528 811 q 544 795 544 811 l 544 442 q 528 426 541 427 l 164 426 l 164 811 l 528 811 m 313 921 l 395 1090 l 471 1089 l 363 921 l 313 921 z "},"Ř":{"ha":693,"x_min":102,"x_max":632,"o":"m 165 0 l 164 374 l 420 374 q 442 361 437 373 l 568 0 l 632 0 l 528 301 q 488 376 506 359 q 606 471 590 384 q 610 514 610 491 l 610 726 q 518 861 610 841 q 461 865 492 865 l 102 861 l 102 0 l 165 0 m 528 811 q 544 795 544 811 l 544 442 q 528 426 541 427 l 164 426 l 164 811 l 528 811 m 319 928 l 395 928 l 517 1090 l 453 1090 l 357 960 l 270 1090 l 203 1090 l 319 928 z "},"S":{"ha":632,"x_min":69,"x_max":571,"o":"m 152 461 q 136 477 136 461 l 136 791 q 152 807 138 806 l 551 807 l 551 861 l 225 865 q 71 741 80 867 q 69 722 69 731 l 69 532 q 136 414 69 437 q 218 404 167 404 l 488 404 q 505 388 503 401 l 505 71 q 488 54 505 54 l 76 54 l 76 0 l 422 -4 q 566 81 544 -5 q 571 136 571 106 l 571 331 q 461 458 571 442 q 415 461 439 461 l 152 461 z "},"Ś":{"ha":632,"x_min":69,"x_max":571,"o":"m 152 461 q 136 477 136 461 l 136 791 q 152 807 138 806 l 551 807 l 551 861 l 225 865 q 71 741 80 867 q 69 722 69 731 l 69 532 q 136 414 69 437 q 218 404 167 404 l 488 404 q 505 388 503 401 l 505 71 q 488 54 505 54 l 76 54 l 76 0 l 422 -4 q 566 81 544 -5 q 571 136 571 106 l 571 331 q 461 458 571 442 q 415 461 439 461 l 152 461 m 289 921 l 370 1090 l 446 1089 l 339 921 l 289 921 z "},"Š":{"ha":632,"x_min":69,"x_max":571,"o":"m 152 461 q 136 477 136 461 l 136 791 q 152 807 138 806 l 551 807 l 551 861 l 225 865 q 71 741 80 867 q 69 722 69 731 l 69 532 q 136 414 69 437 q 218 404 167 404 l 488 404 q 505 388 503 401 l 505 71 q 488 54 505 54 l 76 54 l 76 0 l 422 -4 q 566 81 544 -5 q 571 136 571 106 l 571 331 q 461 458 571 442 q 415 461 439 461 l 152 461 m 294 928 l 370 928 l 492 1090 l 429 1090 l 332 960 l 245 1090 l 179 1090 l 294 928 z "},"T":{"ha":529,"x_min":7,"x_max":522,"o":"m 296 0 l 296 807 l 522 807 l 522 861 l 7 861 l 7 807 l 233 807 l 233 0 l 296 0 z "},"Ť":{"ha":529,"x_min":7,"x_max":522,"o":"m 296 0 l 296 807 l 522 807 l 522 861 l 7 861 l 7 807 l 233 807 l 233 0 l 296 0 m 237 928 l 313 928 l 435 1090 l 372 1090 l 275 960 l 189 1090 l 122 1090 l 237 928 z "},"Þ":{"ha":667,"x_min":102,"x_max":606,"o":"m 165 0 l 164 195 l 457 195 q 600 275 575 195 q 606 335 606 301 l 606 566 q 525 696 606 673 q 457 703 496 703 l 164 703 l 164 861 l 102 861 l 102 0 l 165 0 m 524 648 q 540 632 540 648 l 540 266 q 524 250 537 251 l 164 250 l 164 648 l 524 648 z "},"U":{"ha":726,"x_min":88,"x_max":637,"o":"m 502 -7 q 625 45 601 -7 q 637 115 637 72 l 637 861 l 571 861 l 571 60 q 562 50 568 52 l 164 50 q 155 60 156 53 l 155 861 l 88 861 l 88 115 q 149 3 88 24 q 224 -7 178 -7 l 502 -7 z "},"Ú":{"ha":726,"x_min":88,"x_max":637,"o":"m 502 -7 q 625 45 601 -7 q 637 115 637 72 l 637 861 l 571 861 l 571 60 q 562 50 568 52 l 164 50 q 155 60 156 53 l 155 861 l 88 861 l 88 115 q 149 3 88 24 q 224 -7 178 -7 l 502 -7 m 332 921 l 414 1090 l 490 1089 l 382 921 l 332 921 z "},"Û":{"ha":726,"x_min":88,"x_max":637,"o":"m 502 -7 q 625 45 601 -7 q 637 115 637 72 l 637 861 l 571 861 l 571 60 q 562 50 568 52 l 164 50 q 155 60 156 53 l 155 861 l 88 861 l 88 115 q 149 3 88 24 q 224 -7 178 -7 l 502 -7 m 395 1084 l 319 1084 l 197 921 l 260 921 l 357 1051 l 444 921 l 510 921 l 395 1084 z "},"Ü":{"ha":726,"x_min":88,"x_max":637,"o":"m 502 -7 q 625 45 601 -7 q 637 115 637 72 l 637 861 l 571 861 l 571 60 q 562 50 568 52 l 164 50 q 155 60 156 53 l 155 861 l 88 861 l 88 115 q 149 3 88 24 q 224 -7 178 -7 l 502 -7 m 288 958 l 288 1053 l 214 1053 l 214 958 l 288 958 m 515 958 l 515 1053 l 442 1053 l 442 958 l 515 958 z "},"Ù":{"ha":726,"x_min":88,"x_max":637,"o":"m 502 -7 q 625 45 601 -7 q 637 115 637 72 l 637 861 l 571 861 l 571 60 q 562 50 568 52 l 164 50 q 155 60 156 53 l 155 861 l 88 861 l 88 115 q 149 3 88 24 q 224 -7 178 -7 l 502 -7 m 229 1089 l 307 1090 l 400 921 l 347 921 l 229 1089 z "},"Ű":{"ha":726,"x_min":88,"x_max":637,"o":"m 502 -7 q 625 45 601 -7 q 637 115 637 72 l 637 861 l 571 861 l 571 60 q 562 50 568 52 l 164 50 q 155 60 156 53 l 155 861 l 88 861 l 88 115 q 149 3 88 24 q 224 -7 178 -7 l 502 -7 m 259 921 l 340 1090 l 416 1089 l 309 921 l 259 921 m 407 921 l 488 1090 l 564 1089 l 457 921 l 407 921 z "},"Ū":{"ha":726,"x_min":88,"x_max":637,"o":"m 502 -7 q 625 45 601 -7 q 637 115 637 72 l 637 861 l 571 861 l 571 60 q 562 50 568 52 l 164 50 q 155 60 156 53 l 155 861 l 88 861 l 88 115 q 149 3 88 24 q 224 -7 178 -7 l 502 -7 m 529 1019 l 201 1019 l 201 968 l 529 968 l 529 1019 z "},"Ų":{"ha":726,"x_min":88,"x_max":637,"o":"m 502 -7 q 625 45 601 -7 q 637 115 637 72 l 637 861 l 571 861 l 571 60 q 562 50 568 52 l 164 50 q 155 60 156 53 l 155 861 l 88 861 l 88 115 q 149 3 88 24 q 224 -7 178 -7 l 369 -7 l 308 -61 q 273 -151 273 -94 l 273 -178 q 339 -264 273 -250 q 410 -271 368 -271 l 460 -271 l 460 -217 l 343 -217 q 334 -208 335 -214 l 334 -118 q 345 -95 335 -104 l 426 -7 l 502 -7 z "},"Ů":{"ha":726,"x_min":88,"x_max":637,"o":"m 502 -7 q 625 45 601 -7 q 637 115 637 72 l 637 861 l 571 861 l 571 60 q 562 50 568 52 l 164 50 q 155 60 156 53 l 155 861 l 88 861 l 88 115 q 149 3 88 24 q 224 -7 178 -7 l 502 -7 m 473 1010 q 425 1108 473 1089 q 362 1116 400 1116 q 263 1067 281 1116 q 255 1010 255 1046 q 307 913 255 930 q 362 905 328 905 q 468 964 452 905 q 473 1010 473 983 m 300 1010 q 316 1073 300 1063 q 362 1081 330 1081 q 423 1059 414 1081 q 429 1010 429 1044 q 410 948 429 959 q 362 940 393 940 q 304 968 312 940 q 300 1010 300 982 z "},"V":{"ha":675,"x_min":16,"x_max":662,"o":"m 445 117 l 662 861 l 602 861 l 373 64 q 363 54 369 56 l 297 54 l 79 861 l 16 861 l 251 0 l 315 0 q 403 19 382 0 q 445 117 423 41 z "},"W":{"ha":1000,"x_min":95,"x_max":905,"o":"m 395 -7 q 499 42 471 -5 q 605 -7 528 -7 l 769 -7 q 894 47 869 -7 q 905 117 905 75 l 905 861 l 838 861 l 838 60 q 829 50 836 52 l 543 50 q 533 60 534 53 l 533 861 l 467 861 l 467 60 q 457 50 464 52 l 171 50 q 161 60 163 53 l 161 861 l 95 861 l 95 114 q 155 4 95 24 q 236 -7 184 -7 l 395 -7 z "},"X":{"ha":730,"x_min":20,"x_max":709,"o":"m 433 475 q 420 465 427 467 l 312 465 q 300 473 305 465 l 300 475 l 106 863 l 34 863 l 199 536 q 252 450 236 465 q 273 438 262 442 q 212 366 241 425 q 198 340 208 358 l 20 1 l 88 1 l 296 401 q 309 411 304 411 l 418 411 q 430 401 426 408 l 637 0 l 709 0 l 526 340 q 469 427 488 412 q 453 438 461 434 q 510 505 481 450 q 525 536 513 513 l 689 861 l 623 861 l 433 475 z "},"Y":{"ha":689,"x_min":20,"x_max":669,"o":"m 377 0 l 377 319 q 457 358 433 321 q 488 425 469 377 l 669 861 l 602 861 l 407 382 q 395 373 401 374 l 301 373 q 289 382 293 376 l 90 863 l 20 863 l 202 425 q 256 335 232 351 q 315 319 278 321 l 315 0 l 377 0 z "},"Ý":{"ha":689,"x_min":20,"x_max":669,"o":"m 377 0 l 377 319 q 457 358 433 321 q 488 425 469 377 l 669 861 l 602 861 l 407 382 q 395 373 401 374 l 301 373 q 289 382 293 376 l 90 863 l 20 863 l 202 425 q 256 335 232 351 q 315 319 278 321 l 315 0 l 377 0 m 312 921 l 393 1090 l 469 1089 l 362 921 l 312 921 z "},"Ÿ":{"ha":689,"x_min":20,"x_max":669,"o":"m 377 0 l 377 319 q 457 358 433 321 q 488 425 469 377 l 669 861 l 602 861 l 407 382 q 395 373 401 374 l 301 373 q 289 382 293 376 l 90 863 l 20 863 l 202 425 q 256 335 232 351 q 315 319 278 321 l 315 0 l 377 0 m 267 958 l 267 1053 l 194 1053 l 194 958 l 267 958 m 495 958 l 495 1053 l 422 1053 l 422 958 l 495 958 z "},"Z":{"ha":642,"x_min":61,"x_max":583,"o":"m 581 52 l 138 52 q 133 68 126 54 l 583 784 q 498 861 581 860 l 85 861 l 85 810 l 513 810 q 519 796 524 807 l 61 68 q 123 1 61 8 q 149 0 136 0 l 581 0 l 581 52 z "},"Ź":{"ha":642,"x_min":61,"x_max":583,"o":"m 581 52 l 138 52 q 133 68 126 54 l 583 784 q 498 861 581 860 l 85 861 l 85 810 l 513 810 q 519 796 524 807 l 61 68 q 123 1 61 8 q 149 0 136 0 l 581 0 l 581 52 m 292 921 l 373 1090 l 449 1089 l 342 921 l 292 921 z "},"Ž":{"ha":642,"x_min":61,"x_max":583,"o":"m 581 52 l 138 52 q 133 68 126 54 l 583 784 q 498 861 581 860 l 85 861 l 85 810 l 513 810 q 519 796 524 807 l 61 68 q 123 1 61 8 q 149 0 136 0 l 581 0 l 581 52 m 297 928 l 373 928 l 495 1090 l 431 1090 l 335 960 l 248 1090 l 182 1090 l 297 928 z "},"Ż":{"ha":642,"x_min":61,"x_max":583,"o":"m 581 52 l 138 52 q 133 68 126 54 l 583 784 q 498 861 581 860 l 85 861 l 85 810 l 513 810 q 519 796 524 807 l 61 68 q 123 1 61 8 q 149 0 136 0 l 581 0 l 581 52 m 363 956 l 363 1059 l 285 1059 l 285 956 l 363 956 z "},"a":{"ha":541,"x_min":47,"x_max":469,"o":"m 407 43 l 119 43 q 110 53 111 46 l 110 315 q 119 324 113 323 l 407 324 l 407 43 m 308 -7 q 408 41 389 -5 l 418 0 l 469 0 l 469 543 q 408 655 469 633 q 334 665 380 665 l 79 665 l 79 614 l 397 614 q 407 605 406 612 l 407 373 l 183 373 q 60 321 84 373 q 47 251 47 294 l 47 115 q 109 3 47 24 q 183 -7 137 -7 l 308 -7 z "},"á":{"ha":541,"x_min":47,"x_max":469,"o":"m 407 43 l 119 43 q 110 53 111 46 l 110 315 q 119 324 113 323 l 407 324 l 407 43 m 308 -7 q 408 41 389 -5 l 418 0 l 469 0 l 469 543 q 408 655 469 633 q 334 665 380 665 l 79 665 l 79 614 l 397 614 q 407 605 406 612 l 407 373 l 183 373 q 60 321 84 373 q 47 251 47 294 l 47 115 q 109 3 47 24 q 183 -7 137 -7 l 308 -7 m 235 751 l 316 921 l 392 920 l 285 751 l 235 751 z "},"ă":{"ha":541,"x_min":47,"x_max":469,"o":"m 407 43 l 119 43 q 110 53 111 46 l 110 315 q 119 324 113 323 l 407 324 l 407 43 m 308 -7 q 408 41 389 -5 l 418 0 l 469 0 l 469 543 q 408 655 469 633 q 334 665 380 665 l 79 665 l 79 614 l 397 614 q 407 605 406 612 l 407 373 l 183 373 q 60 321 84 373 q 47 251 47 294 l 47 115 q 109 3 47 24 q 183 -7 137 -7 l 308 -7 m 133 906 q 186 779 133 806 q 278 762 218 762 q 401 819 376 762 q 415 906 415 852 l 366 906 q 339 821 366 838 q 278 808 317 808 q 190 849 203 808 q 183 906 183 868 l 133 906 z "},"â":{"ha":541,"x_min":47,"x_max":469,"o":"m 407 43 l 119 43 q 110 53 111 46 l 110 315 q 119 324 113 323 l 407 324 l 407 43 m 308 -7 q 408 41 389 -5 l 418 0 l 469 0 l 469 543 q 408 655 469 633 q 334 665 380 665 l 79 665 l 79 614 l 397 614 q 407 605 406 612 l 407 373 l 183 373 q 60 321 84 373 q 47 251 47 294 l 47 115 q 109 3 47 24 q 183 -7 137 -7 l 308 -7 m 297 914 l 221 914 l 99 751 l 163 751 l 259 882 l 346 751 l 412 751 l 297 914 z "},"´":{"ha":339,"x_min":84,"x_max":241,"o":"m 84 751 l 165 921 l 241 920 l 134 751 l 84 751 z "},"ä":{"ha":541,"x_min":47,"x_max":469,"o":"m 407 43 l 119 43 q 110 53 111 46 l 110 315 q 119 324 113 323 l 407 324 l 407 43 m 308 -7 q 408 41 389 -5 l 418 0 l 469 0 l 469 543 q 408 655 469 633 q 334 665 380 665 l 79 665 l 79 614 l 397 614 q 407 605 406 612 l 407 373 l 183 373 q 60 321 84 373 q 47 251 47 294 l 47 115 q 109 3 47 24 q 183 -7 137 -7 l 308 -7 m 190 788 l 190 883 l 117 883 l 117 788 l 190 788 m 418 788 l 418 883 l 345 883 l 345 788 l 418 788 z "},"æ":{"ha":890,"x_min":47,"x_max":829,"o":"m 469 612 q 479 621 472 620 l 757 621 q 766 612 765 618 l 766 346 l 469 346 l 469 612 m 815 -7 l 815 43 l 479 43 q 469 53 471 46 l 469 297 l 829 297 l 829 549 q 768 662 829 640 q 693 671 739 671 l 534 671 q 435 633 454 669 q 334 665 407 665 l 79 665 l 79 614 l 397 614 q 407 605 406 612 l 407 346 l 183 346 q 60 294 84 346 q 47 224 47 267 l 47 115 q 109 3 47 24 q 183 -7 137 -7 l 317 -7 q 416 42 400 -5 q 528 -7 439 -7 l 815 -7 m 119 43 q 110 53 111 46 l 110 288 q 119 297 113 296 l 407 297 l 407 88 q 415 43 407 62 l 119 43 z "},"à":{"ha":541,"x_min":47,"x_max":469,"o":"m 407 43 l 119 43 q 110 53 111 46 l 110 315 q 119 324 113 323 l 407 324 l 407 43 m 308 -7 q 408 41 389 -5 l 418 0 l 469 0 l 469 543 q 408 655 469 633 q 334 665 380 665 l 79 665 l 79 614 l 397 614 q 407 605 406 612 l 407 373 l 183 373 q 60 321 84 373 q 47 251 47 294 l 47 115 q 109 3 47 24 q 183 -7 137 -7 l 308 -7 m 132 920 l 209 921 l 302 751 l 250 751 l 132 920 z "},"ā":{"ha":541,"x_min":47,"x_max":469,"o":"m 407 43 l 119 43 q 110 53 111 46 l 110 315 q 119 324 113 323 l 407 324 l 407 43 m 308 -7 q 408 41 389 -5 l 418 0 l 469 0 l 469 543 q 408 655 469 633 q 334 665 380 665 l 79 665 l 79 614 l 397 614 q 407 605 406 612 l 407 373 l 183 373 q 60 321 84 373 q 47 251 47 294 l 47 115 q 109 3 47 24 q 183 -7 137 -7 l 308 -7 m 431 849 l 103 849 l 103 799 l 431 799 l 431 849 z "},"&":{"ha":758,"x_min":109,"x_max":711,"o":"m 441 -4 q 597 140 595 -1 l 597 396 q 613 412 600 411 l 711 412 l 711 471 l 680 471 q 533 372 551 471 q 530 334 530 354 l 530 71 q 514 54 528 56 l 191 54 q 175 71 176 57 l 175 418 q 191 434 175 434 l 403 434 l 403 490 l 198 490 q 182 506 182 490 l 182 793 q 198 810 182 810 l 507 810 q 524 793 524 810 l 524 639 l 590 639 l 590 726 q 502 859 590 838 q 441 865 475 865 l 264 865 q 122 785 146 865 q 115 726 115 760 l 115 574 q 171 465 117 492 q 109 349 109 441 l 109 140 q 264 -4 111 -3 l 441 -4 z "},"ං":{"ha":566,"x_min":30,"x_max":502,"o":"m 103 24 q 30 94 31 27 l 30 528 q 100 605 30 597 q 114 605 107 605 l 427 605 q 502 526 500 602 l 502 99 q 444 26 502 33 q 426 24 434 24 l 103 24 m 80 524 l 80 102 q 119 68 83 69 l 415 68 q 452 107 450 71 l 452 521 q 416 562 449 560 l 119 562 q 80 524 81 559 z "},"ą":{"ha":541,"x_min":47,"x_max":496,"o":"m 407 43 l 119 43 q 110 53 111 46 l 110 315 q 119 324 113 323 l 407 324 l 407 43 m 308 -7 q 408 41 389 -5 l 418 3 l 345 -61 q 309 -151 309 -94 l 309 -178 q 376 -264 309 -250 q 446 -271 404 -271 l 496 -271 l 496 -217 l 380 -217 q 370 -208 372 -214 l 370 -118 q 381 -95 372 -104 l 469 0 l 469 543 q 408 655 469 633 q 334 665 380 665 l 79 665 l 79 614 l 397 614 q 407 605 406 612 l 407 373 l 183 373 q 60 321 84 373 q 47 251 47 294 l 47 115 q 109 3 47 24 q 183 -7 137 -7 l 308 -7 z "},"≈":{"ha":545,"x_min":61,"x_max":484,"o":"m 118 395 q 165 450 123 449 q 278 414 187 450 q 393 382 353 382 q 477 444 463 382 q 484 506 484 469 l 429 506 q 381 438 427 439 q 267 475 358 438 q 152 506 191 506 q 66 442 83 506 q 61 395 62 422 l 118 395 m 118 216 q 165 283 119 282 q 278 247 187 283 q 393 216 353 216 q 479 278 464 216 q 484 328 484 300 l 429 328 q 381 271 425 273 q 267 308 358 271 q 152 339 191 339 q 66 273 81 339 q 61 216 61 248 l 118 216 z "},"å":{"ha":541,"x_min":47,"x_max":469,"o":"m 407 43 l 119 43 q 110 53 111 46 l 110 315 q 119 324 113 323 l 407 324 l 407 43 m 308 -7 q 408 41 389 -5 l 418 0 l 469 0 l 469 543 q 408 655 469 633 q 334 665 380 665 l 79 665 l 79 614 l 397 614 q 407 605 406 612 l 407 373 l 183 373 q 60 321 84 373 q 47 251 47 294 l 47 115 q 109 3 47 24 q 183 -7 137 -7 l 308 -7 m 376 841 q 327 939 376 920 q 264 947 302 947 q 165 898 183 947 q 157 841 157 876 q 209 743 157 761 q 264 735 231 735 q 370 795 354 735 q 376 841 376 814 m 202 841 q 218 903 202 894 q 264 911 232 911 q 326 890 316 911 q 331 841 331 875 q 312 779 331 789 q 264 770 296 770 q 206 799 214 770 q 202 841 202 812 z "},"^":{"ha":563,"x_min":68,"x_max":495,"o":"m 262 916 l 68 525 l 123 525 l 281 849 l 438 525 l 495 525 l 300 916 l 262 916 z "},"~":{"ha":545,"x_min":61,"x_max":484,"o":"m 118 321 q 165 389 119 388 q 278 353 187 389 q 393 321 353 321 q 477 382 463 321 q 484 445 484 408 l 429 445 q 381 377 427 378 q 267 414 358 377 q 152 445 191 445 q 66 378 81 445 q 61 321 61 354 l 118 321 z "},"*":{"ha":472,"x_min":54,"x_max":418,"o":"m 194 605 l 225 666 l 205 681 l 156 632 l 110 568 l 148 541 l 194 605 m 363 571 l 317 635 l 269 682 l 248 669 l 279 606 l 326 543 l 363 571 m 342 713 l 418 738 l 403 781 l 328 757 l 267 726 l 274 703 l 342 713 m 248 739 l 259 807 l 259 886 l 213 886 l 213 807 l 224 739 l 248 739 m 197 703 l 205 726 l 144 757 l 68 781 l 54 738 l 129 713 l 197 703 z "},"@":{"ha":842,"x_min":95,"x_max":761,"o":"m 587 -61 l 587 -4 l 168 -4 q 159 5 160 -1 l 159 747 q 168 757 161 755 l 688 757 q 697 747 696 754 l 697 190 q 688 180 694 182 l 597 180 q 587 190 589 183 l 587 624 l 397 628 q 273 574 297 629 q 262 506 262 548 l 262 252 q 323 140 262 161 q 397 130 351 130 l 427 130 q 526 176 507 132 q 591 130 529 132 l 674 130 q 753 174 738 130 q 761 239 761 198 l 761 692 q 704 804 761 783 q 628 814 675 814 l 228 814 q 107 765 132 814 q 95 692 95 736 l 95 61 q 152 -52 95 -30 q 228 -61 180 -61 l 587 -61 m 324 190 l 324 570 q 334 579 327 578 l 526 575 l 526 190 q 517 180 524 182 l 334 180 q 324 190 326 183 z "},"ã":{"ha":541,"x_min":47,"x_max":469,"o":"m 407 43 l 119 43 q 110 53 111 46 l 110 315 q 119 324 113 323 l 407 324 l 407 43 m 308 -7 q 408 41 389 -5 l 418 0 l 469 0 l 469 543 q 408 655 469 633 q 334 665 380 665 l 79 665 l 79 614 l 397 614 q 407 605 406 612 l 407 373 l 183 373 q 60 321 84 373 q 47 251 47 294 l 47 115 q 109 3 47 24 q 183 -7 137 -7 l 308 -7 m 153 795 q 186 845 155 844 q 270 817 205 845 q 351 795 320 795 q 422 848 410 795 q 427 897 427 868 l 376 897 q 351 848 376 852 q 339 846 345 846 q 254 875 317 846 q 172 897 205 897 q 104 834 115 897 q 102 795 102 817 l 153 795 z "},"b":{"ha":570,"x_min":81,"x_max":502,"o":"m 366 -4 q 491 50 467 -5 q 502 118 502 76 l 502 549 q 441 662 502 640 q 366 671 412 671 l 241 671 q 142 625 161 670 l 142 916 l 81 916 l 81 0 l 366 -4 m 142 612 q 152 621 145 620 l 430 621 q 439 612 438 618 l 439 54 q 430 45 437 46 l 142 49 l 142 612 z "},"\\":{"ha":499,"x_min":7,"x_max":492,"o":"m 429 -130 l 492 -130 l 69 916 l 7 916 l 429 -130 z "},"|":{"ha":353,"x_min":149,"x_max":203,"o":"m 203 -75 l 203 916 l 149 916 l 149 -75 l 203 -75 z "},"{":{"ha":403,"x_min":81,"x_max":369,"o":"m 198 860 q 208 869 201 868 l 369 869 l 369 922 l 274 922 q 137 844 159 922 q 132 793 132 821 l 132 392 q 119 380 132 380 l 81 380 l 81 313 l 119 313 q 132 301 132 313 l 132 -102 q 221 -227 132 -208 q 274 -231 244 -231 l 369 -231 l 369 -178 l 208 -178 q 198 -168 199 -175 l 198 251 q 141 346 197 334 q 198 442 195 369 l 198 860 z "},"}":{"ha":403,"x_min":34,"x_max":321,"o":"m 205 860 q 195 869 202 868 l 34 869 l 34 922 l 129 922 q 266 844 244 922 q 271 793 271 821 l 271 392 q 283 380 271 380 l 321 380 l 321 313 l 283 313 q 271 301 271 313 l 271 -102 q 182 -227 271 -208 q 129 -231 159 -231 l 34 -231 l 34 -178 l 195 -178 q 205 -168 203 -175 l 205 251 q 262 346 206 334 q 205 442 208 369 l 205 860 z "},"[":{"ha":378,"x_min":95,"x_max":324,"o":"m 324 -231 l 324 -180 l 160 -180 l 160 872 l 324 872 l 324 922 l 95 922 l 95 -231 l 324 -231 z "},"]":{"ha":378,"x_min":54,"x_max":283,"o":"m 54 -231 l 54 -180 l 218 -180 l 218 872 l 54 872 l 54 922 l 283 922 l 283 -231 l 54 -231 z "},"˘":{"ha":472,"x_min":95,"x_max":377,"o":"m 95 906 q 148 779 95 806 q 240 762 180 762 q 363 819 338 762 q 377 906 377 852 l 328 906 q 301 821 328 838 q 240 808 279 808 q 152 849 165 808 q 145 906 145 868 l 95 906 z "},"¦":{"ha":380,"x_min":163,"x_max":217,"o":"m 217 -75 l 217 305 l 163 305 l 163 -75 l 217 -75 m 217 536 l 217 916 l 163 916 l 163 536 l 217 536 z "},"•":{"ha":396,"x_min":122,"x_max":274,"o":"m 122 351 q 190 290 125 292 l 206 290 q 274 351 273 293 l 274 423 q 206 484 266 481 l 190 484 q 122 423 125 479 l 122 351 z "},"c":{"ha":439,"x_min":68,"x_max":415,"o":"m 415 -7 l 415 43 l 140 43 q 130 53 132 46 l 130 612 q 140 621 133 620 l 415 621 l 415 671 l 203 671 q 80 620 104 671 q 68 549 68 593 l 68 115 q 129 3 68 24 q 203 -7 157 -7 l 415 -7 z "},"ć":{"ha":439,"x_min":68,"x_max":415,"o":"m 415 -7 l 415 43 l 140 43 q 130 53 132 46 l 130 612 q 140 621 133 620 l 415 621 l 415 671 l 203 671 q 80 620 104 671 q 68 549 68 593 l 68 115 q 129 3 68 24 q 203 -7 157 -7 l 415 -7 m 208 751 l 289 921 l 365 920 l 258 751 l 208 751 z "},"ˇ":{"ha":422,"x_min":65,"x_max":378,"o":"m 180 758 l 256 758 l 378 921 l 315 921 l 218 791 l 132 921 l 65 921 l 180 758 z "},"č":{"ha":439,"x_min":68,"x_max":420,"o":"m 415 -7 l 415 43 l 140 43 q 130 53 132 46 l 130 612 q 140 621 133 620 l 415 621 l 415 671 l 203 671 q 80 620 104 671 q 68 549 68 593 l 68 115 q 129 3 68 24 q 203 -7 157 -7 l 415 -7 m 222 758 l 298 758 l 420 921 l 357 921 l 260 791 l 174 921 l 107 921 l 222 758 z "},"ç":{"ha":439,"x_min":68,"x_max":415,"o":"m 415 -7 l 415 43 l 140 43 q 130 53 132 46 l 130 612 q 140 621 133 620 l 415 621 l 415 671 l 203 671 q 80 620 104 671 q 68 549 68 593 l 68 115 q 129 3 68 24 q 203 -7 157 -7 l 220 -7 l 194 -121 l 308 -121 q 317 -130 316 -123 l 317 -208 q 308 -217 315 -216 l 176 -217 l 176 -271 l 256 -271 q 377 -163 376 -269 l 377 -160 q 293 -75 377 -83 q 269 -73 281 -73 l 248 -73 l 262 -7 l 415 -7 z "},"¸":{"ha":336,"x_min":79,"x_max":279,"o":"m 220 -208 q 210 -217 217 -216 l 79 -217 l 79 -271 l 159 -271 q 279 -163 278 -269 l 279 -160 q 195 -75 279 -83 q 171 -73 183 -73 l 151 -73 l 167 5 l 126 11 l 96 -121 l 210 -121 q 220 -130 218 -123 l 220 -208 z "},"¢":{"ha":446,"x_min":68,"x_max":422,"o":"m 422 81 l 422 132 l 140 132 q 130 141 132 134 l 130 686 q 140 696 133 694 l 422 696 l 422 746 l 288 746 l 288 848 l 229 848 l 229 746 l 203 746 q 80 694 104 746 q 68 624 68 667 l 68 203 q 129 91 68 113 q 203 81 157 81 l 229 81 l 229 -20 l 288 -20 l 288 81 l 422 81 z "},"ˆ":{"ha":422,"x_min":43,"x_max":357,"o":"m 241 914 l 165 914 l 43 751 l 107 751 l 203 882 l 290 751 l 357 751 l 241 914 z "},":":{"ha":278,"x_min":95,"x_max":183,"o":"m 183 41 l 183 159 l 95 159 l 95 41 l 183 41 m 183 399 l 183 517 l 95 517 l 95 399 l 183 399 z "},",":{"ha":217,"x_min":65,"x_max":149,"o":"m 65 3 l 98 3 q 65 -92 94 -45 l 94 -114 q 149 20 149 -54 l 149 118 l 65 118 l 65 3 z "},"©":{"ha":690,"x_min":102,"x_max":589,"o":"m 521 822 q 530 812 529 819 l 530 308 q 521 298 528 300 l 170 298 q 160 308 161 301 l 160 812 q 170 822 163 821 l 521 822 m 102 370 q 157 262 102 283 q 233 252 186 252 l 457 252 q 576 301 553 252 q 589 370 589 328 l 589 750 q 533 859 589 837 q 457 868 505 868 l 233 868 q 114 819 137 868 q 102 750 102 792 l 102 370 m 475 347 l 475 393 l 288 393 q 278 403 279 396 l 278 718 q 288 727 281 726 l 475 727 l 475 773 l 347 773 q 231 723 254 773 q 220 656 220 697 l 220 464 q 281 355 220 374 q 347 347 307 347 l 475 347 z "},"¤":{"ha":765,"x_min":75,"x_max":690,"o":"m 524 598 q 533 589 532 595 l 533 240 q 524 231 530 232 l 250 231 q 240 240 241 233 l 240 589 q 250 598 243 597 l 524 598 m 178 296 q 187 233 178 256 l 75 121 l 114 81 l 224 191 q 309 178 256 178 l 464 178 q 544 189 517 178 l 651 81 l 690 121 l 583 228 q 595 296 595 254 l 595 533 q 583 604 595 578 l 690 711 l 651 750 l 541 640 q 464 651 513 651 l 309 651 q 227 637 255 651 l 119 746 l 80 707 l 187 598 q 178 533 178 574 l 178 296 z "},"d":{"ha":570,"x_min":68,"x_max":488,"o":"m 427 916 l 427 666 l 203 669 q 79 614 103 670 q 68 547 68 589 l 68 115 q 129 3 68 24 q 203 -7 157 -7 l 328 -7 q 429 41 410 -5 l 438 0 l 488 0 l 488 916 l 427 916 m 427 53 q 418 43 425 45 l 140 43 q 130 53 132 46 l 130 610 q 140 620 133 618 l 427 616 l 427 53 z "},"†":{"ha":526,"x_min":41,"x_max":486,"o":"m 278 0 l 288 339 l 288 492 l 275 614 l 251 614 l 239 492 l 239 339 l 248 0 l 278 0 m 160 627 l 228 637 l 228 662 l 160 673 l 41 673 l 41 627 l 160 627 m 486 627 l 486 673 l 366 673 l 298 662 l 298 637 l 366 627 l 486 627 m 275 685 l 286 753 l 286 886 l 240 886 l 240 753 l 251 685 l 275 685 z "},"‡":{"ha":814,"x_min":41,"x_max":486,"o":"m 275 267 l 286 335 l 286 547 l 275 614 l 251 614 l 240 547 l 240 335 l 251 267 l 275 267 m 286 -4 l 286 129 l 275 197 l 251 197 l 240 129 l 240 -4 l 286 -4 m 160 209 l 228 220 l 228 244 l 160 255 l 41 255 l 41 209 l 160 209 m 486 209 l 486 255 l 366 255 l 298 244 l 298 220 l 366 209 l 486 209 m 160 627 l 228 637 l 228 662 l 160 673 l 41 673 l 41 627 l 160 627 m 486 627 l 486 673 l 366 673 l 298 662 l 298 637 l 366 627 l 486 627 m 275 685 l 286 753 l 286 886 l 240 886 l 240 753 l 251 685 l 275 685 z "},"ď":{"ha":631,"x_min":68,"x_max":637,"o":"m 427 916 l 427 666 l 203 669 q 79 614 103 670 q 68 547 68 589 l 68 115 q 129 3 68 24 q 203 -7 157 -7 l 328 -7 q 429 41 410 -5 l 438 0 l 488 0 l 488 916 l 427 916 m 427 53 q 418 43 425 45 l 140 43 q 130 53 132 46 l 130 610 q 140 620 133 618 l 427 616 l 427 53 m 557 806 l 589 806 q 557 716 585 761 l 585 696 q 637 823 637 753 l 637 916 l 557 916 l 557 806 z "},"đ":{"ha":570,"x_min":68,"x_max":548,"o":"m 427 916 l 427 836 l 269 836 l 269 785 l 427 785 l 427 666 l 203 669 q 79 614 103 670 q 68 547 68 589 l 68 115 q 129 3 68 24 q 203 -7 157 -7 l 328 -7 q 429 41 410 -5 l 438 0 l 488 0 l 488 785 l 548 785 l 548 836 l 488 836 l 488 916 l 427 916 m 427 53 q 418 43 425 45 l 140 43 q 130 53 132 46 l 130 610 q 140 620 133 618 l 427 616 l 427 53 z "},"°":{"ha":374,"x_min":47,"x_max":327,"o":"m 47 612 q 133 519 47 526 q 152 518 142 518 l 221 518 q 327 612 323 525 l 327 774 q 245 867 327 859 q 221 868 233 868 l 152 868 q 49 795 58 868 q 47 774 47 785 l 47 612 m 263 822 q 273 812 271 819 l 273 574 q 263 564 270 566 l 111 564 q 102 574 103 567 l 102 812 q 111 822 104 821 l 263 822 z "},"¨":{"ha":437,"x_min":68,"x_max":369,"o":"m 141 788 l 141 883 l 68 883 l 68 788 l 141 788 m 369 788 l 369 883 l 296 883 l 296 788 l 369 788 z "},"÷":{"ha":637,"x_min":81,"x_max":556,"o":"m 556 376 l 556 430 l 81 430 l 81 376 l 556 376 m 359 130 l 359 243 l 277 243 l 277 130 l 359 130 m 359 563 l 359 675 l 277 675 l 277 563 l 359 563 z "},"$":{"ha":646,"x_min":81,"x_max":557,"o":"m 161 450 q 145 467 145 450 l 145 739 q 161 755 148 754 l 534 755 l 534 811 l 354 812 l 354 948 l 292 948 l 292 814 l 235 814 q 81 670 83 814 l 81 519 q 141 406 81 427 q 228 395 172 395 l 477 395 q 494 378 492 392 l 494 98 q 477 81 494 81 l 94 81 l 94 26 l 292 24 l 292 -109 l 354 -109 l 354 23 l 411 23 q 551 102 526 22 q 557 163 557 129 l 557 320 q 458 446 557 429 q 404 450 434 450 l 161 450 z "},"˙":{"ha":187,"x_min":54,"x_max":133,"o":"m 133 787 l 133 890 l 54 890 l 54 787 l 133 787 z "},"ı":{"ha":251,"x_min":95,"x_max":156,"o":"m 156 0 l 156 665 l 95 665 l 95 0 l 156 0 z "},"◌":{"ha":757,"x_min":66,"x_max":678,"o":"m 144 130 q 175 160 148 159 q 205 130 205 157 q 175 100 202 102 q 144 130 145 103 m 87 222 q 117 252 91 251 q 145 222 145 250 q 115 191 141 193 q 87 222 87 194 m 233 72 q 263 102 236 100 q 293 72 292 99 q 262 42 289 43 q 233 72 233 45 m 336 50 q 366 80 340 79 q 395 50 395 77 q 365 20 391 22 q 336 50 336 23 m 68 326 q 98 355 71 354 q 127 326 127 353 q 98 296 123 297 q 68 326 68 298 m 91 430 q 122 460 95 458 q 149 430 149 457 q 122 399 145 400 q 91 430 91 401 m 444 72 q 473 102 446 100 q 503 72 502 99 q 472 42 499 43 q 444 72 444 45 m 152 521 q 183 549 156 548 q 212 521 214 549 q 180 491 208 492 q 152 521 152 494 m 534 130 q 564 160 538 159 q 593 130 593 157 q 563 100 589 102 q 534 130 534 103 m 241 581 q 273 610 245 609 q 301 581 301 608 q 271 549 298 551 q 241 581 243 552 m 594 222 q 625 252 598 251 q 655 222 655 250 q 623 191 651 193 q 594 222 594 194 m 347 601 q 377 631 351 629 q 406 601 406 628 q 376 570 403 571 q 347 601 349 572 m 617 326 q 647 355 620 354 q 677 326 677 353 q 647 296 673 297 q 617 326 617 298 m 452 581 q 483 610 456 609 q 511 581 511 608 q 481 549 509 551 q 452 581 453 552 m 598 430 q 629 460 602 458 q 659 430 659 457 q 628 399 655 400 q 598 430 598 401 m 540 521 q 571 549 543 548 q 601 521 601 547 q 570 491 597 492 q 540 521 540 494 z "},"e":{"ha":555,"x_min":72,"x_max":494,"o":"m 480 -7 l 480 43 l 144 43 q 134 53 136 46 l 134 269 l 494 269 l 494 549 q 433 662 494 640 q 358 671 404 671 l 199 671 q 85 627 109 671 q 72 549 72 598 l 72 115 q 133 3 72 24 q 208 -7 161 -7 l 480 -7 m 134 612 q 144 621 137 620 l 422 621 q 431 612 430 618 l 431 317 l 134 317 l 134 612 z "},"é":{"ha":555,"x_min":72,"x_max":494,"o":"m 480 -7 l 480 43 l 144 43 q 134 53 136 46 l 134 269 l 494 269 l 494 549 q 433 662 494 640 q 358 671 404 671 l 199 671 q 85 627 109 671 q 72 549 72 598 l 72 115 q 133 3 72 24 q 208 -7 161 -7 l 480 -7 m 134 612 q 144 621 137 620 l 422 621 q 431 612 430 618 l 431 317 l 134 317 l 134 612 m 251 751 l 332 921 l 408 920 l 301 751 l 251 751 z "},"ě":{"ha":555,"x_min":72,"x_max":494,"o":"m 480 -7 l 480 43 l 144 43 q 134 53 136 46 l 134 269 l 494 269 l 494 549 q 433 662 494 640 q 358 671 404 671 l 199 671 q 85 627 109 671 q 72 549 72 598 l 72 115 q 133 3 72 24 q 208 -7 161 -7 l 480 -7 m 134 612 q 144 621 137 620 l 422 621 q 431 612 430 618 l 431 317 l 134 317 l 134 612 m 256 758 l 332 758 l 454 921 l 391 921 l 294 791 l 208 921 l 141 921 l 256 758 z "},"ê":{"ha":555,"x_min":72,"x_max":494,"o":"m 480 -7 l 480 43 l 144 43 q 134 53 136 46 l 134 269 l 494 269 l 494 549 q 433 662 494 640 q 358 671 404 671 l 199 671 q 85 627 109 671 q 72 549 72 598 l 72 115 q 133 3 72 24 q 208 -7 161 -7 l 480 -7 m 134 612 q 144 621 137 620 l 422 621 q 431 612 430 618 l 431 317 l 134 317 l 134 612 m 313 914 l 237 914 l 115 751 l 179 751 l 275 882 l 362 751 l 429 751 l 313 914 z "},"ë":{"ha":555,"x_min":72,"x_max":494,"o":"m 480 -7 l 480 43 l 144 43 q 134 53 136 46 l 134 269 l 494 269 l 494 549 q 433 662 494 640 q 358 671 404 671 l 199 671 q 85 627 109 671 q 72 549 72 598 l 72 115 q 133 3 72 24 q 208 -7 161 -7 l 480 -7 m 134 612 q 144 621 137 620 l 422 621 q 431 612 430 618 l 431 317 l 134 317 l 134 612 m 206 788 l 206 883 l 133 883 l 133 788 l 206 788 m 434 788 l 434 883 l 361 883 l 361 788 l 434 788 z "},"ė":{"ha":555,"x_min":72,"x_max":494,"o":"m 480 -7 l 480 43 l 144 43 q 134 53 136 46 l 134 269 l 494 269 l 494 549 q 433 662 494 640 q 358 671 404 671 l 199 671 q 85 627 109 671 q 72 549 72 598 l 72 115 q 133 3 72 24 q 208 -7 161 -7 l 480 -7 m 134 612 q 144 621 137 620 l 422 621 q 431 612 430 618 l 431 317 l 134 317 l 134 612 m 323 787 l 323 890 l 244 890 l 244 787 l 323 787 z "},"è":{"ha":555,"x_min":72,"x_max":494,"o":"m 480 -7 l 480 43 l 144 43 q 134 53 136 46 l 134 269 l 494 269 l 494 549 q 433 662 494 640 q 358 671 404 671 l 199 671 q 85 627 109 671 q 72 549 72 598 l 72 115 q 133 3 72 24 q 208 -7 161 -7 l 480 -7 m 134 612 q 144 621 137 620 l 422 621 q 431 612 430 618 l 431 317 l 134 317 l 134 612 m 148 920 l 225 921 l 319 751 l 266 751 l 148 920 z "},"…":{"ha":766,"x_min":95,"x_max":671,"o":"m 427 0 l 427 118 l 339 118 l 339 0 l 427 0 m 671 0 l 671 118 l 583 118 l 583 0 l 671 0 m 183 0 l 183 118 l 95 118 l 95 0 l 183 0 z "},"ē":{"ha":555,"x_min":72,"x_max":494,"o":"m 480 -7 l 480 43 l 144 43 q 134 53 136 46 l 134 269 l 494 269 l 494 549 q 433 662 494 640 q 358 671 404 671 l 199 671 q 85 627 109 671 q 72 549 72 598 l 72 115 q 133 3 72 24 q 208 -7 161 -7 l 480 -7 m 134 612 q 144 621 137 620 l 422 621 q 431 612 430 618 l 431 317 l 134 317 l 134 612 m 448 849 l 119 849 l 119 799 l 448 799 l 448 849 z "},"—":{"ha":814,"x_min":-1,"x_max":815,"o":"m 815 407 l -1 407 l -1 355 l 815 355 l 815 407 z "},"–":{"ha":559,"x_min":27,"x_max":532,"o":"m 532 407 l 27 407 l 27 355 l 532 355 l 532 407 z "},"ę":{"ha":555,"x_min":72,"x_max":507,"o":"m 480 -7 l 480 43 l 144 43 q 134 53 136 46 l 134 269 l 494 269 l 494 549 q 433 662 494 640 q 358 671 404 671 l 199 671 q 85 627 109 671 q 72 549 72 598 l 72 115 q 133 3 72 24 q 208 -7 161 -7 l 425 -7 l 355 -68 q 320 -157 320 -100 l 320 -184 q 387 -271 320 -256 q 457 -278 415 -278 l 507 -278 l 507 -224 l 391 -224 q 381 -214 382 -221 l 381 -125 q 392 -102 382 -111 l 480 -7 m 134 612 q 144 621 137 620 l 422 621 q 431 612 430 618 l 431 317 l 134 317 l 134 612 z "},"=":{"ha":658,"x_min":81,"x_max":563,"o":"m 563 510 l 81 510 l 81 456 l 563 456 l 563 510 m 563 283 l 81 283 l 81 229 l 563 229 l 563 283 z "},"℮":{"ha":701,"x_min":75,"x_max":627,"o":"m 163 148 l 163 347 l 627 347 q 506 623 627 534 q 358 671 439 671 q 126 533 206 671 q 75 330 75 444 q 194 47 75 140 q 351 -7 264 -7 q 586 107 486 -5 l 560 136 q 357 33 471 34 q 206 92 273 33 q 163 148 179 118 m 528 553 l 528 385 l 163 385 l 163 517 q 358 633 227 631 q 528 553 464 632 z "},"ð":{"ha":572,"x_min":68,"x_max":544,"o":"m 354 -7 q 477 45 453 -7 q 490 115 490 72 l 490 789 q 481 849 490 825 l 544 888 l 521 925 l 458 886 q 354 911 427 911 l 159 911 l 159 861 l 418 861 l 420 861 l 285 774 l 308 738 l 427 814 l 427 651 l 203 651 q 80 600 104 651 q 68 529 68 572 l 68 115 q 129 3 68 24 q 203 -7 157 -7 l 354 -7 m 130 53 l 130 591 q 140 601 133 600 l 427 601 l 427 53 q 418 43 425 45 l 140 43 q 130 53 132 46 z "},"!":{"ha":267,"x_min":109,"x_max":179,"o":"m 163 239 l 179 651 l 179 875 l 109 875 l 109 651 l 125 239 l 163 239 m 178 0 l 178 88 l 110 88 l 110 0 l 178 0 z "},"¡":{"ha":267,"x_min":102,"x_max":172,"o":"m 118 426 l 102 14 l 102 -210 l 172 -210 l 172 14 l 156 426 l 118 426 m 103 665 l 103 576 l 171 576 l 171 665 l 103 665 z "},"f":{"ha":376,"x_min":35,"x_max":389,"o":"m 389 872 l 389 922 l 259 922 q 136 871 160 922 q 123 800 123 844 l 123 665 l 35 665 l 35 616 l 123 616 l 123 0 l 184 0 l 184 616 l 369 616 l 369 665 l 184 665 l 184 863 q 194 872 187 871 l 389 872 z "},"ﬁ":{"ha":605,"x_min":35,"x_max":510,"o":"m 510 0 l 510 665 l 449 665 l 449 0 l 510 0 m 347 616 l 347 665 l 184 665 l 184 856 q 194 865 187 864 l 368 865 l 368 916 l 259 916 q 136 864 160 916 q 123 793 123 837 l 123 665 l 35 665 l 35 616 l 123 616 l 123 0 l 184 0 l 184 616 l 347 616 m 510 841 l 510 916 l 449 916 l 449 841 l 510 841 z "},"ﬂ":{"ha":613,"x_min":35,"x_max":518,"o":"m 355 616 l 355 665 l 184 665 l 184 863 q 194 872 187 871 l 372 872 l 372 922 l 259 922 q 136 871 160 922 q 123 800 123 844 l 123 665 l 35 665 l 35 616 l 123 616 l 123 0 l 184 0 l 184 616 l 355 616 m 518 0 l 518 916 l 457 916 l 457 0 l 518 0 z "},"ƒ":{"ha":507,"x_min":16,"x_max":467,"o":"m 90 -258 q 206 -212 180 -258 q 225 -136 221 -184 l 274 496 l 423 496 l 423 545 l 278 545 l 302 863 q 312 872 305 871 l 467 872 l 467 922 l 377 922 q 260 876 286 922 q 241 800 245 849 l 222 545 l 125 545 l 125 496 l 218 496 l 164 -198 q 155 -208 161 -206 l 16 -208 l 16 -258 l 90 -258 z "},"⁴":{"ha":494,"x_min":30,"x_max":433,"o":"m 361 338 l 361 461 l 433 461 l 433 505 l 361 505 l 361 861 l 294 861 q 228 837 245 861 q 208 803 221 829 l 30 498 l 30 461 l 307 461 l 307 338 l 361 338 m 267 812 q 275 818 273 818 l 307 818 l 307 505 l 90 505 l 267 812 z "},"⁄":{"ha":587,"x_min":27,"x_max":541,"o":"m 483 868 l 27 -7 l 87 -7 l 541 868 l 483 868 z "},"g":{"ha":549,"x_min":68,"x_max":488,"o":"m 427 53 q 418 43 425 45 l 140 43 q 130 53 132 46 l 130 610 q 140 620 133 618 l 427 616 l 427 53 m 418 -214 l 87 -214 l 87 -264 l 353 -264 q 476 -213 452 -264 q 488 -142 488 -186 l 488 665 l 203 669 q 79 614 103 670 q 68 547 68 589 l 68 115 q 129 3 68 24 q 203 -7 157 -7 l 328 -7 q 427 39 408 -5 l 427 -205 q 418 -214 425 -213 z "},"ğ":{"ha":549,"x_min":68,"x_max":488,"o":"m 427 53 q 418 43 425 45 l 140 43 q 130 53 132 46 l 130 610 q 140 620 133 618 l 427 616 l 427 53 m 418 -214 l 87 -214 l 87 -264 l 353 -264 q 476 -213 452 -264 q 488 -142 488 -186 l 488 665 l 203 669 q 79 614 103 670 q 68 547 68 589 l 68 115 q 129 3 68 24 q 203 -7 157 -7 l 328 -7 q 427 39 408 -5 l 427 -205 q 418 -214 425 -213 m 141 906 q 194 779 141 806 q 286 762 227 762 q 410 819 384 762 q 423 906 423 852 l 374 906 q 347 821 374 838 q 286 808 326 808 q 198 849 212 808 q 191 906 191 868 l 141 906 z "},"ß":{"ha":605,"x_min":26,"x_max":537,"o":"m 381 -4 q 537 140 536 -1 l 537 355 q 471 472 537 449 q 465 473 467 473 q 517 581 517 502 l 517 726 q 429 859 517 838 q 368 865 401 865 l 250 865 q 111 779 133 865 q 106 726 106 755 l 106 665 l 26 665 l 26 616 l 106 616 l 106 0 l 167 0 l 167 799 q 183 815 167 815 l 438 815 q 454 799 454 815 l 454 507 q 438 491 454 491 l 236 491 l 236 441 l 458 441 q 475 425 475 441 l 475 62 q 458 46 472 47 l 236 46 l 236 -4 l 381 -4 z "},"`":{"ha":342,"x_min":64,"x_max":235,"o":"m 64 920 l 141 921 l 235 751 l 182 751 l 64 920 z "},">":{"ha":635,"x_min":95,"x_max":553,"o":"m 553 429 l 95 663 l 95 601 l 476 408 l 95 216 l 95 155 l 553 391 l 553 429 z "},"≥":{"ha":621,"x_min":81,"x_max":540,"o":"m 540 429 l 81 663 l 81 601 l 461 408 l 81 216 l 81 155 l 540 391 l 540 429 m 529 118 l 81 118 l 81 64 l 529 64 l 529 118 z "},"«":{"ha":469,"x_min":49,"x_max":435,"o":"m 62 326 l 206 118 l 267 118 l 126 335 q 126 357 121 346 l 273 572 l 213 572 l 62 362 q 60 330 49 345 q 62 326 61 327 m 227 326 l 366 118 l 430 118 l 290 335 q 290 357 285 346 l 435 572 l 373 572 l 227 362 q 225 328 214 345 q 227 326 227 327 z "},"»":{"ha":469,"x_min":14,"x_max":400,"o":"m 387 365 l 243 572 l 182 572 l 323 355 q 323 334 328 345 l 176 118 l 236 118 l 387 328 q 389 361 400 346 q 387 365 388 363 m 222 365 l 83 572 l 19 572 l 159 355 q 159 334 164 345 l 14 118 l 76 118 l 222 328 q 224 362 235 346 q 222 365 222 363 z "},"‹":{"ha":308,"x_min":49,"x_max":275,"o":"m 62 326 l 206 118 l 270 118 l 127 335 q 127 357 122 347 l 275 572 l 213 572 l 62 362 q 60 330 49 345 q 62 326 61 327 z "},"›":{"ha":309,"x_min":34,"x_max":260,"o":"m 247 365 l 103 572 l 39 572 l 182 355 q 182 334 187 343 l 34 118 l 96 118 l 247 328 q 250 361 260 346 q 247 365 248 363 z "},"h":{"ha":574,"x_min":81,"x_max":502,"o":"m 241 671 q 142 635 167 670 l 142 916 l 81 916 l 81 0 l 142 0 l 142 612 q 152 621 145 620 l 431 621 q 441 612 439 618 l 441 0 l 502 0 l 502 549 q 441 662 502 640 q 366 671 412 671 l 241 671 z "},"˝":{"ha":412,"x_min":54,"x_max":359,"o":"m 54 751 l 136 921 l 212 920 l 104 751 l 54 751 m 202 751 l 283 921 l 359 920 l 252 751 l 202 751 z "},"-":{"ha":430,"x_min":47,"x_max":382,"o":"m 382 407 l 47 407 l 47 355 l 382 355 l 382 407 z "},"i":{"ha":251,"x_min":95,"x_max":156,"o":"m 156 0 l 156 665 l 95 665 l 95 0 l 156 0 m 156 823 l 156 898 l 95 898 l 95 823 l 156 823 z "},"í":{"ha":251,"x_min":94,"x_max":251,"o":"m 156 0 l 156 665 l 95 665 l 95 0 l 156 0 m 94 751 l 175 921 l 251 920 l 144 751 l 94 751 z "},"î":{"ha":251,"x_min":-42,"x_max":271,"o":"m 156 0 l 156 665 l 95 665 l 95 0 l 156 0 m 156 914 l 80 914 l -42 751 l 22 751 l 118 882 l 205 751 l 271 751 l 156 914 z "},"ï":{"ha":251,"x_min":-24,"x_max":277,"o":"m 156 0 l 156 665 l 95 665 l 95 0 l 156 0 m 49 788 l 49 883 l -24 883 l -24 788 l 49 788 m 277 788 l 277 883 l 203 883 l 203 788 l 277 788 z "},"ì":{"ha":251,"x_min":-9,"x_max":161,"o":"m 156 0 l 156 665 l 95 665 l 95 0 l 156 0 m -9 920 l 68 921 l 161 751 l 109 751 l -9 920 z "},"ī":{"ha":251,"x_min":-14,"x_max":266,"o":"m 156 0 l 156 665 l 95 665 l 95 0 l 156 0 m 266 849 l -14 849 l -14 799 l 266 799 l 266 849 z "},"∞":{"ha":1009,"x_min":68,"x_max":941,"o":"m 144 228 q 129 243 130 231 l 129 518 q 144 533 132 532 l 373 533 q 395 518 387 532 l 475 380 l 397 251 q 370 228 385 231 q 351 228 363 228 l 144 228 m 803 178 q 941 308 940 180 l 941 453 q 850 579 941 562 q 803 583 829 583 l 659 583 q 581 552 606 583 q 552 510 570 538 l 507 434 l 463 510 q 401 576 430 564 q 353 583 381 583 l 206 583 q 72 496 90 583 q 68 453 68 476 l 68 308 q 206 178 71 179 l 342 178 q 430 213 403 178 q 457 259 435 222 l 502 334 l 545 259 q 590 195 576 206 q 661 178 616 178 l 803 178 m 659 228 q 620 240 629 228 q 613 251 617 245 l 534 387 l 612 517 q 633 533 624 533 l 865 533 q 880 518 879 530 l 880 243 q 865 228 878 229 l 659 228 z "},"∫":{"ha":412,"x_min":20,"x_max":378,"o":"m 168 806 l 168 -198 q 159 -208 165 -206 l 20 -208 l 20 -264 l 114 -264 q 217 -222 195 -264 q 231 -148 231 -195 l 231 856 q 240 865 233 864 l 378 865 l 378 922 l 285 922 q 182 880 203 922 q 168 806 168 853 z "},"į":{"ha":251,"x_min":-4,"x_max":183,"o":"m 156 0 l 156 665 l 95 665 l 95 0 l 100 0 l 31 -61 q -4 -151 -4 -94 l -4 -178 q 62 -264 -4 -250 q 133 -271 91 -271 l 183 -271 l 183 -217 l 66 -217 q 57 -208 58 -214 l 57 -118 q 68 -95 58 -104 l 156 0 m 165 787 l 165 890 l 87 890 l 87 787 l 165 787 z "},"j":{"ha":244,"x_min":-42,"x_max":156,"o":"m 156 823 l 156 898 l 95 898 l 95 823 l 156 823 m 85 -214 l -42 -214 l -42 -264 l 20 -264 q 144 -213 119 -264 q 156 -142 156 -186 l 156 665 l 95 665 l 95 -205 q 85 -214 92 -213 z "},"k":{"ha":578,"x_min":99,"x_max":571,"o":"m 372 320 q 381 311 378 317 l 510 0 l 571 0 l 467 247 q 418 335 435 320 q 388 350 404 345 q 441 442 415 369 l 518 665 l 463 665 l 361 378 q 351 369 355 370 l 159 369 l 159 916 l 99 916 l 99 0 l 159 0 l 159 320 l 372 320 z "},"l":{"ha":251,"x_min":95,"x_max":156,"o":"m 156 0 l 156 916 l 95 916 l 95 0 l 156 0 z "},"ĺ":{"ha":251,"x_min":94,"x_max":251,"o":"m 156 0 l 156 916 l 95 916 l 95 0 l 156 0 m 94 960 l 175 1130 l 251 1128 l 144 960 l 94 960 z "},"ľ":{"ha":297,"x_min":95,"x_max":304,"o":"m 156 0 l 156 916 l 95 916 l 95 0 l 156 0 m 224 806 l 255 806 q 224 716 252 761 l 251 696 q 304 823 304 753 l 304 916 l 224 916 l 224 806 z "},"<":{"ha":635,"x_min":81,"x_max":540,"o":"m 81 362 l 540 127 l 540 190 l 159 382 l 540 575 l 540 636 l 81 400 l 81 362 z "},"≤":{"ha":621,"x_min":81,"x_max":540,"o":"m 81 389 l 540 155 l 540 217 l 160 410 l 540 602 l 540 663 l 81 427 l 81 389 m 540 118 l 92 118 l 92 64 l 540 64 l 540 118 z "},"¬":{"ha":692,"x_min":54,"x_max":610,"o":"m 610 430 l 54 430 l 54 380 l 553 380 l 553 210 l 610 210 l 610 430 z "},"◊":{"ha":647,"x_min":34,"x_max":613,"o":"m 335 -4 l 613 435 l 336 865 l 301 865 l 34 431 l 296 -4 l 335 -4 m 319 62 l 96 434 l 319 799 l 552 430 l 319 62 z "},"ł":{"ha":251,"x_min":-11,"x_max":264,"o":"m 156 0 l 156 438 l 264 477 l 248 526 l 156 492 l 156 916 l 95 916 l 95 471 l -11 433 l 5 382 l 95 415 l 95 0 l 156 0 z "},"m":{"ha":892,"x_min":68,"x_max":821,"o":"m 228 671 q 126 631 151 670 l 118 665 l 68 665 l 68 0 l 129 0 l 129 612 q 138 621 132 620 l 404 621 q 414 612 412 618 l 414 0 l 475 0 l 475 612 q 484 621 477 620 l 750 621 q 760 612 758 618 l 760 0 l 821 0 l 821 549 q 760 662 821 640 q 685 671 731 671 l 574 671 q 468 620 487 671 q 465 613 467 616 q 354 671 444 669 q 339 671 346 671 l 228 671 z "},"¯":{"ha":491,"x_min":81,"x_max":410,"o":"m 410 849 l 81 849 l 81 799 l 410 799 l 410 849 z "},"−":{"ha":705,"x_min":81,"x_max":624,"o":"m 624 430 l 81 430 l 81 376 l 624 376 l 624 430 z "},"×":{"ha":586,"x_min":81,"x_max":505,"o":"m 465 614 l 293 442 l 121 614 l 81 575 l 254 403 l 81 231 l 121 191 l 293 363 l 465 191 l 505 231 l 332 403 l 505 575 l 465 614 z "},"n":{"ha":574,"x_min":81,"x_max":502,"o":"m 241 671 q 140 631 164 670 l 132 665 l 81 665 l 81 0 l 142 0 l 142 612 q 152 621 145 620 l 431 621 q 441 612 439 618 l 441 0 l 502 0 l 502 549 q 441 662 502 640 q 366 671 412 671 l 241 671 z "},"ń":{"ha":574,"x_min":81,"x_max":502,"o":"m 241 671 q 140 631 164 670 l 132 665 l 81 665 l 81 0 l 142 0 l 142 612 q 152 621 145 620 l 431 621 q 441 612 439 618 l 441 0 l 502 0 l 502 549 q 441 662 502 640 q 366 671 412 671 l 241 671 m 269 751 l 350 921 l 426 920 l 319 751 l 269 751 z "},"ň":{"ha":574,"x_min":81,"x_max":502,"o":"m 241 671 q 140 631 164 670 l 132 665 l 81 665 l 81 0 l 142 0 l 142 612 q 152 621 145 620 l 431 621 q 441 612 439 618 l 441 0 l 502 0 l 502 549 q 441 662 502 640 q 366 671 412 671 l 241 671 m 267 758 l 343 758 l 465 921 l 401 921 l 305 791 l 218 921 l 152 921 l 267 758 z "},"≠":{"ha":644,"x_min":81,"x_max":563,"o":"m 441 678 l 359 510 l 81 510 l 81 456 l 334 456 l 251 283 l 81 283 l 81 229 l 224 229 l 142 60 l 202 60 l 283 229 l 563 229 l 563 283 l 309 283 l 392 456 l 563 456 l 563 510 l 418 510 l 499 678 l 441 678 z "},"ñ":{"ha":574,"x_min":81,"x_max":502,"o":"m 241 671 q 140 631 164 670 l 132 665 l 81 665 l 81 0 l 142 0 l 142 612 q 152 621 145 620 l 431 621 q 441 612 439 618 l 441 0 l 502 0 l 502 549 q 441 662 502 640 q 366 671 412 671 l 241 671 m 187 795 q 220 845 189 844 q 304 817 239 845 q 385 795 354 795 q 456 848 444 795 q 461 897 461 868 l 410 897 q 385 848 410 852 q 373 846 378 846 q 288 875 351 846 q 206 897 239 897 q 138 834 149 897 q 136 795 136 817 l 187 795 z "},"#":{"ha":707,"x_min":24,"x_max":682,"o":"m 99 0 l 151 0 l 195 236 l 433 236 l 388 0 l 439 0 l 484 236 l 618 236 l 618 288 l 494 288 l 551 582 l 682 582 l 682 633 l 560 633 l 605 868 l 555 868 l 510 633 l 271 633 l 316 868 l 266 868 l 221 633 l 88 633 l 88 582 l 210 582 l 155 288 l 24 288 l 24 236 l 144 236 l 99 0 m 499 582 l 444 288 l 205 288 l 262 582 l 499 582 z "},"o":{"ha":572,"x_min":68,"x_max":505,"o":"m 433 621 q 442 612 441 618 l 442 53 q 433 43 439 45 l 140 43 q 130 53 132 46 l 130 612 q 140 621 133 620 l 433 621 m 68 115 q 129 3 68 24 q 203 -7 157 -7 l 369 -7 q 492 45 468 -7 q 505 115 505 72 l 505 549 q 444 662 505 640 q 369 671 415 671 l 203 671 q 80 620 104 671 q 68 549 68 593 l 68 115 z "},"ó":{"ha":572,"x_min":68,"x_max":505,"o":"m 433 621 q 442 612 441 618 l 442 53 q 433 43 439 45 l 140 43 q 130 53 132 46 l 130 612 q 140 621 133 620 l 433 621 m 68 115 q 129 3 68 24 q 203 -7 157 -7 l 369 -7 q 492 45 468 -7 q 505 115 505 72 l 505 549 q 444 662 505 640 q 369 671 415 671 l 203 671 q 80 620 104 671 q 68 549 68 593 l 68 115 m 255 751 l 336 921 l 412 920 l 305 751 l 255 751 z "},"ô":{"ha":572,"x_min":68,"x_max":505,"o":"m 433 621 q 442 612 441 618 l 442 53 q 433 43 439 45 l 140 43 q 130 53 132 46 l 130 612 q 140 621 133 620 l 433 621 m 68 115 q 129 3 68 24 q 203 -7 157 -7 l 369 -7 q 492 45 468 -7 q 505 115 505 72 l 505 549 q 444 662 505 640 q 369 671 415 671 l 203 671 q 80 620 104 671 q 68 549 68 593 l 68 115 m 317 914 l 241 914 l 119 751 l 183 751 l 279 882 l 366 751 l 433 751 l 317 914 z "},"ö":{"ha":572,"x_min":68,"x_max":505,"o":"m 433 621 q 442 612 441 618 l 442 53 q 433 43 439 45 l 140 43 q 130 53 132 46 l 130 612 q 140 621 133 620 l 433 621 m 68 115 q 129 3 68 24 q 203 -7 157 -7 l 369 -7 q 492 45 468 -7 q 505 115 505 72 l 505 549 q 444 662 505 640 q 369 671 415 671 l 203 671 q 80 620 104 671 q 68 549 68 593 l 68 115 m 210 788 l 210 883 l 137 883 l 137 788 l 210 788 m 438 788 l 438 883 l 365 883 l 365 788 l 438 788 z "},"œ":{"ha":924,"x_min":68,"x_max":863,"o":"m 433 621 q 442 612 441 618 l 442 53 q 433 43 439 45 l 140 43 q 130 53 132 46 l 130 612 q 140 621 133 620 l 433 621 m 503 612 q 513 621 506 620 l 791 621 q 800 612 799 618 l 800 317 l 503 317 l 503 612 m 582 -7 l 849 -7 l 849 43 l 513 43 q 503 53 505 46 l 503 269 l 863 269 l 863 549 q 802 662 863 640 q 727 671 773 671 l 574 671 q 472 639 495 670 q 366 671 445 671 l 203 671 q 80 620 104 671 q 68 549 68 593 l 68 115 q 129 3 68 24 q 203 -7 157 -7 l 366 -7 q 473 28 448 -5 q 582 -7 503 -7 z "},"˛":{"ha":350,"x_min":111,"x_max":298,"o":"m 298 -271 l 298 -217 l 182 -217 q 172 -208 174 -214 l 172 -118 q 183 -95 174 -104 l 271 0 l 225 8 l 146 -61 q 111 -151 111 -94 l 111 -178 q 178 -264 111 -250 q 248 -271 206 -271 l 298 -271 z "},"ò":{"ha":572,"x_min":68,"x_max":505,"o":"m 433 621 q 442 612 441 618 l 442 53 q 433 43 439 45 l 140 43 q 130 53 132 46 l 130 612 q 140 621 133 620 l 433 621 m 68 115 q 129 3 68 24 q 203 -7 157 -7 l 369 -7 q 492 45 468 -7 q 505 115 505 72 l 505 549 q 444 662 505 640 q 369 671 415 671 l 203 671 q 80 620 104 671 q 68 549 68 593 l 68 115 m 152 920 l 229 921 l 323 751 l 270 751 l 152 920 z "},"ő":{"ha":572,"x_min":68,"x_max":505,"o":"m 433 621 q 442 612 441 618 l 442 53 q 433 43 439 45 l 140 43 q 130 53 132 46 l 130 612 q 140 621 133 620 l 433 621 m 68 115 q 129 3 68 24 q 203 -7 157 -7 l 369 -7 q 492 45 468 -7 q 505 115 505 72 l 505 549 q 444 662 505 640 q 369 671 415 671 l 203 671 q 80 620 104 671 q 68 549 68 593 l 68 115 m 182 751 l 263 921 l 339 920 l 232 751 l 182 751 m 330 751 l 411 921 l 487 920 l 380 751 l 330 751 z "},"ō":{"ha":572,"x_min":68,"x_max":505,"o":"m 433 621 q 442 612 441 618 l 442 53 q 433 43 439 45 l 140 43 q 130 53 132 46 l 130 612 q 140 621 133 620 l 433 621 m 68 115 q 129 3 68 24 q 203 -7 157 -7 l 369 -7 q 492 45 468 -7 q 505 115 505 72 l 505 549 q 444 662 505 640 q 369 671 415 671 l 203 671 q 80 620 104 671 q 68 549 68 593 l 68 115 m 452 849 l 123 849 l 123 799 l 452 799 l 452 849 z "},"½":{"ha":977,"x_min":46,"x_max":914,"o":"m 372 381 l 259 381 l 259 861 l 206 861 l 46 754 l 72 716 l 205 803 l 205 381 l 60 381 l 60 338 l 372 338 l 372 381 m 713 868 l 258 -7 l 317 -7 l 772 868 l 713 868 m 609 164 l 609 0 l 914 0 l 914 43 l 663 43 l 663 161 q 674 190 663 183 q 678 191 677 191 l 859 275 q 911 321 903 297 q 914 349 914 334 l 914 439 q 833 528 914 522 q 819 528 825 528 l 624 524 l 624 480 l 849 480 q 860 471 859 477 l 860 339 q 849 327 860 331 l 848 326 l 670 241 q 617 206 625 220 q 609 164 609 190 z "},"¼":{"ha":1013,"x_min":46,"x_max":952,"o":"m 880 0 l 880 123 l 952 123 l 952 167 l 880 167 l 880 524 l 814 524 q 747 499 765 524 q 727 465 741 491 l 549 160 l 549 123 l 826 123 l 826 0 l 880 0 m 787 475 q 795 480 792 480 l 826 480 l 826 167 l 609 167 l 787 475 m 372 381 l 259 381 l 259 861 l 206 861 l 46 754 l 72 716 l 205 803 l 205 381 l 60 381 l 60 338 l 372 338 l 372 381 m 723 868 l 267 -7 l 327 -7 l 781 868 l 723 868 z "},"¹":{"ha":415,"x_min":46,"x_max":372,"o":"m 372 381 l 259 381 l 259 861 l 206 861 l 46 754 l 72 716 l 205 803 l 205 381 l 60 381 l 60 338 l 372 338 l 372 381 z "},"ª":{"ha":434,"x_min":54,"x_max":366,"o":"m 312 467 l 119 467 q 110 476 111 469 l 110 651 q 119 661 113 659 l 312 661 l 312 467 m 213 420 q 312 467 293 422 l 323 427 l 366 427 l 366 780 q 317 890 366 868 q 239 902 289 902 l 79 902 l 79 856 l 302 856 q 312 846 311 853 l 312 705 l 183 705 q 68 659 91 705 q 54 583 54 632 l 54 543 q 106 431 54 453 q 183 420 133 420 l 213 420 z "},"º":{"ha":458,"x_min":61,"x_max":397,"o":"m 331 859 q 340 849 339 856 l 340 476 q 331 467 338 468 l 127 467 q 118 476 119 469 l 118 849 q 127 859 121 857 l 331 859 m 61 543 q 125 429 61 449 q 191 420 152 420 l 267 420 q 387 473 362 420 q 397 543 397 500 l 397 783 q 334 897 397 876 q 267 905 307 905 l 191 905 q 72 852 96 905 q 61 783 61 825 l 61 543 z "},"ø":{"ha":572,"x_min":68,"x_max":506,"o":"m 453 739 l 419 667 q 369 671 396 671 l 203 671 q 80 620 104 671 q 68 549 68 593 l 68 115 q 109 12 69 38 l 68 -73 l 121 -73 l 153 -3 q 203 -7 176 -7 l 369 -7 q 492 45 468 -7 q 505 115 505 72 l 505 549 q 464 652 503 625 l 506 739 l 453 739 m 130 612 q 140 621 133 620 l 397 621 l 130 58 l 130 612 m 442 53 q 433 43 439 45 l 176 43 l 442 605 l 442 53 z "},"õ":{"ha":572,"x_min":68,"x_max":505,"o":"m 433 621 q 442 612 441 618 l 442 53 q 433 43 439 45 l 140 43 q 130 53 132 46 l 130 612 q 140 621 133 620 l 433 621 m 68 115 q 129 3 68 24 q 203 -7 157 -7 l 369 -7 q 492 45 468 -7 q 505 115 505 72 l 505 549 q 444 662 505 640 q 369 671 415 671 l 203 671 q 80 620 104 671 q 68 549 68 593 l 68 115 m 174 795 q 206 845 175 844 q 290 817 225 845 q 372 795 340 795 q 442 848 430 795 q 448 897 448 868 l 396 897 q 372 848 396 852 q 359 846 365 846 q 274 875 338 846 q 193 897 225 897 q 125 834 136 897 q 122 795 122 817 l 174 795 z "},"p":{"ha":570,"x_min":81,"x_max":502,"o":"m 142 -258 l 142 0 l 366 -4 q 491 50 467 -5 q 502 118 502 76 l 502 549 q 441 662 502 640 q 366 671 412 671 l 241 671 q 141 624 160 670 l 132 665 l 81 665 l 81 -258 l 142 -258 m 142 612 q 152 621 145 620 l 430 621 q 439 612 438 618 l 439 54 q 430 45 437 46 l 142 49 l 142 612 z "},"¶":{"ha":625,"x_min":54,"x_max":524,"o":"m 463 0 l 524 0 l 524 861 l 203 865 q 60 780 81 867 q 54 726 54 755 l 54 610 q 142 477 54 498 q 203 471 170 471 l 315 471 l 313 0 l 374 0 l 374 811 l 463 811 l 463 0 z "},"(":{"ha":366,"x_min":95,"x_max":332,"o":"m 332 -231 l 332 -178 l 171 -178 q 161 -168 163 -175 l 161 860 q 171 869 164 868 l 332 869 l 332 922 l 237 922 q 100 844 122 922 q 95 793 95 821 l 95 -102 q 184 -227 95 -208 q 237 -231 208 -231 l 332 -231 z "},")":{"ha":366,"x_min":34,"x_max":271,"o":"m 34 -231 l 34 -178 l 195 -178 q 205 -168 203 -175 l 205 860 q 195 869 202 868 l 34 869 l 34 922 l 129 922 q 266 844 244 922 q 271 793 271 821 l 271 -102 q 182 -227 271 -208 q 129 -231 159 -231 l 34 -231 z "},"∂":{"ha":656,"x_min":68,"x_max":548,"o":"m 399 -3 q 532 43 503 -3 q 548 122 548 73 l 548 722 q 415 865 548 856 q 392 865 403 865 l 99 861 l 99 807 l 465 807 q 481 791 480 804 l 481 454 q 382 500 461 500 l 224 500 q 71 404 87 500 q 68 370 68 388 l 68 136 q 152 4 68 26 q 217 -3 179 -3 l 399 -3 m 151 54 q 134 71 134 54 l 134 430 q 151 446 137 445 l 472 446 q 481 437 480 444 l 481 71 q 464 54 479 56 l 151 54 z "},"%":{"ha":920,"x_min":47,"x_max":872,"o":"m 47 484 q 133 392 47 399 q 152 391 142 391 l 262 391 q 368 484 363 397 l 368 768 q 286 860 368 852 q 262 861 274 861 l 152 861 q 49 788 58 861 q 47 768 47 779 l 47 484 m 297 810 q 307 800 305 807 l 307 452 q 297 442 304 444 l 118 442 q 109 452 110 445 l 109 800 q 118 810 111 808 l 297 810 m 552 94 q 637 1 552 8 q 656 0 647 0 l 766 0 q 872 94 868 7 l 872 377 q 791 469 872 461 q 766 471 779 471 l 656 471 q 553 397 563 471 q 552 377 552 388 l 552 94 m 802 419 q 811 410 810 416 l 811 61 q 802 52 808 53 l 623 52 q 613 61 614 54 l 613 410 q 623 419 616 418 l 802 419 m 659 868 l 203 -7 l 263 -7 l 718 868 l 659 868 z "},".":{"ha":251,"x_min":81,"x_max":170,"o":"m 170 0 l 170 118 l 81 118 l 81 0 l 170 0 z "},"·":{"ha":225,"x_min":64,"x_max":161,"o":"m 161 339 l 161 457 l 64 457 l 64 339 l 161 339 z "},"‰":{"ha":1326,"x_min":47,"x_max":1279,"o":"m 959 94 q 1044 1 959 8 q 1063 0 1054 0 l 1173 0 q 1279 94 1275 7 l 1279 377 q 1198 469 1279 461 q 1173 471 1185 471 l 1063 471 q 960 397 970 471 q 959 377 959 388 l 959 94 m 1208 419 q 1218 410 1217 416 l 1218 61 q 1208 52 1215 53 l 1029 52 q 1020 61 1021 54 l 1020 410 q 1029 419 1023 418 l 1208 419 m 47 484 q 133 392 47 399 q 152 391 142 391 l 262 391 q 368 484 363 397 l 368 768 q 286 860 368 852 q 262 861 274 861 l 152 861 q 49 788 58 861 q 47 768 47 779 l 47 484 m 297 810 q 307 800 305 807 l 307 452 q 297 442 304 444 l 118 442 q 109 452 110 445 l 109 800 q 118 810 111 808 l 297 810 m 552 94 q 637 1 552 8 q 656 0 647 0 l 766 0 q 872 94 868 7 l 872 377 q 791 469 872 461 q 766 471 779 471 l 656 471 q 553 397 563 471 q 552 377 552 388 l 552 94 m 802 419 q 811 410 810 416 l 811 61 q 802 52 808 53 l 623 52 q 613 61 614 54 l 613 410 q 623 419 616 418 l 802 419 m 659 868 l 203 -7 l 263 -7 l 718 868 l 659 868 z "},"π":{"ha":651,"x_min":28,"x_max":623,"o":"m 178 0 l 178 616 l 473 616 l 473 0 l 534 0 l 534 616 l 623 616 l 623 665 l 28 665 l 28 616 l 117 616 l 117 0 l 178 0 z "},"+":{"ha":705,"x_min":81,"x_max":624,"o":"m 624 430 l 381 430 l 381 666 l 324 666 l 324 430 l 81 430 l 81 376 l 324 376 l 324 140 l 381 140 l 381 376 l 624 376 l 624 430 z "},"±":{"ha":705,"x_min":81,"x_max":624,"o":"m 624 471 l 381 471 l 381 686 l 324 686 l 324 471 l 81 471 l 81 416 l 324 416 l 324 201 l 381 201 l 381 416 l 624 416 l 624 471 m 624 118 l 81 118 l 81 64 l 624 64 l 624 118 z "},"∏":{"ha":709,"x_min":41,"x_max":669,"o":"m 669 861 l 41 861 l 41 807 l 122 807 l 122 0 l 184 0 l 184 807 l 525 807 l 525 0 l 587 0 l 587 807 l 669 807 l 669 861 z "},"q":{"ha":570,"x_min":68,"x_max":488,"o":"m 203 669 q 79 614 103 670 q 68 547 68 589 l 68 115 q 129 3 68 24 q 203 -7 157 -7 l 328 -7 q 427 39 408 -5 l 427 -258 l 488 -258 l 488 665 l 203 669 m 427 53 q 418 43 425 45 l 140 43 q 130 53 132 46 l 130 610 q 140 620 133 618 l 427 616 l 427 53 z "},"?":{"ha":491,"x_min":50,"x_max":407,"o":"m 208 190 l 208 297 q 227 355 208 335 q 232 361 231 359 l 313 448 q 347 483 326 461 q 404 557 396 532 q 407 582 407 570 l 407 732 q 317 857 407 838 q 264 861 294 861 l 50 861 l 50 806 l 331 806 q 340 796 339 803 l 340 566 q 330 543 339 552 l 220 430 q 157 361 163 370 q 142 300 142 336 l 142 190 l 208 190 m 209 0 l 209 88 l 141 88 l 141 0 l 209 0 z "},"¿":{"ha":505,"x_min":98,"x_max":454,"o":"m 297 475 l 297 368 q 278 309 297 330 q 273 304 274 305 l 191 217 q 157 182 179 203 q 100 107 109 133 q 98 83 98 95 l 98 -68 q 187 -193 98 -174 q 240 -197 210 -197 l 454 -197 l 454 -141 l 174 -141 q 164 -132 165 -138 l 164 99 q 175 122 165 113 l 285 235 q 347 304 342 294 q 362 365 362 328 l 362 475 l 297 475 m 296 665 l 296 576 l 363 576 l 363 665 l 296 665 z "},"\"":{"ha":313,"x_min":52,"x_max":245,"o":"m 52 686 l 52 916 l 119 916 l 119 818 l 92 686 l 52 686 m 178 686 l 178 916 l 245 916 l 245 818 l 218 686 l 178 686 z "},"„":{"ha":350,"x_min":64,"x_max":282,"o":"m 202 8 l 233 8 q 202 -83 229 -38 l 229 -103 q 282 24 281 -46 l 282 118 l 202 118 l 202 8 m 65 8 l 96 8 q 65 -83 92 -38 l 92 -103 q 145 24 144 -46 l 145 118 l 65 118 l 65 8 z "},"“":{"ha":353,"x_min":68,"x_max":288,"o":"m 152 814 l 119 814 q 152 909 123 861 l 123 930 q 68 796 68 871 l 68 699 l 152 699 l 152 814 m 288 814 l 255 814 q 288 909 259 861 l 259 930 q 203 796 203 871 l 203 699 l 288 699 l 288 814 z "},"”":{"ha":349,"x_min":61,"x_max":281,"o":"m 197 800 l 229 800 q 197 705 225 753 l 225 684 q 281 818 281 743 l 281 916 l 197 916 l 197 800 m 61 800 l 94 800 q 61 705 90 753 l 90 684 q 145 818 145 743 l 145 916 l 61 916 l 61 800 z "},"‘":{"ha":203,"x_min":68,"x_max":152,"o":"m 152 814 l 119 814 q 152 909 123 861 l 123 930 q 68 796 68 871 l 68 699 l 152 699 l 152 814 z "},"’":{"ha":197,"x_min":52,"x_max":136,"o":"m 52 800 l 84 800 q 52 705 80 753 l 80 684 q 136 818 136 743 l 136 916 l 52 916 l 52 800 z "},"‚":{"ha":217,"x_min":65,"x_max":149,"o":"m 65 3 l 98 3 q 65 -92 94 -45 l 94 -114 q 149 20 149 -54 l 149 118 l 65 118 l 65 3 z "},"'":{"ha":191,"x_min":52,"x_max":125,"o":"m 52 685 l 52 916 l 125 916 l 125 818 l 92 685 l 52 685 z "},"r":{"ha":340,"x_min":81,"x_max":338,"o":"m 241 671 q 140 631 164 670 l 132 665 l 81 665 l 81 0 l 142 0 l 142 612 q 152 621 145 620 l 338 621 l 338 671 l 241 671 z "},"ŕ":{"ha":340,"x_min":81,"x_max":338,"o":"m 241 671 q 140 631 164 670 l 132 665 l 81 665 l 81 0 l 142 0 l 142 612 q 152 621 145 620 l 338 621 l 338 671 l 241 671 m 132 751 l 213 921 l 289 920 l 182 751 l 132 751 z "},"√":{"ha":753,"x_min":34,"x_max":711,"o":"m 410 -47 l 711 922 l 656 922 l 382 43 l 165 665 l 34 665 l 34 610 l 121 610 l 351 -47 l 410 -47 z "},"ř":{"ha":340,"x_min":66,"x_max":380,"o":"m 241 671 q 140 631 164 670 l 132 665 l 81 665 l 81 0 l 142 0 l 142 612 q 152 621 145 620 l 338 621 l 338 671 l 241 671 m 182 758 l 258 758 l 380 921 l 316 921 l 220 791 l 133 921 l 66 921 l 182 758 z "},"®":{"ha":704,"x_min":102,"x_max":602,"o":"m 534 822 q 544 812 543 819 l 544 308 q 534 298 541 300 l 170 298 q 160 308 161 301 l 160 812 q 170 822 163 821 l 534 822 m 102 370 q 157 262 102 283 q 233 252 186 252 l 471 252 q 590 301 567 252 q 602 370 602 328 l 602 750 q 547 859 602 837 q 471 868 518 868 l 233 868 q 114 819 137 868 q 102 750 102 792 l 102 370 m 275 334 l 274 514 l 372 514 q 393 500 389 513 l 448 334 l 503 334 l 469 437 q 434 514 448 502 q 429 518 431 517 q 498 635 496 538 l 498 659 q 373 777 498 780 q 370 777 372 777 l 217 773 l 217 334 l 275 334 m 423 730 q 439 713 439 730 l 439 578 q 423 562 437 563 l 274 562 l 274 730 l 423 730 z "},"˚":{"ha":403,"x_min":92,"x_max":311,"o":"m 311 841 q 262 939 311 920 q 199 947 237 947 q 100 898 118 947 q 92 841 92 876 q 144 743 92 761 q 199 735 165 735 q 305 795 289 735 q 311 841 311 814 m 137 841 q 153 903 137 894 q 199 911 167 911 q 260 890 251 911 q 266 841 266 875 q 247 779 266 789 q 199 770 231 770 q 141 799 149 770 q 137 841 137 812 z "},"s":{"ha":488,"x_min":47,"x_max":454,"o":"m 319 -7 q 442 45 418 -7 q 454 115 454 72 l 454 241 q 393 354 454 332 q 319 363 365 363 l 119 363 q 110 373 111 366 l 110 612 q 119 621 113 620 l 427 621 l 427 671 l 183 671 q 60 620 84 671 q 47 549 47 593 l 47 437 q 109 324 47 346 q 183 315 137 315 l 382 315 q 392 305 391 312 l 392 53 q 382 43 389 45 l 56 43 l 56 -7 l 319 -7 z "},"ś":{"ha":488,"x_min":47,"x_max":454,"o":"m 319 -7 q 442 45 418 -7 q 454 115 454 72 l 454 241 q 393 354 454 332 q 319 363 365 363 l 119 363 q 110 373 111 366 l 110 612 q 119 621 113 620 l 427 621 l 427 671 l 183 671 q 60 620 84 671 q 47 549 47 593 l 47 437 q 109 324 47 346 q 183 315 137 315 l 382 315 q 392 305 391 312 l 392 53 q 382 43 389 45 l 56 43 l 56 -7 l 319 -7 m 217 751 l 298 921 l 374 920 l 267 751 l 217 751 z "},"š":{"ha":488,"x_min":47,"x_max":454,"o":"m 319 -7 q 442 45 418 -7 q 454 115 454 72 l 454 241 q 393 354 454 332 q 319 363 365 363 l 119 363 q 110 373 111 366 l 110 612 q 119 621 113 620 l 427 621 l 427 671 l 183 671 q 60 620 84 671 q 47 549 47 593 l 47 437 q 109 324 47 346 q 183 315 137 315 l 382 315 q 392 305 391 312 l 392 53 q 382 43 389 45 l 56 43 l 56 -7 l 319 -7 m 222 758 l 298 758 l 420 921 l 357 921 l 260 791 l 174 921 l 107 921 l 222 758 z "},"§":{"ha":590,"x_min":68,"x_max":522,"o":"m 522 27 l 522 324 q 486 418 522 392 q 422 450 468 431 l 151 566 q 133 590 134 575 l 133 791 q 149 807 136 806 l 505 807 l 505 861 l 222 865 q 68 722 72 860 l 68 425 q 104 331 68 357 q 168 298 122 317 l 439 183 q 457 159 456 174 l 457 -42 q 441 -58 454 -57 l 85 -58 l 85 -113 l 368 -117 q 522 27 518 -111 m 157 369 q 134 397 136 378 q 133 419 133 406 l 133 509 l 433 380 q 456 351 454 370 q 457 330 457 343 l 457 241 l 157 369 z "},";":{"ha":285,"x_min":95,"x_max":183,"o":"m 95 3 l 127 3 q 98 -84 121 -46 l 127 -110 q 183 20 183 -50 l 183 118 l 95 118 l 95 3 m 183 365 l 183 483 l 95 483 l 95 365 l 183 365 z "},"අ":{"ha":735,"x_min":30,"x_max":669,"o":"m 437 582 q 499 671 437 659 q 521 674 510 674 l 669 674 l 669 632 l 620 632 q 602 618 604 631 q 629 572 602 614 q 665 475 665 519 l 665 342 q 597 270 662 271 l 487 270 l 487 43 l 662 43 l 662 0 l 487 0 l 487 -190 l 437 -190 l 437 0 l 95 0 q 33 39 41 0 q 30 69 30 52 l 30 403 q 104 479 33 477 l 308 479 l 308 574 q 264 631 308 627 q 247 632 256 632 l 30 632 l 30 674 l 260 674 q 358 585 357 671 l 358 435 l 119 435 q 81 407 85 435 q 80 389 80 400 l 80 80 q 99 45 80 47 q 110 43 104 43 l 437 43 l 437 582 m 487 313 l 581 313 q 613 338 610 313 q 614 351 614 345 l 614 475 q 575 566 614 507 q 549 621 549 604 q 552 632 549 627 q 491 606 502 632 q 487 579 487 594 l 487 313 z "},"ආ":{"ha":1061,"x_min":30,"x_max":1012,"o":"m 437 582 q 499 671 437 659 q 521 674 510 674 l 669 674 l 669 632 l 620 632 q 602 618 604 631 q 629 572 602 614 q 665 475 665 519 l 665 342 q 597 270 662 271 l 487 270 l 487 43 l 662 43 l 662 0 l 487 0 l 487 -190 l 437 -190 l 437 0 l 95 0 q 33 39 41 0 q 30 69 30 52 l 30 403 q 104 479 33 477 l 308 479 l 308 574 q 264 631 308 627 q 247 632 256 632 l 30 632 l 30 674 l 260 674 q 358 585 357 671 l 358 435 l 119 435 q 81 407 85 435 q 80 389 80 400 l 80 80 q 99 45 80 47 q 110 43 104 43 l 437 43 l 437 582 m 487 313 l 581 313 q 613 338 610 313 q 614 351 614 345 l 614 475 q 575 566 614 507 q 549 621 549 604 q 552 632 549 627 q 491 606 502 632 q 487 579 487 594 l 487 313 m 780 674 l 956 674 q 1012 617 1010 671 l 1012 52 q 956 0 1009 1 l 780 0 l 780 43 l 940 43 q 962 69 960 46 l 962 609 q 939 632 959 631 l 780 632 l 780 674 z "},"ඈ":{"ha":1085,"x_min":30,"x_max":1028,"o":"m 437 582 q 499 671 437 659 q 521 674 510 674 l 669 674 l 669 632 l 620 632 q 602 618 604 631 q 629 572 602 614 q 665 475 665 519 l 665 342 q 597 270 662 271 l 487 270 l 487 43 l 662 43 l 662 0 l 487 0 l 487 -190 l 437 -190 l 437 0 l 95 0 q 33 39 41 0 q 30 69 30 52 l 30 403 q 104 479 33 477 l 308 479 l 308 574 q 264 631 308 627 q 247 632 256 632 l 30 632 l 30 674 l 260 674 q 358 585 357 671 l 358 435 l 119 435 q 81 407 85 435 q 80 389 80 400 l 80 80 q 99 45 80 47 q 110 43 104 43 l 437 43 l 437 582 m 487 313 l 581 313 q 613 338 610 313 q 614 351 614 345 l 614 475 q 575 566 614 507 q 549 621 549 604 q 552 632 549 627 q 491 606 502 632 q 487 579 487 594 l 487 313 m 781 674 l 1028 674 l 1028 632 l 857 490 l 1028 490 l 1028 448 l 867 308 q 833 256 837 281 q 831 229 831 245 l 831 69 q 841 45 831 46 q 854 43 846 43 l 1028 43 l 1028 0 l 822 0 q 781 49 781 0 l 781 237 q 815 328 781 297 q 819 332 818 331 l 955 446 l 781 446 l 781 486 l 955 631 l 781 631 l 781 674 z "},"ඇ":{"ha":1092,"x_min":30,"x_max":1038,"o":"m 793 674 l 1038 674 l 1038 629 l 863 368 q 844 290 844 339 l 844 69 q 871 43 846 45 l 1038 43 l 1038 0 l 841 0 q 793 49 795 3 l 793 283 q 818 388 795 351 l 979 631 l 793 631 l 793 674 m 437 582 q 499 671 437 659 q 521 674 510 674 l 669 674 l 669 632 l 620 632 q 602 618 604 631 q 629 572 602 614 q 665 475 665 519 l 665 342 q 597 270 662 271 l 487 270 l 487 43 l 662 43 l 662 0 l 487 0 l 487 -190 l 437 -190 l 437 0 l 95 0 q 33 39 41 0 q 30 69 30 52 l 30 403 q 104 479 33 477 l 308 479 l 308 574 q 264 631 308 627 q 247 632 256 632 l 30 632 l 30 674 l 260 674 q 358 585 357 671 l 358 435 l 119 435 q 81 407 85 435 q 80 389 80 400 l 80 80 q 99 45 80 47 q 110 43 104 43 l 437 43 l 437 582 m 487 313 l 581 313 q 613 338 610 313 q 614 351 614 345 l 614 475 q 575 566 614 507 q 549 621 549 604 q 552 632 549 627 q 491 606 502 632 q 487 579 487 594 l 487 313 z "},"ඓ":{"ha":1237,"x_min":30,"x_max":1185,"o":"m 785 857 l 785 693 q 803 663 785 666 q 821 662 810 662 l 1135 662 l 1135 670 q 1090 736 1135 712 q 1073 746 1086 739 l 887 844 q 804 857 859 857 l 785 857 m 1185 670 l 1185 69 q 1137 1 1185 9 q 1123 0 1130 0 l 648 0 q 583 60 585 3 l 583 243 q 624 324 585 302 l 537 324 l 537 368 l 864 368 l 864 464 q 821 509 859 507 l 587 509 l 587 552 l 833 552 q 914 469 913 549 l 914 324 l 750 324 q 636 258 648 324 q 635 235 635 247 l 635 76 q 655 45 635 47 q 667 43 662 43 l 1105 43 q 1135 81 1134 46 l 1135 618 l 798 618 q 738 654 747 618 q 735 684 735 667 l 735 857 l 640 857 l 640 901 l 807 901 q 916 878 868 901 q 922 875 920 876 l 1090 788 q 1177 716 1161 757 q 1185 670 1185 694 m 442 674 l 102 674 q 31 620 41 674 q 30 604 30 612 l 30 62 q 92 0 33 1 l 380 0 q 449 66 446 4 l 449 370 q 377 438 446 437 l 228 438 l 228 395 l 358 395 q 397 366 395 395 q 399 353 399 359 l 399 76 q 365 43 396 45 l 107 43 q 80 76 81 46 l 80 590 q 122 631 90 628 l 442 631 l 442 674 z "},"ඖ":{"ha":1176,"x_min":30,"x_max":1123,"o":"m 736 674 l 736 403 q 781 358 739 359 l 891 358 q 948 406 947 361 l 948 598 q 974 631 958 628 l 1046 631 q 1073 601 1072 628 l 1073 80 q 1042 45 1070 46 l 819 45 q 787 79 788 47 l 787 201 l 736 201 l 736 65 q 791 1 742 5 l 1058 1 q 1122 50 1114 1 q 1123 64 1123 57 l 1123 618 q 1086 671 1123 658 q 1066 674 1077 674 l 947 674 q 897 614 901 666 l 897 429 q 867 403 884 404 l 814 403 q 788 414 791 403 q 787 429 787 420 l 787 674 l 736 674 m 382 342 l 263 342 q 216 382 217 345 l 216 560 q 198 579 213 578 l 119 579 q 80 529 81 576 l 80 85 q 98 46 80 50 q 117 43 106 43 l 247 43 q 300 81 292 43 q 301 106 301 94 l 301 239 l 351 239 l 351 106 q 408 43 363 49 l 536 43 q 574 84 570 56 l 574 749 q 514 806 560 802 l 30 806 l 30 849 l 525 849 q 624 760 623 846 l 624 68 q 560 0 621 1 l 393 0 q 327 38 338 1 q 263 0 313 3 l 94 0 q 30 65 31 3 l 30 534 q 110 623 33 621 l 210 623 q 266 575 264 620 l 266 408 q 285 385 269 387 l 365 385 q 385 408 384 388 l 385 623 l 435 623 l 435 389 q 382 342 433 343 z "},"බ":{"ha":699,"x_min":30,"x_max":624,"o":"m 521 848 l 30 848 l 30 804 l 510 804 q 570 770 560 804 q 574 734 574 755 l 574 79 q 555 45 574 47 q 545 43 549 43 l 376 43 q 342 69 346 43 q 342 84 342 76 l 342 564 q 267 637 339 636 l 106 637 q 30 563 31 635 l 30 73 q 75 1 30 11 q 98 0 85 0 l 233 0 l 233 43 l 111 43 q 81 65 84 43 q 80 81 80 72 l 80 555 q 115 594 88 591 l 255 594 q 290 555 289 591 l 292 73 q 362 0 302 4 l 556 0 q 623 47 614 0 q 624 73 624 60 l 624 743 q 541 846 624 838 q 521 848 532 848 z "},"භ":{"ha":803,"x_min":-8,"x_max":735,"o":"m 30 69 q 65 3 30 14 q 95 0 79 0 l 372 0 q 457 41 444 0 q 463 81 463 58 l 463 335 q 407 391 458 388 l 357 391 l 396 586 q 454 631 411 627 l 639 631 q 684 602 678 631 q 685 586 685 594 l 685 96 q 661 45 685 52 q 640 43 651 43 l 517 43 l 517 0 l 650 0 q 728 37 715 0 q 735 87 735 56 l 735 589 q 673 673 735 662 q 644 674 659 674 l 444 674 q 349 605 363 673 l 296 347 l 388 347 q 412 316 411 345 l 412 85 q 369 43 403 46 l 106 43 q 80 79 80 46 l 80 370 q 140 438 83 437 l 260 438 l 260 585 q 190 671 260 658 q 163 674 176 674 l 30 674 l 30 631 l 153 631 q 210 579 209 628 l 210 481 l -8 481 l -8 438 l 61 438 q 30 382 31 422 l 30 69 z "},"ච":{"ha":731,"x_min":-8,"x_max":685,"o":"m 582 848 l 91 848 l 91 804 l 571 804 q 631 770 621 804 q 635 734 635 755 l 635 84 q 602 43 628 46 l 174 43 q 141 80 142 49 l 141 298 q 227 376 144 374 l 387 376 l 387 567 q 317 637 384 636 l 91 637 l 91 594 l 302 594 q 336 567 335 591 l 336 419 l -8 419 l -8 376 l 122 376 q 91 307 92 353 l 91 73 q 136 1 91 11 q 159 0 146 0 l 617 0 q 684 47 675 0 q 685 73 685 60 l 685 743 q 602 846 685 838 q 582 848 593 848 z "},"ඡ":{"ha":696,"x_min":30,"x_max":689,"o":"m 335 583 q 365 628 335 614 q 380 631 373 631 l 538 631 q 575 587 574 628 l 575 446 q 515 368 572 369 l 359 368 q 335 399 336 378 l 335 583 m 98 0 l 557 0 q 624 47 616 0 q 625 73 625 60 l 625 245 q 593 342 625 315 q 583 349 587 346 q 625 450 625 378 l 625 591 q 551 674 623 673 l 442 674 q 484 703 457 681 l 689 872 l 623 872 l 423 712 q 354 671 389 685 q 317 648 334 665 q 248 674 294 674 l 31 674 l 31 631 l 239 631 q 286 593 285 628 l 286 481 l 106 481 q 30 407 31 479 l 30 73 q 75 1 30 11 q 98 0 85 0 m 113 43 q 81 69 84 43 q 80 87 80 77 l 80 401 q 117 438 83 437 l 286 438 l 286 382 q 346 323 297 327 l 514 323 q 575 258 574 320 l 575 84 q 543 43 567 46 l 113 43 z "},"ද":{"ha":624,"x_min":30,"x_max":585,"o":"m 553 0 l 288 0 q 203 -45 221 0 q 198 -71 198 -57 l 198 -160 q 231 -190 205 -189 l 585 -190 l 585 -232 l 218 -232 q 148 -171 149 -229 l 148 -65 q 187 0 149 -20 l 90 0 q 30 53 35 0 q 30 68 30 61 l 30 401 q 109 479 33 477 l 498 479 l 498 591 q 461 631 495 629 l 30 631 l 30 674 l 476 674 q 548 602 547 671 l 548 435 l 123 435 q 80 393 81 430 l 80 79 q 111 43 83 45 l 553 43 l 553 0 z "},"ඩ":{"ha":696,"x_min":-8,"x_max":624,"o":"m -8 479 l -8 435 l 66 435 q 30 361 31 414 l 30 73 q 68 3 30 12 q 95 0 80 0 l 263 0 q 326 35 315 0 q 327 38 327 37 q 393 0 338 1 l 560 0 q 624 68 623 3 l 624 760 q 525 849 621 848 l 30 849 l 30 806 l 514 806 q 574 749 570 795 l 574 84 q 547 45 574 47 q 536 43 541 43 l 408 43 q 353 88 358 43 q 351 106 351 96 l 351 239 l 301 239 l 301 106 q 260 45 301 49 q 247 43 254 43 l 107 43 q 80 76 81 46 l 80 342 q 172 435 83 434 l 330 435 l 330 597 q 245 674 327 673 l 31 674 l 31 631 l 232 631 q 281 590 278 625 l 281 479 l -8 479 z "},"ඪ":{"ha":696,"x_min":-8,"x_max":624,"o":"m 354 806 l 524 806 q 572 776 567 806 q 574 757 574 768 l 574 623 l 385 623 q 355 636 359 623 q 354 654 354 644 l 354 806 m -8 373 l -8 330 l 66 330 q 30 255 31 308 l 30 73 q 68 3 30 12 q 95 0 80 0 l 263 0 q 326 35 315 0 q 327 38 327 37 q 393 0 338 1 l 560 0 q 624 68 623 3 l 624 758 q 581 844 624 830 q 534 849 562 849 l 216 849 l 216 807 l 304 807 l 304 643 q 342 582 304 590 q 366 579 353 579 l 574 579 l 574 84 q 547 45 574 47 q 536 43 541 43 l 408 43 q 353 88 358 43 q 351 106 351 96 l 351 199 l 301 199 l 301 106 q 260 45 301 49 q 247 43 254 43 l 107 43 q 80 76 81 46 l 80 236 q 172 330 83 328 l 330 330 l 330 491 q 245 568 327 567 l 31 568 l 31 525 l 232 525 q 281 484 278 519 l 281 373 l -8 373 z "},"ධ":{"ha":699,"x_min":30,"x_max":625,"o":"m 335 631 l 126 631 q 80 582 81 628 l 80 79 q 111 43 83 45 l 239 43 q 301 137 301 46 l 301 332 l 351 332 l 351 137 q 420 43 354 45 l 545 43 q 575 81 574 46 l 575 751 q 532 806 575 800 q 515 807 524 807 l 30 807 l 30 849 l 526 849 q 625 760 624 846 l 625 68 q 562 0 623 1 l 393 0 q 327 50 339 3 q 285 3 321 16 q 263 0 273 0 l 94 0 q 30 65 31 3 l 30 586 q 110 674 33 673 l 335 674 l 335 631 z "},"එ":{"ha":724,"x_min":5,"x_max":654,"o":"m 254 857 l 254 693 q 271 663 254 666 q 289 662 278 662 l 604 662 l 604 670 q 559 736 604 712 q 541 746 555 739 l 355 844 q 273 857 327 857 l 254 857 m 654 670 l 654 69 q 605 1 654 9 q 591 0 598 0 l 117 0 q 52 60 53 3 l 52 243 q 92 324 53 302 l 5 324 l 5 368 l 332 368 l 332 464 q 289 509 327 507 l 56 509 l 56 552 l 301 552 q 382 469 381 549 l 382 324 l 218 324 q 104 258 117 324 q 103 235 103 247 l 103 76 q 123 45 103 47 q 136 43 130 43 l 574 43 q 604 81 602 46 l 604 618 l 266 618 q 206 654 216 618 q 203 684 203 666 l 203 857 l 109 857 l 109 901 l 275 901 q 384 878 336 901 q 391 875 388 876 l 559 788 q 646 716 629 757 q 654 670 654 694 z "},"ඒ":{"ha":724,"x_min":5,"x_max":654,"o":"m 254 857 l 273 857 q 355 844 328 857 l 541 746 q 595 704 586 723 q 604 670 604 689 l 604 662 l 289 662 q 255 675 260 662 q 254 693 254 682 l 254 857 m 604 960 l 604 765 q 559 788 579 780 l 391 875 q 275 901 335 901 l 109 901 l 109 857 l 203 857 l 203 684 q 241 621 203 628 q 266 618 252 618 l 604 618 l 604 81 q 574 43 601 45 l 136 43 q 103 76 106 53 l 103 235 q 175 321 103 308 q 218 324 195 324 l 382 324 l 382 469 q 301 552 380 551 l 56 552 l 56 509 l 289 509 q 332 464 330 502 l 332 368 l 5 368 l 5 324 l 92 324 q 52 243 53 300 l 52 60 q 117 0 54 1 l 591 0 q 652 53 644 0 q 654 69 654 61 l 654 960 l 604 960 z "},"ෆ":{"ha":765,"x_min":30,"x_max":693,"o":"m 415 43 l 605 43 q 643 91 642 46 l 643 590 q 608 631 640 629 l 439 631 q 387 559 392 623 l 387 227 l 336 227 l 336 557 q 301 628 336 616 q 286 631 293 631 l 117 631 q 80 590 81 628 l 80 90 q 114 43 83 45 l 305 43 l 305 0 l 99 0 q 30 84 34 9 l 30 598 q 72 669 30 650 q 103 674 87 674 l 286 674 q 359 636 346 674 q 362 628 361 632 q 441 674 377 673 l 620 674 q 690 627 677 674 q 693 604 693 614 l 693 83 q 637 1 693 14 q 620 0 628 0 l 415 0 l 415 43 z "},"ග":{"ha":800,"x_min":30,"x_max":730,"o":"m 252 674 l 252 631 l 121 631 q 81 608 85 631 q 80 591 80 600 l 80 81 q 111 43 88 46 l 335 43 q 384 68 377 43 q 385 87 385 76 l 385 315 q 359 343 382 342 l 297 343 l 343 605 q 441 674 355 674 l 639 674 q 727 616 716 674 q 730 589 730 604 l 730 85 q 673 1 730 12 q 644 0 659 0 l 524 0 l 524 43 l 632 43 q 677 66 670 43 q 680 98 680 79 l 680 578 q 648 629 680 623 q 627 631 639 631 l 446 631 q 389 590 396 629 l 353 387 l 385 387 q 435 328 434 384 l 435 81 q 388 4 435 16 q 345 0 370 0 l 95 0 q 31 54 38 0 q 30 76 30 64 l 30 600 q 104 674 33 673 l 252 674 z "},"ඝ":{"ha":781,"x_min":-8,"x_max":692,"o":"m 444 0 l 624 0 q 690 47 682 0 q 692 73 692 60 l 692 404 q 616 479 689 477 l 442 479 l 442 590 q 491 631 445 629 l 690 631 l 690 674 l 477 674 q 393 597 395 671 l 393 435 l 610 435 q 642 407 639 431 l 642 76 q 616 43 640 45 l 464 43 q 426 71 430 43 q 425 90 425 79 l 425 119 q 445 155 425 136 q 450 159 449 157 q 487 195 483 187 q 490 213 490 203 l 490 274 q 454 312 483 307 l 264 312 q 229 274 233 305 l 229 213 q 250 174 229 193 q 258 168 252 172 q 269 159 264 161 q 293 119 292 133 l 293 90 q 277 46 293 53 q 254 43 267 43 l 106 43 q 80 76 81 46 l 80 342 q 172 435 83 434 l 330 435 l 330 597 q 245 674 327 673 l 31 674 l 31 631 l 232 631 q 281 590 278 625 l 281 479 l -8 479 l -8 435 l 66 435 q 30 361 31 414 l 30 73 q 75 1 30 11 q 98 0 85 0 l 274 0 q 338 39 323 0 q 343 65 343 52 l 343 130 q 311 182 342 156 q 279 217 282 205 q 279 231 279 222 l 279 256 q 294 269 282 267 l 423 269 q 439 256 438 266 l 439 231 q 426 197 439 209 q 408 182 419 191 q 374 130 376 155 l 374 65 q 423 3 374 16 q 444 0 434 0 z "},"හ":{"ha":800,"x_min":30,"x_max":730,"o":"m 80 81 q 102 45 80 47 q 111 43 107 43 l 339 43 q 388 68 381 43 q 389 87 389 76 l 389 315 q 363 343 387 342 l 301 343 l 347 605 q 445 674 359 674 l 639 674 q 727 616 716 674 q 730 589 730 604 l 730 87 q 678 3 730 15 q 644 0 663 0 l 524 0 l 524 43 l 636 43 q 678 73 673 43 q 680 94 680 83 l 680 578 q 648 629 680 623 q 627 631 639 631 l 450 631 q 393 590 400 629 l 357 387 l 389 387 q 439 328 438 384 l 439 81 q 392 4 439 16 q 349 0 374 0 l 95 0 q 30 69 33 8 l 30 404 q 104 479 33 477 l 202 479 l 202 575 q 163 629 202 624 q 148 631 156 631 l 30 631 l 30 674 l 163 674 q 252 585 252 674 l 252 435 l 121 435 q 81 412 85 435 q 80 396 80 404 l 80 81 z "},"්":{"ha":3,"x_min":-110,"x_max":-61,"o":"m -110 667 l -110 880 l -61 880 l -61 594 q -79 640 -73 629 q -107 667 -92 663 l -110 667 z "},"ඉ":{"ha":704,"x_min":30,"x_max":629,"o":"m 347 469 l 347 279 q 275 212 345 213 l 106 212 q 30 285 31 214 l 30 600 q 94 673 30 663 q 113 674 103 674 l 547 674 q 629 600 628 671 l 629 100 q 586 20 628 33 q 606 -43 606 3 l 606 -134 q 549 -214 606 -206 q 530 -216 540 -216 l 62 -216 l 62 -172 l 517 -172 q 555 -151 551 -172 q 556 -138 556 -145 l 556 -41 q 511 0 553 -1 l 64 0 l 64 43 l 495 43 q 574 72 562 43 q 579 102 579 84 l 579 593 q 536 631 571 628 l 127 631 q 80 593 81 628 l 80 296 q 100 258 80 263 q 123 255 110 255 l 267 255 q 297 294 296 259 l 297 469 l 347 469 z "},"ඊ":{"ha":612,"x_min":30,"x_max":534,"o":"m 30 65 q 92 0 39 4 l 460 0 q 533 61 528 0 q 534 83 534 71 l 534 594 q 452 674 532 673 l 159 674 l 429 899 l 358 899 l 85 675 q 30 583 34 621 l 30 65 m 80 566 q 134 631 81 629 l 435 631 q 486 594 479 631 q 487 575 487 585 l 487 87 q 467 45 487 49 q 450 43 460 43 l 129 43 q 83 60 90 43 q 80 96 80 72 l 80 566 m 98 899 l 168 899 l 168 826 l 98 826 l 98 899 m 425 804 l 495 804 l 495 731 l 425 731 l 425 804 z "},"ජ":{"ha":694,"x_min":30,"x_max":693,"o":"m 541 43 l 114 43 q 80 84 83 56 l 80 393 q 122 435 88 433 l 296 435 l 296 597 q 212 674 293 673 l 31 674 l 31 631 l 197 631 q 245 585 243 623 l 245 479 l 106 479 q 30 404 31 476 l 30 73 q 83 1 30 8 q 100 0 91 0 l 555 0 q 624 54 617 0 q 625 73 625 64 l 625 404 q 549 479 623 477 l 410 479 l 410 585 q 458 631 418 628 l 624 631 l 624 674 l 484 674 q 522 707 496 684 l 693 872 l 625 872 l 457 711 q 399 667 425 681 l 397 666 q 359 597 361 647 l 359 435 l 533 435 q 575 393 572 427 l 575 84 q 552 45 575 47 q 541 43 547 43 z "},"ඣ":{"ha":1241,"x_min":16,"x_max":1183,"o":"m 16 305 l 61 305 q 30 212 30 285 l 30 62 q 75 1 30 12 q 91 0 81 0 l 210 0 q 263 39 252 1 q 313 0 275 1 l 430 0 q 495 46 480 0 q 499 72 499 58 l 499 429 q 449 494 499 484 q 435 495 442 495 l 273 495 l 370 570 q 461 613 430 613 q 515 609 484 613 l 608 601 q 587 534 587 575 l 587 65 q 651 0 590 1 l 821 0 q 879 35 863 0 q 884 50 883 43 q 951 0 898 1 l 1119 0 q 1183 68 1181 3 l 1183 760 q 1084 849 1180 848 l 587 849 l 587 807 l 1073 807 q 1131 768 1124 807 q 1133 751 1133 760 l 1133 81 q 1103 43 1130 45 l 978 43 q 909 137 910 46 l 909 332 l 859 332 l 859 137 q 796 43 856 45 l 669 43 q 637 79 639 46 l 637 530 q 684 579 640 578 l 892 579 l 892 623 l 891 623 l 540 655 q 460 662 476 662 q 345 612 411 661 l 262 548 l 262 598 q 199 674 252 667 l 52 674 l 52 631 l 174 631 q 212 598 209 631 q 213 583 213 591 l 213 507 l 16 343 l 16 305 m 449 418 l 449 87 q 414 43 446 45 l 342 43 q 290 94 296 43 q 289 127 289 106 l 289 255 l 239 255 l 239 127 q 212 49 239 62 q 182 43 198 43 l 107 43 q 80 76 81 46 l 80 198 q 103 288 80 264 q 133 309 114 300 l 133 347 l 96 347 l 221 452 l 415 452 q 449 418 448 449 z "},"ඥ":{"ha":1364,"x_min":30,"x_max":1331,"o":"m 1299 0 l 1299 43 l 857 43 q 826 79 827 46 l 826 393 q 869 435 831 433 l 1294 435 l 1294 602 q 1222 674 1291 673 l 655 674 q 557 605 570 674 l 511 343 l 574 343 q 600 315 598 340 l 600 87 q 572 45 600 50 q 549 43 562 43 l 326 43 q 294 81 297 56 l 294 547 q 366 631 297 629 l 467 631 l 467 674 l 142 674 q 33 598 46 674 q 30 575 30 587 l 30 0 l 80 0 l 80 559 q 126 628 80 618 q 159 631 141 631 l 266 631 q 244 560 244 601 l 244 76 q 290 1 244 9 q 309 0 300 0 l 559 0 q 644 41 631 0 q 650 81 650 58 l 650 328 q 600 387 647 385 l 567 387 l 604 590 q 661 631 614 629 l 1207 631 q 1244 591 1242 628 l 1244 479 l 854 479 q 776 401 777 476 l 776 68 q 823 1 776 7 q 836 0 829 0 l 933 0 q 894 -65 895 -20 l 894 -171 q 964 -232 897 -231 l 1331 -232 l 1331 -190 l 977 -190 q 944 -160 947 -183 l 944 -71 q 1005 -3 944 -16 q 1034 0 1020 0 l 1299 0 z "},"ක":{"ha":803,"x_min":16,"x_max":730,"o":"m 449 418 q 415 452 446 450 l 221 452 l 96 347 l 133 347 l 133 309 q 83 248 90 286 q 80 198 80 229 l 80 76 q 107 43 83 45 l 182 43 q 237 98 232 43 q 239 127 239 110 l 239 255 l 289 255 l 289 127 q 312 50 289 64 q 342 43 326 43 l 414 43 q 449 87 449 46 l 449 418 m 262 548 l 372 640 q 460 674 412 674 l 654 674 q 727 621 713 674 q 730 598 730 609 l 730 73 q 680 3 730 16 q 659 0 670 0 l 524 0 l 524 43 l 644 43 q 680 85 678 46 l 680 586 q 636 631 677 629 l 483 631 q 397 598 435 629 l 273 495 l 435 495 q 498 446 487 495 q 499 429 499 438 l 499 72 q 450 3 499 16 q 430 0 439 0 l 313 0 q 263 39 274 3 q 210 0 251 1 l 91 0 q 31 47 41 0 q 30 62 30 56 l 30 212 q 61 305 31 286 l 16 305 l 16 343 l 213 507 l 213 583 q 186 629 213 625 q 174 631 179 631 l 52 631 l 52 674 l 199 674 q 260 616 252 674 q 262 598 262 606 l 262 548 z "},"ඛ":{"ha":701,"x_min":30,"x_max":624,"o":"m 30 587 l 30 65 q 88 0 33 1 l 180 0 l 180 43 l 110 43 q 80 77 81 49 l 80 583 q 119 631 83 629 l 302 631 q 339 589 338 628 l 339 294 l 231 -7 l 282 -7 l 319 92 q 362 35 330 66 q 429 0 400 1 l 562 0 q 623 56 616 0 q 624 69 624 62 l 624 768 q 559 846 624 831 q 529 849 544 849 l 30 849 l 30 806 l 513 806 q 574 755 571 799 l 574 85 q 543 43 571 45 l 452 43 q 346 138 397 43 q 339 152 342 146 l 389 288 l 389 600 q 313 674 382 670 l 110 674 q 31 609 43 674 q 30 587 30 598 z "},"ල":{"ha":755,"x_min":30,"x_max":684,"o":"m 326 65 l 326 380 l 214 380 l 214 423 l 488 423 l 488 380 l 376 380 l 376 76 q 408 43 378 45 l 601 43 q 633 90 632 46 l 633 570 q 587 631 631 629 l 121 631 q 80 579 81 628 l 80 -111 q 109 -174 80 -165 q 137 -178 119 -178 l 684 -178 l 684 -221 l 125 -221 q 30 -123 31 -218 l 30 589 q 76 669 30 648 q 103 674 90 674 l 601 674 q 674 623 652 674 q 684 581 684 602 l 684 83 q 613 0 681 1 l 392 0 q 327 52 335 0 q 326 65 326 60 z "},"ළ":{"ha":750,"x_min":30,"x_max":681,"o":"m 80 350 q 126 415 80 406 q 132 416 129 416 l 132 137 q 212 71 140 75 l 678 71 l 678 115 l 222 115 q 180 155 182 118 l 180 418 l 681 418 l 681 604 q 602 674 680 673 l 454 674 q 406 646 422 673 q 359 674 392 673 l 205 674 q 132 598 137 665 l 132 461 q 41 407 66 461 q 30 362 30 385 l 30 -100 q 136 -206 33 -205 l 681 -206 l 681 -163 l 148 -163 q 80 -92 84 -152 l 80 350 m 631 461 l 431 461 l 431 591 q 464 631 434 629 l 597 631 q 631 594 629 628 l 631 461 m 182 461 l 182 593 q 213 631 184 629 l 353 631 q 381 591 380 628 l 381 461 l 182 461 z "},"ම":{"ha":699,"x_min":30,"x_max":624,"o":"m 521 848 l 30 848 l 30 804 l 510 804 q 570 770 560 804 q 574 734 574 755 l 574 88 q 536 43 571 45 l 113 43 q 80 85 81 46 l 80 232 l 336 232 q 406 289 399 232 q 407 309 407 298 l 407 568 q 327 637 404 636 l 113 637 q 33 579 45 637 q 30 559 30 570 l 30 77 q 102 0 33 1 l 548 0 q 624 80 623 3 l 624 743 q 541 846 624 838 q 521 848 532 848 m 80 552 q 118 593 83 591 l 319 593 q 357 557 355 590 l 357 313 q 328 277 354 278 l 80 277 l 80 552 z "},"ා":{"ha":315,"x_min":28,"x_max":260,"o":"m 28 674 l 205 674 q 260 617 259 671 l 260 52 q 205 0 258 1 l 28 0 l 28 43 l 189 43 q 210 69 210 46 l 210 609 q 189 632 208 631 l 28 632 l 28 674 z "},"ෑ":{"ha":336,"x_min":30,"x_max":277,"o":"m 30 674 l 277 674 l 277 632 l 106 490 l 277 490 l 277 448 l 115 308 q 81 256 85 281 q 80 229 80 245 l 80 69 q 87 45 80 47 q 103 43 94 43 l 277 43 l 277 0 l 71 0 q 30 49 30 0 l 30 237 q 64 328 30 297 q 68 332 66 331 l 202 446 l 30 446 l 30 486 l 203 631 l 30 631 l 30 674 z "},"ැ":{"ha":339,"x_min":30,"x_max":274,"o":"m 30 674 l 274 674 l 274 629 l 99 368 q 80 290 80 339 l 80 69 q 107 43 83 45 l 274 43 l 274 0 l 77 0 q 30 49 31 3 l 30 283 q 54 388 31 351 l 216 631 l 30 631 l 30 674 z "},"ෛ":{"ha":1019,"x_min":30,"x_max":964,"o":"m 442 674 l 102 674 q 31 620 41 674 q 30 604 30 612 l 30 62 q 92 0 33 1 l 380 0 q 449 66 446 4 l 449 370 q 377 438 446 437 l 228 438 l 228 395 l 358 395 q 397 366 395 395 q 399 353 399 359 l 399 76 q 365 43 396 45 l 107 43 q 80 76 81 46 l 80 590 q 122 631 90 628 l 442 631 l 442 674 m 958 674 l 617 674 q 547 620 556 674 q 545 604 545 612 l 545 62 q 608 0 548 1 l 895 0 q 964 66 962 4 l 964 370 q 892 438 962 437 l 743 438 l 743 395 l 873 395 q 913 366 910 395 q 914 353 914 359 l 914 76 q 880 43 911 45 l 623 43 q 595 76 597 46 l 595 590 q 637 631 605 628 l 958 631 l 958 674 z "},"ෞ":{"ha":2049,"x_min":30,"x_max":1881,"o":"m 442 674 l 102 674 q 31 620 41 674 q 30 604 30 612 l 30 62 q 92 0 33 1 l 380 0 q 449 66 446 4 l 449 370 q 377 438 446 437 l 228 438 l 228 395 l 358 395 q 397 366 395 395 q 399 353 399 359 l 399 76 q 365 43 396 45 l 107 43 q 80 76 81 46 l 80 590 q 122 631 90 628 l 442 631 l 442 674 m 1495 674 l 1495 403 q 1539 358 1497 359 l 1649 358 q 1706 406 1702 366 l 1706 598 q 1732 631 1716 628 l 1804 631 q 1831 601 1830 628 l 1831 79 q 1800 43 1828 45 l 1577 43 q 1545 77 1546 46 l 1545 199 l 1495 199 l 1495 64 q 1549 0 1500 4 l 1816 0 q 1880 49 1872 0 q 1881 62 1881 56 l 1881 618 q 1845 671 1881 658 q 1824 674 1835 674 l 1705 674 q 1655 614 1659 666 l 1655 427 q 1625 401 1645 403 l 1572 401 q 1546 415 1549 401 q 1545 427 1545 422 l 1545 674 l 1495 674 z "},"ෙ":{"ha":510,"x_min":30,"x_max":449,"o":"m 442 674 l 102 674 q 31 620 41 674 q 30 604 30 612 l 30 62 q 92 0 33 1 l 380 0 q 449 66 446 4 l 449 370 q 377 438 446 437 l 228 438 l 228 395 l 358 395 q 397 366 395 395 q 399 353 399 359 l 399 76 q 365 43 396 45 l 107 43 q 80 76 81 46 l 80 590 q 122 631 90 628 l 442 631 l 442 674 z "},"ේ":{"ha":1469,"x_min":30,"x_max":1336,"o":"m 442 674 l 102 674 q 31 620 41 674 q 30 604 30 612 l 30 62 q 92 0 33 1 l 380 0 q 449 66 446 4 l 449 370 q 377 438 446 437 l 228 438 l 228 395 l 358 395 q 397 366 395 395 q 399 353 399 359 l 399 76 q 365 43 396 45 l 107 43 q 80 76 81 46 l 80 590 q 122 631 90 628 l 442 631 l 442 674 m 1287 667 l 1287 880 l 1336 880 l 1336 594 q 1318 640 1324 629 q 1290 667 1305 663 l 1287 667 z "},"ි":{"ha":3,"x_min":-761,"x_max":-91,"o":"m -761 693 l -761 808 q -701 868 -758 867 l -146 868 q -91 810 -92 865 l -91 693 l -141 693 l -141 796 q -168 825 -144 823 l -686 825 q -711 798 -709 822 l -711 693 l -761 693 z "},"ී":{"ha":699,"x_min":-753,"x_max":-80,"o":"m -330 825 q -350 808 -350 825 l -350 772 q -334 754 -347 755 l -146 754 q -130 773 -130 757 l -130 803 q -153 825 -133 823 l -330 825 m -677 825 q -703 800 -701 822 l -703 693 l -753 693 l -753 808 q -692 868 -750 867 l -137 868 q -80 814 -81 865 l -80 751 q -121 711 -80 711 l -363 711 q -400 746 -399 715 l -400 814 q -397 825 -399 823 l -677 825 z "},"ෳ":{"ha":481,"x_min":30,"x_max":416,"o":"m 30 674 l 30 403 q 75 358 33 359 l 184 358 q 241 406 237 366 l 241 598 q 267 631 251 628 l 339 631 q 366 601 365 628 l 366 79 q 335 43 363 45 l 113 43 q 80 77 81 46 l 80 199 l 30 199 l 30 64 q 84 0 35 4 l 351 0 q 415 49 407 0 q 416 62 416 56 l 416 618 q 380 671 416 658 q 359 674 370 674 l 240 674 q 190 614 194 666 l 190 427 q 160 401 180 403 l 107 401 q 81 415 84 401 q 80 427 80 422 l 80 674 l 30 674 z "},"ෟ":{"ha":481,"x_min":30,"x_max":416,"o":"m 30 674 l 30 403 q 75 358 33 359 l 184 358 q 241 406 237 366 l 241 598 q 267 631 251 628 l 339 631 q 366 601 365 628 l 366 79 q 335 43 363 45 l 113 43 q 80 77 81 46 l 80 199 l 30 199 l 30 64 q 84 0 35 4 l 351 0 q 415 49 407 0 q 416 62 416 56 l 416 618 q 380 671 416 658 q 359 674 370 674 l 240 674 q 190 614 194 666 l 190 427 q 160 401 180 403 l 107 401 q 81 415 84 401 q 80 427 80 422 l 80 674 l 30 674 z "},"ො":{"ha":1522,"x_min":30,"x_max":1375,"o":"m 442 674 l 102 674 q 31 620 41 674 q 30 604 30 612 l 30 62 q 92 0 33 1 l 380 0 q 449 66 446 4 l 449 370 q 377 438 446 437 l 228 438 l 228 395 l 358 395 q 397 366 395 395 q 399 353 399 359 l 399 76 q 365 43 396 45 l 107 43 q 80 76 81 46 l 80 590 q 122 631 90 628 l 442 631 l 442 674 m 1143 674 l 1320 674 q 1375 617 1374 671 l 1375 52 q 1320 0 1373 1 l 1143 0 l 1143 43 l 1303 43 q 1325 69 1325 46 l 1325 609 q 1303 632 1322 631 l 1143 632 l 1143 674 z "},"ෝ":{"ha":1461,"x_min":30,"x_max":1303,"o":"m 442 674 l 102 674 q 31 620 41 674 q 30 604 30 612 l 30 62 q 92 0 33 1 l 380 0 q 449 66 446 4 l 449 370 q 377 438 446 437 l 228 438 l 228 395 l 358 395 q 397 366 395 395 q 399 353 399 359 l 399 76 q 365 43 396 45 l 107 43 q 80 76 81 46 l 80 590 q 122 631 90 628 l 442 631 l 442 674 m 1072 674 l 1072 632 l 1232 632 q 1253 609 1252 629 l 1253 69 q 1232 43 1251 45 l 1072 43 l 1072 0 l 1248 0 q 1303 52 1302 3 l 1303 880 l 1253 880 l 1253 674 l 1248 674 l 1072 674 z "},"ෘ":{"ha":469,"x_min":30,"x_max":404,"o":"m 30 674 l 338 674 q 404 610 403 671 l 404 0 l 372 0 l 359 53 q 288 0 336 1 l 80 0 q 30 57 31 3 l 30 380 q 77 437 30 431 q 88 438 83 438 l 354 438 l 354 595 q 334 629 354 627 q 320 631 328 631 l 30 631 l 30 674 m 354 395 l 104 395 q 81 377 83 395 q 80 365 80 370 l 80 69 q 94 45 80 47 q 104 43 99 43 l 255 43 q 351 138 338 43 q 354 189 354 161 l 354 395 z "},"ෲ":{"ha":921,"x_min":30,"x_max":849,"o":"m 30 674 l 338 674 q 404 610 403 671 l 404 0 l 372 0 l 359 53 q 288 0 336 1 l 80 0 q 30 57 31 3 l 30 380 q 77 437 30 431 q 88 438 83 438 l 354 438 l 354 595 q 334 629 354 627 q 320 631 328 631 l 30 631 l 30 674 m 354 395 l 104 395 q 81 377 83 395 q 80 365 80 370 l 80 69 q 94 45 80 47 q 104 43 99 43 l 255 43 q 351 138 338 43 q 354 189 354 161 l 354 395 m 475 674 l 783 674 q 849 610 848 671 l 849 0 l 817 0 l 804 53 q 732 0 781 1 l 525 0 q 475 57 476 3 l 475 380 q 522 437 475 431 q 533 438 528 438 l 799 438 l 799 595 q 779 629 799 627 q 765 631 772 631 l 475 631 l 475 674 m 799 395 l 549 395 q 526 377 528 395 q 525 365 525 370 l 525 69 q 538 45 525 47 q 549 43 544 43 l 700 43 q 796 138 783 43 q 799 189 799 161 l 799 395 z "},"ු":{"ha":3,"x_min":-663,"x_max":-73,"o":"m -73 -216 l -663 -216 l -663 -172 l -123 -172 l -123 38 l -117 38 q -80 66 -95 38 q -73 87 -76 76 l -73 -216 z "},"ූ":{"ha":3,"x_min":-681,"x_max":-87,"o":"m -87 -216 l -129 -216 q -161 -180 -142 -194 q -225 -163 -187 -163 l -302 -163 q -372 -180 -327 -163 l -435 -206 q -543 -221 -476 -221 l -616 -221 q -681 -165 -680 -218 l -681 -39 l -631 -39 l -631 -153 q -608 -178 -628 -176 l -534 -178 q -439 -161 -480 -178 l -387 -140 q -305 -119 -342 -119 l -220 -119 q -153 -137 -182 -119 q -137 -149 -140 -146 l -137 47 l -119 47 q -94 76 -106 47 q -87 104 -90 90 l -87 -216 z "},"ඹ":{"ha":699,"x_min":30,"x_max":624,"o":"m 80 559 q 118 594 83 593 l 286 594 q 326 563 324 591 l 326 469 q 294 431 324 433 l 80 431 l 80 559 m 30 73 q 73 1 30 9 q 91 0 81 0 l 245 0 q 304 38 288 0 q 309 64 309 52 l 309 133 q 302 159 309 146 q 287 178 294 172 q 269 190 279 183 l 256 197 q 222 229 227 217 q 221 237 221 233 l 221 262 q 240 277 222 275 l 415 277 q 433 262 431 274 l 433 237 q 397 198 431 218 q 349 149 357 175 q 346 133 346 141 l 346 64 q 384 5 346 22 q 410 0 397 0 l 563 0 q 623 50 616 0 q 624 73 624 61 l 624 743 q 541 846 624 838 q 521 848 532 848 l 30 848 l 30 804 l 510 804 q 570 770 560 804 q 574 734 574 755 l 574 77 q 547 43 571 45 l 423 43 q 396 69 397 46 l 396 122 q 427 167 397 148 q 435 171 429 168 q 483 225 481 197 l 483 281 q 442 320 481 319 l 210 320 q 171 281 172 317 l 171 225 q 174 210 171 217 q 182 197 178 202 q 193 186 186 191 q 204 178 199 180 q 216 171 209 175 l 222 167 q 259 121 258 142 l 259 68 q 229 43 258 43 l 102 43 q 80 77 81 46 l 80 388 l 305 388 q 374 445 368 388 q 376 465 376 454 l 376 568 q 296 637 373 636 l 113 637 q 33 583 47 637 q 30 560 30 571 l 30 73 z "},"න":{"ha":802,"x_min":30,"x_max":730,"o":"m 392 0 q 477 39 463 0 q 483 81 483 57 l 483 374 q 431 439 483 434 q 418 439 425 439 l 290 439 l 422 590 q 488 629 452 625 q 514 631 500 631 l 629 631 q 680 583 677 625 l 680 96 q 659 46 680 54 q 637 43 650 43 l 524 43 l 524 0 l 644 0 q 724 43 712 0 q 730 91 730 62 l 730 589 q 667 673 730 662 q 639 674 654 674 l 481 674 q 378 610 433 674 q 366 597 374 606 l 289 509 l 289 595 q 250 670 289 658 q 212 674 233 674 l 30 674 l 30 631 l 199 631 q 241 586 237 618 l 241 454 l 117 311 q 92 294 102 294 q 80 300 85 296 l 80 463 l 30 463 l 30 69 q 65 3 30 14 q 95 0 79 0 l 392 0 m 134 260 l 252 396 l 397 396 q 433 362 431 393 l 433 90 q 412 46 433 53 q 388 43 401 43 l 111 43 q 81 64 84 43 q 80 76 80 69 l 80 244 q 99 240 88 240 q 134 260 118 241 z "},"ඳ":{"ha":841,"x_min":30,"x_max":803,"o":"m 772 0 l 772 43 l 330 43 q 298 79 300 46 l 298 393 q 342 435 304 433 l 766 435 l 766 602 q 694 674 764 673 l 142 674 q 33 598 46 674 q 30 575 30 587 l 30 0 l 80 0 l 80 559 q 126 628 80 618 q 159 631 141 631 l 680 631 q 716 591 715 628 l 716 479 l 327 479 q 248 401 250 476 l 248 68 q 296 1 248 7 q 308 0 301 0 l 406 0 q 366 -65 368 -20 l 366 -171 q 437 -232 369 -231 l 803 -232 l 803 -190 l 449 -190 q 416 -160 419 -183 l 416 -71 q 477 -3 416 -16 q 506 0 492 0 l 772 0 z "},"ඦ":{"ha":926,"x_min":30,"x_max":913,"o":"m 761 43 l 334 43 q 300 84 302 56 l 300 393 q 342 435 308 433 l 515 435 l 515 597 q 431 674 513 673 l 142 674 q 33 598 46 674 q 30 575 30 587 l 30 0 l 80 0 l 80 559 q 126 628 80 618 q 159 631 141 631 l 416 631 q 465 585 463 623 l 465 479 l 326 479 q 250 404 251 476 l 250 73 q 302 1 250 8 q 320 0 311 0 l 774 0 q 844 54 837 0 q 845 73 845 64 l 845 404 q 769 479 842 477 l 629 479 l 629 585 q 678 631 637 628 l 844 631 l 844 674 l 704 674 q 742 707 716 684 l 913 872 l 845 872 l 677 711 q 620 667 643 681 q 579 597 581 650 l 579 435 l 753 435 q 795 393 792 427 l 795 84 q 772 45 795 47 q 761 43 766 43 z "},"ඞ":{"ha":784,"x_min":30,"x_max":708,"o":"m 30 572 q 103 639 38 635 l 358 639 q 438 590 427 639 q 442 556 442 575 l 442 320 l 232 320 q 168 289 178 320 q 164 248 164 274 l 164 76 q 191 43 167 45 l 331 43 q 384 81 376 43 q 385 106 385 94 l 385 239 l 435 239 l 435 106 q 492 43 448 49 l 620 43 q 658 84 654 56 l 658 749 q 598 806 644 802 l 114 806 l 114 849 l 609 849 q 708 760 707 846 l 708 68 q 644 0 705 1 l 477 0 q 411 38 422 1 q 347 0 397 3 l 179 0 q 117 43 125 0 q 114 73 114 57 l 114 271 q 165 357 114 335 q 203 363 183 363 l 393 363 l 393 547 q 366 593 393 586 q 350 594 358 594 l 262 594 q 271 579 271 590 l 271 467 q 233 429 267 431 l 92 429 q 30 492 31 431 l 30 572 m 80 570 l 80 498 q 103 472 83 473 l 199 472 q 221 492 220 477 l 221 576 q 208 594 220 591 l 114 594 q 80 570 81 591 z "},"ණ":{"ha":1146,"x_min":30,"x_max":1078,"o":"m 498 43 l 205 43 q 170 79 175 43 q 168 129 168 94 q 127 201 167 197 l 191 285 l 378 285 l 378 328 l 224 328 l 453 631 l 488 631 q 548 575 536 631 q 551 556 551 564 l 551 109 q 498 43 548 45 m 510 674 l 487 674 l 609 836 l 549 836 l 426 674 l 163 674 q 80 601 81 671 l 80 387 q 127 292 80 316 q 133 289 132 290 l 30 153 l 30 88 l 92 160 q 121 132 117 160 q 122 111 122 122 q 149 5 122 22 q 172 0 160 0 l 503 0 q 601 102 600 3 l 601 556 q 637 627 601 610 q 656 631 647 631 l 735 631 q 787 548 785 628 l 787 245 l 838 245 l 838 548 q 876 625 838 606 q 895 631 886 631 l 985 631 q 1027 594 1023 631 q 1028 572 1028 585 l 1028 81 q 1008 45 1028 49 q 994 43 1001 43 l 656 43 l 656 0 l 979 0 q 1078 88 1073 12 l 1078 595 q 996 674 1076 673 l 891 674 q 812 629 833 673 q 747 674 799 673 l 650 674 q 576 633 597 673 q 510 674 555 673 m 132 401 l 132 590 q 174 631 134 629 l 393 631 l 164 330 q 132 401 133 343 z "},"ඬ":{"ha":945,"x_min":30,"x_max":871,"o":"m 239 479 l 239 435 l 313 435 q 277 361 278 414 l 277 73 q 315 3 277 12 q 342 0 327 0 l 510 0 q 572 35 562 0 q 574 38 574 37 q 640 0 585 1 l 807 0 q 871 68 869 3 l 871 760 q 772 849 868 848 l 277 849 l 277 806 l 761 806 q 821 749 817 795 l 821 84 q 793 45 821 47 q 783 43 788 43 l 655 43 q 600 88 605 43 q 598 106 598 96 l 598 239 l 548 239 l 548 106 q 507 45 548 49 q 494 43 500 43 l 354 43 q 327 76 328 46 l 327 342 q 419 435 330 434 l 576 435 l 576 597 q 492 674 574 673 l 142 674 q 33 598 46 674 q 30 575 30 587 l 30 0 l 80 0 l 80 559 q 126 628 80 618 q 159 631 141 631 l 479 631 q 528 590 525 625 l 528 479 l 239 479 z "},"ඟ":{"ha":1029,"x_min":30,"x_max":944,"o":"m 467 674 l 142 674 q 33 598 46 674 q 30 575 30 587 l 30 0 l 80 0 l 80 559 q 126 628 80 618 q 159 631 141 631 l 266 631 q 244 560 244 601 l 244 76 q 290 1 244 9 q 309 0 300 0 l 559 0 q 644 41 631 0 q 650 81 650 58 l 650 328 q 600 387 647 385 l 567 387 l 604 590 q 661 631 614 629 l 841 631 q 892 600 886 631 q 894 578 894 589 l 894 98 q 872 46 894 53 q 846 43 861 43 l 738 43 l 738 0 l 859 0 q 940 52 928 0 q 944 85 944 66 l 944 589 q 882 673 944 662 q 853 674 868 674 l 655 674 q 557 605 570 674 l 511 343 l 574 343 q 600 315 598 340 l 600 87 q 572 45 600 50 q 549 43 562 43 l 326 43 q 294 81 297 56 l 294 547 q 366 631 297 629 l 467 631 l 467 674 z "},"ඤ":{"ha":1373,"x_min":30,"x_max":1337,"o":"m 1306 0 l 1306 43 l 864 43 q 833 79 834 46 l 833 393 q 876 435 838 433 l 1301 435 l 1301 602 q 1229 674 1298 673 l 730 674 q 639 663 671 674 q 553 616 600 650 l 464 548 l 464 598 q 401 674 460 671 l 142 674 q 33 598 46 674 q 30 575 30 587 l 30 0 l 80 0 l 80 559 q 126 628 80 618 q 159 631 141 631 l 376 631 q 414 598 411 631 q 415 583 415 591 l 415 507 l 218 343 l 218 305 l 263 305 q 232 212 232 285 l 232 62 q 274 3 232 14 q 293 0 283 0 l 412 0 q 464 35 454 0 q 465 39 465 38 q 515 0 477 1 l 632 0 q 697 46 682 0 q 701 72 701 58 l 701 429 q 637 495 690 488 l 475 495 l 572 570 q 665 621 623 608 q 747 631 697 631 l 1214 631 q 1251 591 1249 628 l 1251 479 l 861 479 q 783 401 784 476 l 783 68 q 830 1 783 7 q 842 0 836 0 l 940 0 q 901 -65 902 -20 l 901 -171 q 971 -232 903 -231 l 1337 -232 l 1337 -190 l 983 -190 q 951 -160 954 -183 l 951 -71 q 1012 -3 951 -16 q 1040 0 1027 0 l 1306 0 m 651 418 l 651 87 q 616 43 648 45 l 544 43 q 494 91 499 43 q 492 127 492 104 l 492 255 l 441 255 l 441 127 q 414 49 441 62 q 384 43 400 43 l 311 43 q 282 76 283 46 l 282 198 q 305 288 282 264 q 335 309 316 300 l 335 347 l 298 347 l 423 452 l 617 452 q 651 418 650 449 z "},"ඕ":{"ha":699,"x_min":19,"x_max":624,"o":"m 263 0 q 326 35 315 0 q 327 38 327 37 q 393 0 338 1 l 560 0 q 624 68 623 3 l 624 636 q 583 736 624 719 q 530 746 562 746 l 228 746 q 123 793 137 746 q 118 836 118 810 q 130 868 118 865 q 140 869 134 869 l 621 869 l 621 913 l 134 913 q 68 857 69 910 l 68 819 q 111 746 71 757 l 19 746 l 19 703 l 525 703 q 574 656 570 693 l 574 84 q 547 45 574 47 q 536 43 541 43 l 408 43 q 353 88 358 43 q 351 106 351 96 l 351 203 l 301 203 l 301 106 q 260 45 301 49 q 247 43 254 43 l 117 43 q 81 65 85 43 q 80 85 80 73 l 80 490 q 117 534 83 533 l 199 534 q 216 518 214 532 l 216 339 q 263 298 218 300 l 382 298 q 435 346 434 301 l 435 579 l 385 579 l 385 365 q 365 342 382 343 l 285 342 q 266 365 267 345 l 266 532 q 210 579 263 578 l 110 579 q 30 491 31 576 l 30 65 q 94 0 33 1 l 263 0 z "},"ඔ":{"ha":699,"x_min":30,"x_max":624,"o":"m 382 342 l 263 342 q 216 382 217 345 l 216 560 q 198 579 213 578 l 119 579 q 80 529 81 576 l 80 85 q 98 46 80 50 q 117 43 106 43 l 247 43 q 300 81 292 43 q 301 106 301 94 l 301 239 l 351 239 l 351 106 q 408 43 363 49 l 536 43 q 574 84 570 56 l 574 749 q 514 806 560 802 l 30 806 l 30 849 l 525 849 q 624 760 623 846 l 624 68 q 560 0 621 1 l 393 0 q 327 38 338 1 q 263 0 313 3 l 94 0 q 30 65 31 3 l 30 534 q 110 623 33 621 l 210 623 q 266 575 264 620 l 266 408 q 285 385 269 387 l 365 385 q 385 408 384 388 l 385 623 l 435 623 l 435 389 q 382 342 433 343 z "},"ප":{"ha":690,"x_min":30,"x_max":625,"o":"m 30 73 l 30 404 q 106 479 33 477 l 245 479 l 245 585 q 197 631 237 628 l 31 631 l 31 674 l 212 674 q 296 597 294 671 l 296 435 l 122 435 q 80 393 83 427 l 80 84 q 103 45 80 47 q 114 43 109 43 l 541 43 q 575 84 572 56 l 575 393 q 533 435 567 433 l 359 435 l 359 597 q 444 674 362 673 l 624 674 l 624 631 l 458 631 q 410 585 412 623 l 410 479 l 549 479 q 625 404 624 476 l 625 73 q 572 1 625 8 q 555 0 564 0 l 100 0 q 31 54 38 0 q 30 73 30 64 z "},"ඵ":{"ha":697,"x_min":30,"x_max":625,"o":"m 355 806 l 525 806 q 574 776 568 806 q 575 757 575 768 l 575 623 l 387 623 q 357 636 361 623 q 355 654 355 644 l 355 806 m 98 0 l 555 0 q 624 54 617 0 q 625 73 625 64 l 625 758 q 582 844 625 830 q 536 849 563 849 l 217 849 l 217 807 l 305 807 l 305 643 q 343 582 305 590 q 368 579 354 579 l 575 579 l 575 83 q 545 43 572 45 l 106 43 q 80 79 81 47 l 80 316 q 118 354 83 353 l 326 354 l 326 488 q 256 559 323 557 l 30 559 l 30 515 l 241 515 q 275 488 274 513 l 275 397 l 106 397 q 30 323 31 395 l 30 73 q 75 1 30 11 q 98 0 85 0 z "},"ර":{"ha":612,"x_min":30,"x_max":534,"o":"m 30 583 q 77 669 30 627 q 85 675 83 673 l 358 899 l 429 899 l 159 674 l 452 674 q 534 594 533 671 l 534 83 q 494 4 534 18 q 460 0 479 0 l 92 0 q 30 65 34 12 l 30 583 m 80 566 l 80 96 q 95 47 80 54 q 129 43 106 43 l 450 43 q 484 58 479 43 q 487 87 487 69 l 487 575 q 450 629 487 625 q 435 631 442 631 l 134 631 q 80 566 81 628 z "},"ස":{"ha":766,"x_min":-8,"x_max":692,"o":"m 30 361 l 30 73 q 75 1 30 11 q 98 0 85 0 l 292 0 q 357 35 334 0 q 362 47 359 42 q 422 1 376 8 q 433 0 429 0 l 624 0 q 690 47 682 0 q 692 73 692 60 l 692 404 q 616 479 689 477 l 444 479 l 444 590 q 492 631 446 629 l 690 631 l 690 674 l 477 674 q 393 597 395 671 l 393 435 l 610 435 q 642 407 639 431 l 642 76 q 616 43 640 45 l 452 43 q 388 110 395 43 q 387 126 387 118 l 387 224 l 336 224 l 336 126 q 273 43 327 50 l 106 43 q 80 76 81 46 l 80 342 q 172 435 83 434 l 330 435 l 330 597 q 245 674 327 673 l 31 674 l 31 631 l 231 631 q 279 590 278 628 l 279 479 l -8 479 l -8 435 l 66 435 q 30 361 31 414 z "},"ශ":{"ha":803,"x_min":30,"x_max":730,"o":"m 632 43 l 507 43 l 507 0 l 644 0 q 726 52 713 0 q 730 85 730 66 l 730 589 q 667 673 730 662 q 639 674 654 674 l 441 674 q 343 605 355 674 l 297 343 l 359 343 q 385 315 384 340 l 385 87 q 358 45 385 50 q 335 43 347 43 l 111 43 q 80 81 83 56 l 80 591 q 104 629 80 625 q 121 631 113 631 l 252 631 l 252 674 l 104 674 q 30 600 31 671 l 30 76 q 76 1 30 9 q 95 0 85 0 l 345 0 q 430 41 416 0 q 435 81 435 58 l 435 328 q 385 387 433 385 l 353 387 l 389 590 q 446 631 399 629 l 627 631 q 678 593 674 631 q 680 578 680 586 l 680 426 l 566 426 q 506 372 507 423 l 506 201 q 620 47 506 87 q 632 43 627 45 m 680 382 l 680 75 q 560 163 583 96 q 555 195 555 179 l 555 362 q 570 382 557 381 l 680 382 z "},"ෂ":{"ha":690,"x_min":30,"x_max":625,"o":"m 30 73 q 83 1 30 8 q 100 0 91 0 l 555 0 q 624 54 617 0 q 625 73 625 64 l 625 404 q 574 476 624 465 l 602 502 q 625 551 625 522 l 625 601 q 576 673 625 662 q 564 674 571 674 l 430 674 q 346 597 347 671 l 346 435 l 464 435 l 307 294 q 283 216 283 271 l 283 140 l 334 140 l 334 208 q 347 270 334 252 q 357 279 353 275 l 532 435 l 533 435 q 575 393 572 427 l 575 84 q 552 45 575 47 q 541 43 547 43 l 114 43 q 80 84 83 56 l 80 393 q 122 435 88 433 l 282 435 l 282 597 q 198 674 279 673 l 31 674 l 31 631 l 183 631 q 232 585 229 623 l 232 479 l 106 479 q 30 404 31 476 l 30 73 m 396 479 l 396 585 q 445 631 404 628 l 541 631 q 575 600 571 631 q 575 575 575 590 q 548 513 574 537 l 511 479 l 396 479 z "},"ත":{"ha":803,"x_min":16,"x_max":730,"o":"m 433 418 q 399 452 430 450 l 221 452 l 96 347 l 133 347 l 133 309 q 83 248 90 286 q 80 198 80 229 l 80 76 q 107 43 83 45 l 397 43 q 433 87 433 46 l 433 418 m 262 548 l 372 640 q 460 674 412 674 l 654 674 q 727 621 713 674 q 730 598 730 609 l 730 73 q 680 3 730 16 q 659 0 670 0 l 524 0 l 524 43 l 644 43 q 680 85 678 46 l 680 586 q 636 631 677 629 l 483 631 q 397 598 435 629 l 273 495 l 419 495 q 481 446 471 495 q 483 429 483 438 l 483 72 q 434 3 483 16 q 414 0 423 0 l 91 0 q 31 47 41 0 q 30 62 30 56 l 30 212 q 61 305 31 286 l 16 305 l 16 343 l 213 507 l 213 583 q 186 629 213 625 q 174 631 179 631 l 52 631 l 52 674 l 199 674 q 260 616 252 674 q 262 598 262 606 l 262 548 z "},"ථ":{"ha":694,"x_min":30,"x_max":625,"o":"m 355 806 l 525 806 q 574 776 568 806 q 575 757 575 768 l 575 623 l 387 623 q 357 636 361 623 q 355 654 355 644 l 355 806 m 267 491 l 267 534 l 106 534 q 30 460 31 532 l 30 73 q 75 1 30 11 q 98 0 85 0 l 555 0 q 624 54 617 0 q 625 73 625 64 l 625 758 q 582 844 625 830 q 536 849 563 849 l 217 849 l 217 807 l 305 807 l 305 643 q 343 582 305 590 q 368 579 354 579 l 575 579 l 575 83 q 545 43 572 45 l 106 43 q 80 79 81 47 l 80 453 q 118 491 83 490 l 267 491 z "},"ට":{"ha":699,"x_min":30,"x_max":624,"o":"m 326 563 l 326 606 l 106 606 q 30 532 31 604 l 30 73 q 75 1 30 11 q 98 0 85 0 l 553 0 q 623 54 616 0 q 624 73 624 64 l 624 743 q 541 846 624 838 q 521 848 532 848 l 30 848 l 30 804 l 510 804 q 570 770 560 804 q 574 734 574 755 l 574 83 q 544 43 571 45 l 106 43 q 80 79 81 47 l 80 525 q 118 563 83 562 l 326 563 z "},"ඨ":{"ha":699,"x_min":30,"x_max":625,"o":"m 355 806 l 525 806 q 574 776 568 806 q 575 757 575 768 l 575 623 l 387 623 q 357 636 361 623 q 355 654 355 644 l 355 806 m 263 0 q 321 35 305 0 q 327 50 326 43 q 393 0 340 1 l 562 0 q 625 68 624 3 l 625 758 q 582 844 625 830 q 536 849 563 849 l 217 849 l 217 807 l 305 807 l 305 643 q 343 582 305 590 q 368 579 354 579 l 575 579 l 575 81 q 545 43 572 45 l 420 43 q 351 137 353 46 l 351 271 l 301 271 l 301 137 q 239 43 298 45 l 111 43 q 80 79 81 46 l 80 387 q 126 435 83 434 l 335 435 l 335 479 l 110 479 q 30 391 31 476 l 30 65 q 94 0 33 1 l 263 0 z "},"උ":{"ha":707,"x_min":30,"x_max":646,"o":"m 126 674 l 553 674 q 642 594 640 671 l 642 435 l 145 435 q 84 407 92 435 q 80 378 80 395 l 80 -99 q 102 -160 80 -152 q 126 -164 111 -164 l 557 -164 q 595 -125 594 -163 l 595 133 l 646 133 l 646 -125 q 587 -206 646 -198 q 566 -208 576 -208 l 103 -208 q 30 -117 31 -205 l 30 381 q 130 479 33 477 l 591 479 l 591 587 q 547 631 589 629 l 126 631 l 126 674 z "},"ඌ":{"ha":1206,"x_min":30,"x_max":1164,"o":"m 126 674 l 553 674 q 642 594 640 671 l 642 435 l 145 435 q 84 407 92 435 q 80 378 80 395 l 80 -99 q 102 -160 80 -152 q 126 -164 111 -164 l 557 -164 q 595 -125 594 -163 l 595 133 l 646 133 l 646 -125 q 587 -206 646 -198 q 566 -208 576 -208 l 103 -208 q 30 -117 31 -205 l 30 381 q 130 479 33 477 l 591 479 l 591 587 q 547 631 589 629 l 126 631 l 126 674 m 777 674 l 777 403 q 822 358 780 359 l 932 358 q 989 406 985 366 l 989 598 q 1015 631 998 628 l 1086 631 q 1114 601 1112 628 l 1114 79 q 1082 43 1111 45 l 860 43 q 827 77 829 46 l 827 199 l 777 199 l 777 64 q 831 0 783 4 l 1099 0 q 1162 49 1154 0 q 1164 62 1164 56 l 1164 618 q 1127 671 1164 658 q 1107 674 1118 674 l 987 674 q 937 614 941 666 l 937 427 q 907 401 928 403 l 854 401 q 829 415 831 401 q 827 427 827 422 l 827 674 l 777 674 z "},"ව":{"ha":697,"x_min":30,"x_max":624,"o":"m 521 848 l 30 848 l 30 804 l 510 804 q 570 770 560 804 q 574 734 574 755 l 574 83 q 544 43 571 45 l 106 43 q 80 79 81 47 l 80 397 q 118 435 83 434 l 326 435 l 326 604 q 256 674 323 673 l 30 674 l 30 631 l 241 631 q 275 604 274 628 l 275 479 l 106 479 q 30 404 31 476 l 30 73 q 75 1 30 11 q 98 0 85 0 l 553 0 q 623 54 616 0 q 624 73 624 64 l 624 743 q 541 846 624 838 q 521 848 532 848 z "},"ය":{"ha":766,"x_min":30,"x_max":692,"o":"m 289 674 l 289 631 l 114 631 q 80 587 81 628 l 80 75 q 106 43 83 45 l 273 43 q 336 126 331 54 l 336 224 l 387 224 l 387 126 q 437 45 387 56 q 452 43 445 43 l 616 43 q 642 76 640 46 l 642 407 q 610 435 637 433 l 363 435 l 363 597 q 448 674 366 673 l 690 674 l 690 631 l 463 631 q 414 590 415 628 l 414 479 l 616 479 q 692 404 690 476 l 692 73 q 647 1 692 11 q 624 0 636 0 l 433 0 q 369 34 391 0 q 362 47 365 41 q 292 0 338 7 l 98 0 q 31 47 39 0 q 30 73 30 58 l 30 594 q 106 674 33 673 l 289 674 z "},"෴":{"ha":2493,"x_min":66,"x_max":2436,"o":"m 176 250 l 199 202 l 133 160 l 183 69 q 229 65 198 47 l 442 194 q 510 195 483 218 l 544 167 l 635 323 q 640 324 637 327 q 643 321 643 323 l 709 239 l 826 426 q 838 425 833 431 l 925 304 l 1047 500 q 1061 499 1055 509 l 1150 315 l 1291 528 q 1302 526 1298 534 l 1379 298 l 1514 452 q 1522 449 1519 457 q 1523 446 1523 448 l 1576 248 l 1717 388 q 1728 382 1724 395 q 1728 380 1728 381 l 1780 187 l 1899 297 q 1907 293 1904 300 l 1942 174 l 1964 187 q 2058 191 2014 218 l 2266 65 q 2319 65 2306 43 l 2370 159 l 2302 203 l 2326 250 l 2424 186 q 2428 159 2436 176 l 2359 27 q 2265 7 2333 -22 q 2258 9 2261 8 l 2060 125 q 1978 127 2018 149 l 1904 87 l 1873 213 l 1739 96 l 1698 298 l 1560 157 l 1496 361 l 1355 208 l 1286 418 l 1145 224 l 1055 406 l 924 208 l 829 343 l 712 163 l 644 233 l 559 99 l 499 144 q 442 138 476 159 l 227 9 q 145 24 172 -24 q 144 27 144 26 l 75 159 q 80 187 68 176 l 176 250 z "},"ඏ":{"ha":1179,"x_min":30,"x_max":1108,"o":"m 270 73 q 323 1 270 8 q 340 0 331 0 l 795 0 q 864 54 857 0 q 865 73 865 64 l 865 404 q 789 479 863 477 l 650 479 l 650 585 q 699 631 658 628 l 864 631 l 864 674 l 822 674 l 822 726 q 845 769 822 764 q 868 772 854 772 l 993 772 q 1055 727 1044 772 q 1058 708 1058 718 l 1058 269 q 1013 286 1043 285 l 959 286 q 892 235 902 286 q 891 218 891 227 l 891 77 q 955 19 894 20 l 1035 19 q 1108 106 1105 24 l 1108 715 q 1048 807 1108 784 q 1001 815 1027 815 l 863 815 q 774 765 787 815 q 772 730 772 750 l 772 674 l 684 674 q 600 597 601 671 l 600 435 l 773 435 q 815 393 812 427 l 815 84 q 792 45 815 47 q 781 43 787 43 l 354 43 q 320 84 323 56 l 320 393 q 362 435 328 433 l 536 435 l 536 597 q 452 674 533 673 l 366 674 l 366 730 q 324 808 366 795 q 275 815 304 815 l 137 815 q 34 747 54 815 q 30 715 30 731 l 30 106 q 103 19 33 20 l 183 19 q 247 77 245 22 l 247 218 q 193 285 247 278 q 179 286 184 286 l 125 286 q 80 269 94 286 l 80 708 q 133 770 80 762 q 145 772 138 772 l 270 772 q 313 747 308 772 q 316 726 316 738 l 316 674 l 271 674 l 271 631 l 437 631 q 486 585 483 623 l 486 479 l 346 479 q 270 404 271 476 l 270 73 m 1058 189 l 1058 114 q 1023 62 1048 66 l 966 62 q 941 84 941 64 l 941 213 q 970 243 944 241 l 1002 243 q 1058 189 1053 235 m 80 189 q 125 241 80 236 q 136 243 132 243 l 168 243 q 197 213 195 240 l 197 84 q 172 62 193 64 l 115 62 q 81 95 85 62 q 80 114 80 104 l 80 189 z "},"ඐ":{"ha":1644,"x_min":30,"x_max":1576,"o":"m 1058 189 l 1058 114 q 1023 62 1048 66 l 966 62 q 941 84 941 64 l 941 213 q 970 243 944 241 l 1002 243 q 1058 189 1053 235 m 80 189 q 125 241 80 236 q 136 243 132 243 l 168 243 q 197 213 195 240 l 197 84 q 172 62 193 64 l 115 62 q 81 95 85 62 q 80 114 80 104 l 80 189 m 270 73 q 323 1 270 8 q 340 0 331 0 l 795 0 q 864 54 857 0 q 865 73 865 64 l 865 404 q 789 479 863 477 l 650 479 l 650 585 q 699 631 658 628 l 864 631 l 864 674 l 822 674 l 822 726 q 845 769 822 764 q 868 772 854 772 l 993 772 q 1055 727 1044 772 q 1058 708 1058 718 l 1058 269 q 1013 286 1043 285 l 959 286 q 892 235 902 286 q 891 218 891 227 l 891 77 q 955 19 894 20 l 1035 19 q 1108 106 1105 24 l 1108 715 q 1048 807 1108 784 q 1001 815 1027 815 l 863 815 q 774 765 787 815 q 772 730 772 750 l 772 674 l 684 674 q 600 597 601 671 l 600 435 l 773 435 q 815 393 812 427 l 815 84 q 792 45 815 47 q 781 43 787 43 l 354 43 q 320 84 323 56 l 320 393 q 362 435 328 433 l 536 435 l 536 597 q 452 674 533 673 l 366 674 l 366 730 q 324 808 366 795 q 275 815 304 815 l 137 815 q 34 747 54 815 q 30 715 30 731 l 30 106 q 103 19 33 20 l 183 19 q 247 77 245 22 l 247 218 q 193 285 247 278 q 179 286 184 286 l 125 286 q 80 269 94 286 l 80 708 q 133 770 80 762 q 145 772 138 772 l 270 772 q 313 747 308 772 q 316 726 316 738 l 316 674 l 271 674 l 271 631 l 437 631 q 486 585 483 623 l 486 479 l 346 479 q 270 404 271 476 l 270 73 m 1190 674 l 1190 403 q 1234 358 1192 359 l 1344 358 q 1401 406 1400 361 l 1401 598 q 1427 631 1411 628 l 1499 631 q 1526 601 1525 628 l 1526 79 q 1495 43 1523 45 l 1272 43 q 1240 77 1241 46 l 1240 199 l 1190 199 l 1190 64 q 1244 0 1198 5 l 1511 0 q 1575 49 1567 0 q 1576 62 1576 56 l 1576 618 q 1538 671 1576 661 q 1519 674 1529 674 l 1400 674 q 1350 614 1351 671 l 1350 427 q 1320 401 1340 403 l 1267 401 q 1241 415 1244 401 q 1240 427 1240 422 l 1240 674 l 1190 674 z "},"ඍ":{"ha":1232,"x_min":30,"x_max":1171,"o":"m 796 674 l 1104 674 q 1171 610 1169 671 l 1171 0 l 1138 0 l 1126 53 q 1054 0 1103 1 l 846 0 q 796 57 798 3 l 796 380 q 844 437 796 431 q 854 438 849 438 l 1120 438 l 1120 595 q 1100 629 1120 627 q 1086 631 1095 631 l 796 631 l 796 674 m 1120 395 l 871 395 q 848 377 849 395 q 846 365 846 370 l 846 69 q 860 45 846 47 q 871 43 865 43 l 1021 43 q 1118 138 1104 43 q 1120 189 1120 161 l 1120 395 m 361 47 q 290 0 336 7 l 98 0 q 31 47 39 0 q 30 73 30 58 l 30 404 q 106 479 33 477 l 279 479 l 279 590 q 231 631 277 629 l 31 631 l 31 674 l 244 674 q 328 597 327 671 l 328 435 l 111 435 q 80 407 83 431 l 80 76 q 107 43 83 45 l 271 43 q 335 110 328 43 q 336 126 336 118 l 336 224 l 387 224 l 387 126 q 437 45 387 56 q 452 43 445 43 l 616 43 q 642 76 640 46 l 642 407 q 610 435 637 433 l 393 435 l 393 597 q 477 674 396 673 l 690 674 l 690 631 l 491 631 q 442 590 444 628 l 442 479 l 616 479 q 692 404 690 476 l 692 73 q 647 1 692 11 q 624 0 636 0 l 433 0 q 369 33 391 0 q 361 47 363 41 z "},"ඎ":{"ha":1686,"x_min":30,"x_max":1610,"o":"m 1236 673 l 1544 673 q 1610 609 1609 670 l 1610 -1 l 1577 -1 l 1565 52 q 1493 -1 1542 0 l 1286 -1 q 1236 56 1237 1 l 1236 378 q 1283 435 1236 430 q 1294 437 1289 437 l 1560 437 l 1560 594 q 1539 628 1560 625 q 1526 629 1534 629 l 1236 629 l 1236 673 m 1560 393 l 1310 393 q 1287 376 1289 393 q 1286 363 1286 369 l 1286 68 q 1299 43 1286 46 q 1310 42 1305 42 l 1461 42 q 1557 137 1544 42 q 1560 187 1560 160 l 1560 393 m 791 673 l 1099 673 q 1165 609 1164 670 l 1165 -1 l 1133 -1 l 1120 52 q 1048 -1 1097 0 l 841 -1 q 791 56 792 1 l 791 378 q 838 435 791 430 q 849 437 844 437 l 1115 437 l 1115 594 q 1095 628 1115 625 q 1081 629 1088 629 l 791 629 l 791 673 m 1115 393 l 865 393 q 842 376 844 393 q 841 363 841 369 l 841 68 q 854 43 841 46 q 865 42 860 42 l 1016 42 q 1112 137 1099 42 q 1115 187 1115 160 l 1115 393 m 361 47 q 290 0 336 7 l 98 0 q 31 47 39 0 q 30 73 30 58 l 30 404 q 106 479 33 477 l 279 479 l 279 590 q 231 631 277 629 l 31 631 l 31 674 l 244 674 q 328 597 327 671 l 328 435 l 111 435 q 80 407 83 431 l 80 76 q 107 43 83 45 l 271 43 q 335 110 328 43 q 336 126 336 118 l 336 224 l 387 224 l 387 126 q 437 45 387 56 q 452 43 445 43 l 616 43 q 642 76 640 46 l 642 407 q 610 435 637 433 l 393 435 l 393 597 q 477 674 396 673 l 690 674 l 690 631 l 491 631 q 442 590 444 628 l 442 479 l 616 479 q 692 404 690 476 l 692 73 q 647 1 692 11 q 624 0 636 0 l 433 0 q 369 33 391 0 q 361 47 363 41 z "},"/":{"ha":536,"x_min":27,"x_max":522,"o":"m 464 916 l 27 -130 l 87 -130 l 522 916 l 464 916 z "}," ":{"ha":271,"x_min":0,"x_max":0,"o":""},"£":{"ha":572,"x_min":61,"x_max":525,"o":"m 525 0 l 525 56 l 195 56 q 213 99 213 66 l 213 393 l 469 393 l 469 445 l 213 445 l 213 749 q 222 758 216 757 l 518 758 l 518 814 l 285 814 q 161 762 186 814 q 149 692 149 735 l 149 445 l 61 445 l 61 393 l 149 393 l 149 66 q 138 56 146 57 l 61 56 l 61 0 l 525 0 z "},"∑":{"ha":597,"x_min":34,"x_max":549,"o":"m 34 0 l 549 0 l 549 56 l 107 56 l 351 448 l 123 806 l 549 806 l 549 861 l 46 861 l 46 817 l 285 445 l 34 43 l 34 0 z "},"t":{"ha":345,"x_min":33,"x_max":345,"o":"m 345 665 l 182 665 l 182 834 l 121 834 l 121 665 l 33 665 l 33 616 l 121 616 l 121 122 q 182 9 121 31 q 256 0 210 0 l 345 0 l 345 50 l 191 50 q 182 60 183 53 l 182 616 l 345 616 l 345 665 z "},"ť":{"ha":345,"x_min":33,"x_max":351,"o":"m 345 665 l 182 665 l 182 834 l 121 834 l 121 665 l 33 665 l 33 616 l 121 616 l 121 122 q 182 9 121 31 q 256 0 210 0 l 345 0 l 345 50 l 191 50 q 182 60 183 53 l 182 616 l 345 616 l 345 665 m 275 812 l 305 812 q 275 727 301 769 l 301 708 q 351 829 351 762 l 351 917 l 275 917 l 275 812 z "},"þ":{"ha":570,"x_min":81,"x_max":502,"o":"m 142 -258 l 142 0 l 366 -4 q 491 50 467 -5 q 502 118 502 76 l 502 549 q 441 662 502 640 q 366 671 412 671 l 241 671 q 142 625 161 670 l 142 916 l 81 916 l 81 -258 l 142 -258 m 142 612 q 152 621 145 620 l 430 621 q 439 612 438 618 l 439 54 q 430 45 437 46 l 142 49 l 142 612 z "},"¾":{"ha":1015,"x_min":34,"x_max":954,"o":"m 342 423 l 342 543 q 302 613 340 598 q 338 680 336 632 l 338 780 q 270 864 338 857 q 247 865 259 865 l 38 861 l 38 818 l 273 818 q 283 808 282 815 l 283 643 q 273 633 281 635 l 80 633 l 80 590 l 278 590 q 288 581 286 587 l 288 391 q 278 381 285 382 l 34 381 l 34 338 l 247 336 q 342 423 340 339 m 723 868 l 267 -7 l 327 -7 l 781 868 l 723 868 m 882 0 l 882 123 l 954 123 l 954 167 l 882 167 l 882 524 l 815 524 q 749 499 766 524 q 728 465 742 491 l 551 160 l 551 123 l 827 123 l 827 0 l 882 0 m 788 475 q 796 480 793 480 l 827 480 l 827 167 l 610 167 l 788 475 z "},"³":{"ha":450,"x_min":34,"x_max":342,"o":"m 342 423 l 342 543 q 302 613 340 598 q 338 680 336 632 l 338 780 q 270 864 338 857 q 247 865 259 865 l 38 861 l 38 818 l 273 818 q 283 808 282 815 l 283 643 q 273 633 281 635 l 80 633 l 80 590 l 278 590 q 288 581 286 587 l 288 391 q 278 381 285 382 l 34 381 l 34 338 l 247 336 q 342 423 340 339 z "},"˜":{"ha":448,"x_min":58,"x_max":384,"o":"m 110 795 q 142 845 111 844 q 227 817 161 845 q 308 795 277 795 q 378 848 366 795 q 384 897 384 868 l 332 897 q 308 848 332 852 q 296 846 301 846 q 210 875 274 846 q 129 897 161 897 q 61 834 72 897 q 58 795 58 817 l 110 795 z "},"™":{"ha":856,"x_min":27,"x_max":781,"o":"m 749 868 l 723 868 l 572 575 l 442 837 q 401 868 425 868 l 363 868 l 363 330 l 419 330 l 419 773 l 552 509 l 589 509 l 724 772 l 724 330 l 781 330 l 781 831 q 749 868 776 867 m 212 330 l 212 823 l 335 823 l 335 868 l 27 868 l 27 823 l 155 823 l 155 330 l 212 330 z "},"²":{"ha":423,"x_min":56,"x_max":361,"o":"m 56 502 l 56 338 l 361 338 l 361 381 l 110 381 l 110 499 q 121 528 110 521 q 125 529 123 529 l 305 613 q 358 659 350 635 q 361 686 361 671 l 361 777 q 279 865 361 860 q 266 865 271 865 l 71 861 l 71 818 l 296 818 q 307 808 305 815 l 307 677 q 296 665 307 669 l 294 663 l 117 579 q 64 544 72 557 q 56 502 56 528 z "},"u":{"ha":576,"x_min":73,"x_max":495,"o":"m 335 -7 q 435 41 416 -5 l 445 0 l 495 0 l 495 665 l 434 665 l 434 43 l 144 43 q 134 53 136 46 l 134 665 l 73 665 l 73 115 q 134 3 73 24 q 209 -7 163 -7 l 335 -7 z "},"ú":{"ha":576,"x_min":73,"x_max":495,"o":"m 335 -7 q 435 41 416 -5 l 445 0 l 495 0 l 495 665 l 434 665 l 434 43 l 144 43 q 134 53 136 46 l 134 665 l 73 665 l 73 115 q 134 3 73 24 q 209 -7 163 -7 l 335 -7 m 251 751 l 332 921 l 408 920 l 301 751 l 251 751 z "},"û":{"ha":576,"x_min":73,"x_max":495,"o":"m 335 -7 q 435 41 416 -5 l 445 0 l 495 0 l 495 665 l 434 665 l 434 43 l 144 43 q 134 53 136 46 l 134 665 l 73 665 l 73 115 q 134 3 73 24 q 209 -7 163 -7 l 335 -7 m 313 914 l 237 914 l 115 751 l 179 751 l 275 882 l 362 751 l 429 751 l 313 914 z "},"ü":{"ha":576,"x_min":73,"x_max":495,"o":"m 335 -7 q 435 41 416 -5 l 445 0 l 495 0 l 495 665 l 434 665 l 434 43 l 144 43 q 134 53 136 46 l 134 665 l 73 665 l 73 115 q 134 3 73 24 q 209 -7 163 -7 l 335 -7 m 206 788 l 206 883 l 133 883 l 133 788 l 206 788 m 434 788 l 434 883 l 361 883 l 361 788 l 434 788 z "},"ù":{"ha":576,"x_min":73,"x_max":495,"o":"m 335 -7 q 435 41 416 -5 l 445 0 l 495 0 l 495 665 l 434 665 l 434 43 l 144 43 q 134 53 136 46 l 134 665 l 73 665 l 73 115 q 134 3 73 24 q 209 -7 163 -7 l 335 -7 m 148 920 l 225 921 l 319 751 l 266 751 l 148 920 z "},"ű":{"ha":576,"x_min":73,"x_max":495,"o":"m 335 -7 q 435 41 416 -5 l 445 0 l 495 0 l 495 665 l 434 665 l 434 43 l 144 43 q 134 53 136 46 l 134 665 l 73 665 l 73 115 q 134 3 73 24 q 209 -7 163 -7 l 335 -7 m 178 751 l 259 921 l 335 920 l 228 751 l 178 751 m 326 751 l 407 921 l 483 920 l 376 751 l 326 751 z "},"ū":{"ha":576,"x_min":73,"x_max":495,"o":"m 335 -7 q 435 41 416 -5 l 445 0 l 495 0 l 495 665 l 434 665 l 434 43 l 144 43 q 134 53 136 46 l 134 665 l 73 665 l 73 115 q 134 3 73 24 q 209 -7 163 -7 l 335 -7 m 448 849 l 119 849 l 119 799 l 448 799 l 448 849 z "},"_":{"ha":586,"x_min":27,"x_max":559,"o":"m 559 -64 l 27 -64 l 27 -113 l 559 -113 l 559 -64 z "}," ":{"ha":274,"x_min":0,"x_max":0,"o":""},"­":{"ha":430,"x_min":47,"x_max":382,"o":"m 382 407 l 47 407 l 47 355 l 382 355 l 382 407 z "},"µ":{"ha":576,"x_min":73,"x_max":495,"o":"m 134 -258 l 127 7 q 209 -7 149 -7 l 335 -7 q 435 41 416 -5 l 445 0 l 495 0 l 495 665 l 434 665 l 434 43 l 144 43 q 134 53 136 46 l 134 665 l 73 665 l 73 -258 l 134 -258 z "},"Ģ":{"ha":699,"x_min":88,"x_max":624,"o":"m 488 -7 q 612 45 587 -7 q 624 115 624 72 l 624 434 l 374 434 l 374 380 l 557 380 l 557 60 q 548 50 555 52 l 164 50 q 155 60 156 53 l 155 802 q 164 811 157 810 l 610 811 l 610 868 l 224 868 q 100 817 125 868 q 88 746 88 789 l 88 115 q 149 3 88 24 q 224 -7 178 -7 l 488 -7 m 330 -171 l 362 -171 q 330 -266 358 -218 l 358 -288 q 414 -153 414 -228 l 414 -56 l 330 -56 l 330 -171 z "},"ģ":{"ha":549,"x_min":68,"x_max":488,"o":"m 248 812 l 281 812 q 258 738 278 781 l 288 719 q 331 830 331 774 l 331 926 l 248 926 l 248 812 m 427 53 q 418 43 425 45 l 140 43 q 130 53 132 46 l 130 610 q 140 620 133 618 l 427 616 l 427 53 m 418 -214 l 87 -214 l 87 -264 l 353 -264 q 476 -213 452 -264 q 488 -142 488 -186 l 488 665 l 203 669 q 79 614 103 670 q 68 547 68 589 l 68 115 q 129 3 68 24 q 203 -7 157 -7 l 328 -7 q 427 39 408 -5 l 427 -205 q 418 -214 425 -213 z "},"Ķ":{"ha":705,"x_min":109,"x_max":690,"o":"m 407 411 q 416 401 414 408 l 621 0 l 690 0 l 514 340 q 458 426 477 411 q 438 439 449 434 q 498 513 471 453 q 509 536 503 522 l 655 861 l 590 861 l 418 475 q 408 465 412 467 l 171 465 l 171 861 l 109 861 l 109 0 l 171 0 l 171 411 l 407 411 m 316 -171 l 349 -171 q 316 -266 345 -218 l 345 -288 q 400 -153 400 -228 l 400 -56 l 316 -56 l 316 -171 z "},"ķ":{"ha":578,"x_min":99,"x_max":571,"o":"m 372 320 q 381 311 378 317 l 510 0 l 571 0 l 467 247 q 418 335 435 320 q 388 350 404 345 q 441 442 415 369 l 518 665 l 463 665 l 361 378 q 351 369 355 370 l 159 369 l 159 916 l 99 916 l 99 0 l 159 0 l 159 320 l 372 320 m 262 -165 l 293 -165 q 262 -255 290 -210 l 289 -275 q 342 -148 342 -218 l 342 -56 l 262 -56 l 262 -165 z "},"Ļ":{"ha":524,"x_min":102,"x_max":503,"o":"m 503 54 l 164 54 l 164 861 l 102 861 l 102 0 l 503 0 l 503 54 m 254 -171 l 286 -171 q 254 -266 282 -218 l 282 -288 q 338 -153 338 -228 l 338 -56 l 254 -56 l 254 -171 z "},"ļ":{"ha":251,"x_min":87,"x_max":167,"o":"m 156 0 l 156 916 l 95 916 l 95 0 l 156 0 m 87 -165 l 118 -165 q 87 -255 114 -210 l 114 -275 q 167 -148 167 -218 l 167 -56 l 87 -56 l 87 -165 z "},"Ņ":{"ha":753,"x_min":100,"x_max":652,"o":"m 610 0 l 652 0 l 652 861 l 595 861 l 595 136 l 142 861 l 100 861 l 100 0 l 157 0 l 157 726 l 610 0 m 330 -171 l 362 -171 q 330 -266 358 -218 l 358 -288 q 414 -153 414 -228 l 414 -56 l 330 -56 l 330 -171 z "},"ņ":{"ha":574,"x_min":81,"x_max":502,"o":"m 241 671 q 140 631 164 670 l 132 665 l 81 665 l 81 0 l 142 0 l 142 612 q 152 621 145 620 l 431 621 q 441 612 439 618 l 441 0 l 502 0 l 502 549 q 441 662 502 640 q 366 671 412 671 l 241 671 m 252 -165 l 283 -165 q 252 -255 281 -210 l 279 -275 q 332 -148 332 -218 l 332 -56 l 252 -56 l 252 -165 z "},"Ŗ":{"ha":693,"x_min":102,"x_max":632,"o":"m 165 0 l 164 374 l 420 374 q 442 361 437 373 l 568 0 l 632 0 l 528 301 q 488 376 506 359 q 606 471 590 384 q 610 514 610 491 l 610 726 q 518 861 610 841 q 461 865 492 865 l 102 861 l 102 0 l 165 0 m 528 811 q 544 795 544 811 l 544 442 q 528 426 541 427 l 164 426 l 164 811 l 528 811 m 316 -171 l 349 -171 q 316 -266 345 -218 l 345 -288 q 400 -153 400 -228 l 400 -56 l 316 -56 l 316 -171 z "},"ŗ":{"ha":340,"x_min":76,"x_max":338,"o":"m 241 671 q 140 631 164 670 l 132 665 l 81 665 l 81 0 l 142 0 l 142 612 q 152 621 145 620 l 338 621 l 338 671 l 241 671 m 76 -165 l 107 -165 q 76 -255 103 -210 l 103 -275 q 156 -148 156 -218 l 156 -56 l 76 -56 l 76 -165 z "},"Ş":{"ha":632,"x_min":69,"x_max":571,"o":"m 152 461 q 136 477 136 461 l 136 791 q 152 807 138 806 l 551 807 l 551 861 l 225 865 q 71 741 80 867 q 69 722 69 731 l 69 532 q 136 414 69 437 q 218 404 167 404 l 488 404 q 505 388 503 401 l 505 71 q 488 54 505 54 l 76 54 l 76 0 l 270 -3 l 243 -123 l 357 -123 q 366 -133 365 -126 l 366 -210 q 357 -220 363 -218 l 225 -220 l 225 -274 l 305 -274 q 426 -165 425 -271 l 426 -163 q 342 -77 426 -85 q 317 -76 330 -76 l 297 -76 l 312 -3 l 422 -4 q 566 81 544 -5 q 571 136 571 106 l 571 331 q 461 458 571 442 q 415 461 439 461 l 152 461 z "},"ş":{"ha":488,"x_min":47,"x_max":454,"o":"m 319 -7 q 442 45 418 -7 q 454 115 454 72 l 454 241 q 393 354 454 332 q 319 363 365 363 l 119 363 q 110 373 111 366 l 110 612 q 119 621 113 620 l 427 621 l 427 671 l 183 671 q 60 620 84 671 q 47 549 47 593 l 47 437 q 109 324 47 346 q 183 315 137 315 l 382 315 q 392 305 391 312 l 392 53 q 382 43 389 45 l 56 43 l 56 -7 l 198 -7 l 172 -121 l 286 -121 q 296 -130 294 -123 l 296 -208 q 286 -217 293 -216 l 155 -217 l 155 -271 l 235 -271 q 355 -163 354 -269 l 355 -160 q 271 -75 355 -83 q 247 -73 259 -73 l 227 -73 l 240 -7 l 319 -7 z "},"Ţ":{"ha":529,"x_min":7,"x_max":522,"o":"m 296 0 l 296 807 l 522 807 l 522 861 l 7 861 l 7 807 l 233 807 l 233 5 l 205 -121 l 319 -121 q 328 -130 327 -123 l 328 -208 q 319 -217 326 -216 l 187 -217 l 187 -271 l 267 -271 q 388 -163 387 -269 l 388 -160 q 304 -75 388 -83 q 279 -73 292 -73 l 259 -73 l 274 0 l 296 0 z "},"ţ":{"ha":345,"x_min":33,"x_max":345,"o":"m 345 665 l 182 665 l 182 834 l 121 834 l 121 665 l 33 665 l 33 616 l 121 616 l 121 122 q 183 9 122 30 l 153 -121 l 267 -121 q 277 -130 275 -123 l 277 -208 q 267 -217 274 -216 l 136 -217 l 136 -271 l 216 -271 q 336 -163 335 -269 l 336 -160 q 252 -75 336 -83 q 228 -73 240 -73 l 208 -73 l 222 1 q 256 0 235 0 l 345 0 l 345 50 l 191 50 q 182 60 183 53 l 182 616 l 345 616 l 345 665 z "},"Ș":{"ha":646,"x_min":69,"x_max":571,"o":"m 152 461 q 136 477 136 461 l 136 791 q 152 807 138 806 l 551 807 l 551 861 l 225 865 q 71 741 80 867 q 69 722 69 731 l 69 532 q 136 414 69 437 q 218 404 167 404 l 488 404 q 505 388 503 401 l 505 71 q 488 54 505 54 l 76 54 l 76 0 l 422 -4 q 566 81 544 -5 q 571 136 571 106 l 571 331 q 461 458 571 442 q 415 461 439 461 l 152 461 m 275 -171 l 308 -171 q 275 -266 304 -218 l 304 -288 q 359 -153 359 -228 l 359 -56 l 275 -56 l 275 -171 z "},"ș":{"ha":488,"x_min":47,"x_max":454,"o":"m 319 -7 q 442 45 418 -7 q 454 115 454 72 l 454 241 q 393 354 454 332 q 319 363 365 363 l 119 363 q 110 373 111 366 l 110 612 q 119 621 113 620 l 427 621 l 427 671 l 183 671 q 60 620 84 671 q 47 549 47 593 l 47 437 q 109 324 47 346 q 183 315 137 315 l 382 315 q 392 305 391 312 l 392 53 q 382 43 389 45 l 56 43 l 56 -7 l 319 -7 m 212 -165 l 243 -165 q 212 -255 240 -210 l 239 -275 q 292 -148 292 -218 l 292 -56 l 212 -56 l 212 -165 z "},"Ț":{"ha":529,"x_min":7,"x_max":522,"o":"m 296 0 l 296 807 l 522 807 l 522 861 l 7 861 l 7 807 l 233 807 l 233 0 l 296 0 m 224 -171 l 256 -171 q 224 -266 252 -218 l 252 -288 q 308 -153 308 -228 l 308 -56 l 224 -56 l 224 -171 z "},"ț":{"ha":345,"x_min":33,"x_max":345,"o":"m 345 665 l 182 665 l 182 834 l 121 834 l 121 665 l 33 665 l 33 616 l 121 616 l 121 122 q 182 9 121 31 q 256 0 210 0 l 345 0 l 345 50 l 191 50 q 182 60 183 53 l 182 616 l 345 616 l 345 665 m 203 -165 l 235 -165 q 203 -255 232 -210 l 231 -275 q 283 -148 283 -218 l 283 -56 l 203 -56 l 203 -165 z "},"ˉ":{"ha":491,"x_min":81,"x_max":410,"o":"m 410 849 l 81 849 l 81 799 l 410 799 l 410 849 z "},"₺":{"ha":680,"x_min":54,"x_max":618,"o":"m 483 -3 q 608 52 583 -4 q 618 119 618 77 l 618 349 l 555 349 l 555 65 q 545 56 552 57 l 233 56 l 233 324 l 450 404 l 450 454 l 233 374 l 233 468 l 450 548 l 450 598 l 233 518 l 233 814 l 170 814 l 170 494 l 54 453 l 54 403 l 170 444 l 170 350 l 54 309 l 54 259 l 170 300 l 170 0 l 483 -3 z "},"₽":{"ha":703,"x_min":49,"x_max":628,"o":"m 206 0 l 206 220 l 412 220 l 412 269 l 206 269 l 206 354 l 481 354 q 621 431 598 354 q 628 491 628 457 l 628 678 q 543 812 628 791 q 481 818 517 818 l 144 814 l 144 406 l 49 406 l 49 354 l 144 354 l 144 269 l 49 269 l 49 220 l 144 220 l 144 0 l 206 0 m 548 760 q 564 743 564 760 l 564 422 q 548 406 562 407 l 206 406 l 206 760 l 548 760 z "},"ℓ":{"ha":529,"x_min":20,"x_max":481,"o":"m 481 -7 l 481 50 l 208 50 q 198 60 199 53 l 198 297 l 401 457 q 469 533 457 500 q 477 589 477 556 l 477 800 q 416 913 477 891 q 342 922 388 922 l 267 922 q 144 871 168 922 q 132 800 132 844 l 132 320 l 20 233 l 54 184 l 132 245 l 132 115 q 193 3 132 24 q 267 -7 221 -7 l 481 -7 m 198 856 q 208 865 201 864 l 401 865 q 411 856 410 863 l 411 549 q 399 529 411 538 q 393 525 395 526 l 198 372 l 198 856 z "},"Ω":{"ha":712,"x_min":45,"x_max":667,"o":"m 279 0 l 279 54 l 165 88 q 155 100 156 94 l 155 802 q 164 811 157 810 l 548 811 q 557 802 556 808 l 557 100 q 547 88 555 91 l 433 54 l 433 0 l 667 0 l 667 54 l 551 54 q 624 170 623 77 l 624 746 q 563 859 624 837 q 488 868 534 868 l 224 868 q 100 817 125 868 q 88 746 88 789 l 88 170 q 161 54 90 73 l 45 54 l 45 0 l 279 0 z "},"∆":{"ha":655,"x_min":11,"x_max":644,"o":"m 644 0 l 365 861 l 292 861 l 11 0 l 644 0 m 566 54 l 90 54 l 327 807 l 566 54 z "},"∕":{"ha":587,"x_min":27,"x_max":541,"o":"m 483 868 l 27 -7 l 87 -7 l 541 868 l 483 868 z "},"∙":{"ha":396,"x_min":122,"x_max":274,"o":"m 122 351 q 190 290 125 292 l 206 290 q 274 351 273 293 l 274 423 q 206 484 266 481 l 190 484 q 122 423 125 479 l 122 351 z "},"ų":{"ha":576,"x_min":73,"x_max":522,"o":"m 335 -7 q 435 41 416 -5 l 444 4 l 370 -61 q 335 -151 335 -94 l 335 -178 q 401 -264 335 -250 q 472 -271 430 -271 l 522 -271 l 522 -217 l 406 -217 q 396 -208 397 -214 l 396 -118 q 407 -95 397 -104 l 495 0 l 495 665 l 434 665 l 434 43 l 144 43 q 134 53 136 46 l 134 665 l 73 665 l 73 115 q 134 3 73 24 q 209 -7 163 -7 l 335 -7 z "},"ů":{"ha":576,"x_min":73,"x_max":495,"o":"m 335 -7 q 435 41 416 -5 l 445 0 l 495 0 l 495 665 l 434 665 l 434 43 l 144 43 q 134 53 136 46 l 134 665 l 73 665 l 73 115 q 134 3 73 24 q 209 -7 163 -7 l 335 -7 m 392 841 q 343 939 392 920 q 281 947 319 947 q 182 898 199 947 q 174 841 174 876 q 225 743 174 761 q 281 735 247 735 q 387 795 370 735 q 392 841 392 814 m 218 841 q 235 903 218 894 q 281 911 248 911 q 342 890 332 911 q 347 841 347 875 q 328 779 347 789 q 281 770 312 770 q 222 799 231 770 q 218 841 218 812 z "},"v":{"ha":530,"x_min":5,"x_max":521,"o":"m 381 110 l 521 665 l 463 665 l 315 53 q 305 43 311 45 l 216 43 l 66 665 l 5 665 l 168 0 l 248 -5 q 351 28 326 -11 q 381 110 366 53 z "},"ඃ":{"ha":285,"x_min":30,"x_max":227,"o":"m 30 184 l 30 18 q 50 0 33 1 l 208 0 q 227 16 225 3 l 227 184 q 205 203 224 202 l 52 203 q 30 184 31 202 m 90 159 l 167 159 q 176 151 175 156 l 176 53 q 167 43 174 43 l 90 43 q 80 53 80 46 l 80 151 q 90 159 83 159 m 30 656 l 30 490 q 50 472 33 473 l 208 472 q 227 488 225 475 l 227 656 q 205 675 224 674 l 52 675 q 30 656 31 674 m 90 631 l 167 631 q 176 623 175 628 l 176 525 q 167 515 174 515 l 90 515 q 80 525 80 518 l 80 623 q 90 631 83 631 z "},"w":{"ha":888,"x_min":75,"x_max":814,"o":"m 339 -7 q 444 42 415 -5 q 549 -7 472 -7 l 678 -7 q 802 45 777 -7 q 814 115 814 72 l 814 665 l 753 665 l 753 53 q 743 43 750 45 l 484 43 q 475 53 476 46 l 475 665 l 414 665 l 414 53 q 404 43 411 45 l 145 43 q 136 53 137 46 l 136 665 l 75 665 l 75 102 q 123 4 75 22 q 210 -7 152 -7 l 339 -7 z "},"x":{"ha":570,"x_min":14,"x_max":560,"o":"m 80 0 l 227 300 q 236 309 232 308 l 330 309 q 339 300 336 307 l 492 0 l 560 0 l 435 236 q 387 320 396 309 q 357 338 373 332 q 408 414 380 351 q 414 425 410 418 q 416 431 415 430 l 528 665 l 468 665 l 330 368 q 320 358 324 359 l 252 358 q 243 368 245 361 l 104 665 l 41 665 l 149 431 q 205 342 183 357 q 210 338 209 339 q 160 283 183 328 q 148 260 156 277 q 136 236 140 244 l 14 0 l 80 0 z "},"y":{"ha":574,"x_min":72,"x_max":492,"o":"m 422 -214 l 90 -214 l 90 -264 l 357 -264 q 480 -213 456 -264 q 492 -142 492 -186 l 492 665 l 431 665 l 431 43 l 142 43 q 133 53 134 46 l 133 665 l 72 665 l 72 115 q 133 3 72 24 q 208 -7 161 -7 l 332 -7 q 431 39 412 -5 l 431 -205 q 422 -214 429 -213 z "},"ý":{"ha":574,"x_min":72,"x_max":492,"o":"m 422 -214 l 90 -214 l 90 -264 l 357 -264 q 480 -213 456 -264 q 492 -142 492 -186 l 492 665 l 431 665 l 431 43 l 142 43 q 133 53 134 46 l 133 665 l 72 665 l 72 115 q 133 3 72 24 q 208 -7 161 -7 l 332 -7 q 431 39 412 -5 l 431 -205 q 422 -214 429 -213 m 251 751 l 332 921 l 408 920 l 301 751 l 251 751 z "},"ÿ":{"ha":574,"x_min":72,"x_max":492,"o":"m 422 -214 l 90 -214 l 90 -264 l 357 -264 q 480 -213 456 -264 q 492 -142 492 -186 l 492 665 l 431 665 l 431 43 l 142 43 q 133 53 134 46 l 133 665 l 72 665 l 72 115 q 133 3 72 24 q 208 -7 161 -7 l 332 -7 q 431 39 412 -5 l 431 -205 q 422 -214 429 -213 m 206 788 l 206 883 l 133 883 l 133 788 l 206 788 m 434 788 l 434 883 l 361 883 l 361 788 l 434 788 z "},"¥":{"ha":708,"x_min":47,"x_max":661,"o":"m 572 176 l 572 225 l 387 225 l 387 311 l 572 311 l 572 359 l 464 359 q 488 411 472 373 l 661 814 l 594 814 l 410 369 q 397 359 404 361 l 317 359 q 305 369 309 362 l 117 815 l 47 815 l 221 411 q 245 359 231 388 l 140 359 l 140 311 l 324 311 l 324 225 l 140 225 l 140 176 l 324 176 l 324 0 l 387 0 l 387 176 l 572 176 z "},"z":{"ha":473,"x_min":26,"x_max":433,"o":"m 433 49 l 98 49 q 92 65 85 52 l 430 587 q 340 665 427 663 l 53 665 l 53 616 l 363 616 q 370 602 376 613 l 26 68 q 98 0 26 5 q 117 0 107 0 l 433 0 l 433 49 z "},"ź":{"ha":473,"x_min":26,"x_max":433,"o":"m 433 49 l 98 49 q 92 65 85 52 l 430 587 q 340 665 427 663 l 53 665 l 53 616 l 363 616 q 370 602 376 613 l 26 68 q 98 0 26 5 q 117 0 107 0 l 433 0 l 433 49 m 201 751 l 282 921 l 358 920 l 251 751 l 201 751 z "},"ž":{"ha":473,"x_min":26,"x_max":433,"o":"m 433 49 l 98 49 q 92 65 85 52 l 430 587 q 340 665 427 663 l 53 665 l 53 616 l 363 616 q 370 602 376 613 l 26 68 q 98 0 26 5 q 117 0 107 0 l 433 0 l 433 49 m 206 758 l 282 758 l 404 921 l 340 921 l 244 791 l 157 921 l 91 921 l 206 758 z "},"ż":{"ha":473,"x_min":26,"x_max":433,"o":"m 433 49 l 98 49 q 92 65 85 52 l 430 587 q 340 665 427 663 l 53 665 l 53 616 l 363 616 q 370 602 376 613 l 26 68 q 98 0 26 5 q 117 0 107 0 l 433 0 l 433 49 m 273 787 l 273 890 l 194 890 l 194 787 l 273 787 z "},"‍":{"ha":0,"x_min":-205,"x_max":205,"o":"m 37 888 l 205 722 l 168 685 l 27 827 l 27 14 l -27 14 l -27 827 l -168 685 l -205 722 l -37 888 l -205 1054 l -168 1089 l 0 921 l 168 1089 l 205 1054 l 37 888 z "},"‌":{"ha":0,"x_min":-27,"x_max":27,"o":"m -27 12 l -27 1032 l 27 1032 l 27 12 l -27 12 z "}}}
